M48
; DRILL file {KiCad 9.0.2} date 2026-03-05T18:00:36+0900
; FORMAT={-:-/ absolute / metric / decimal}
; #@! TF.CreationDate,2026-03-05T18:00:36+09:00
; #@! TF.GenerationSoftware,Kicad,Pcbnew,9.0.2
; #@! TF.FileFunction,MixedPlating,1,2
FMAT,2
METRIC
; #@! TA.AperFunction,Plated,PTH,ViaDrill
T1C0.300
; #@! TA.AperFunction,Plated,PTH,ComponentDrill
T2C0.800
; #@! TA.AperFunction,Plated,PTH,ComponentDrill
T3C1.000
; #@! TA.AperFunction,Plated,PTH,ComponentDrill
T4C1.100
; #@! TA.AperFunction,Plated,PTH,ComponentDrill
T5C1.200
; #@! TA.AperFunction,Plated,PTH,ComponentDrill
T6C1.300
; #@! TA.AperFunction,Plated,PTH,ComponentDrill
T7C1.400
; #@! TA.AperFunction,Plated,PTH,ComponentDrill
T8C1.520
; #@! TA.AperFunction,Plated,PTH,ComponentDrill
T9C1.700
; #@! TA.AperFunction,NonPlated,NPTH,ComponentDrill
T10C3.200
%
G90
G05
T1
X79.5Y-70.0
X80.0Y-52.0
X80.0Y-136.0
X80.5Y-95.5
X87.8Y-102.9
X88.0Y-87.5
X90.0Y-42.0
X90.0Y-146.0
X95.0Y-70.0
X97.0Y-97.0
X99.5Y-91.5
X99.5Y-103.0
X105.5Y-127.5
X108.5Y-142.5
X110.0Y-42.0
X112.0Y-109.5
X117.0Y-70.0
X120.5Y-113.5
X121.0Y-89.5
X122.5Y-79.0
X124.0Y-100.5
X124.0Y-146.5
X126.0Y-79.5
X126.0Y-91.0
X126.5Y-63.5
X130.0Y-42.0
X130.0Y-79.0
X131.0Y-70.5
X132.0Y-57.5
X133.5Y-109.5
X135.0Y-112.5
X135.0Y-146.0
X136.5Y-66.5
X137.5Y-52.5
X139.0Y-86.5
X141.5Y-61.5
X142.5Y-47.5
X143.0Y-70.0
X145.0Y-97.5
X145.5Y-114.5
X146.5Y-56.5
X147.0Y-103.5
X147.5Y-91.5
X150.0Y-42.0
X151.5Y-51.5
X151.5Y-109.5
X153.5Y-127.5
X154.0Y-46.0
X156.5Y-142.5
X157.0Y-55.0
X157.0Y-62.5
X165.0Y-47.0
X165.5Y-55.0
X165.5Y-62.5
X165.5Y-70.0
X168.0Y-109.5
X168.5Y-114.5
X169.0Y-89.5
X170.0Y-79.0
X172.0Y-100.0
X173.5Y-79.5
X173.5Y-91.0
X174.0Y-146.0
X174.5Y-70.5
X177.0Y-79.0
X182.0Y-47.0
X182.0Y-111.0
X187.0Y-86.5
X187.5Y-52.5
X190.0Y-42.0
X190.0Y-70.5
X192.5Y-57.5
X192.5Y-97.5
X195.0Y-103.5
X195.5Y-91.5
X196.5Y-48.5
X197.5Y-62.5
X199.5Y-109.0
X201.5Y-53.5
X201.5Y-127.5
X204.5Y-142.5
X206.5Y-58.5
X211.5Y-63.5
X212.5Y-74.5
X212.5Y-78.5
X214.5Y-147.5
X215.0Y-42.0
X216.5Y-70.5
X217.0Y-89.0
X218.5Y-81.0
X219.5Y-142.5
X220.0Y-100.0
X221.5Y-79.5
X221.5Y-91.0
X225.0Y-52.0
X225.0Y-72.0
X225.0Y-116.0
X225.0Y-136.0
X226.5Y-83.0
X226.5Y-106.5
T2
X88.1Y-93.4
X88.1Y-98.4
X94.69Y-85.5
X94.69Y-100.5
X94.69Y-104.0
X94.7Y-89.0
X97.38Y-143.5
X101.685Y-129.235
X101.685Y-131.775
X101.685Y-136.235
X101.685Y-138.775
X102.31Y-85.5
X102.31Y-100.5
X102.31Y-104.0
X102.32Y-89.0
X104.5Y-92.0
X104.5Y-97.0
X105.0Y-143.5
X109.305Y-129.235
X109.305Y-131.775
X109.305Y-136.235
X109.305Y-138.775
X136.1Y-93.8
X136.1Y-98.8
X142.69Y-85.5
X142.69Y-89.0
X142.69Y-100.5
X142.69Y-104.0
X145.19Y-143.5
X149.685Y-129.235
X149.685Y-131.775
X149.685Y-136.235
X149.685Y-138.775
X150.31Y-85.5
X150.31Y-89.0
X150.31Y-100.5
X150.31Y-104.0
X152.5Y-92.0
X152.5Y-97.0
X152.81Y-143.5
X157.305Y-129.235
X157.305Y-131.775
X157.305Y-136.235
X157.305Y-138.775
X184.1Y-94.0
X184.1Y-99.0
X190.69Y-85.5
X190.69Y-89.0
X190.69Y-100.5
X190.69Y-104.0
X193.5Y-144.0
X197.685Y-129.235
X197.685Y-131.775
X197.685Y-136.51
X197.685Y-139.05
X198.31Y-85.5
X198.31Y-89.0
X198.31Y-100.5
X198.31Y-104.0
X200.5Y-92.0
X200.5Y-97.0
X201.12Y-144.0
X205.305Y-129.235
X205.305Y-131.775
X205.305Y-136.51
X205.305Y-139.05
T4
X90.5Y-80.34
X90.5Y-90.5
X138.5Y-80.34
X138.5Y-90.5
X186.5Y-80.42
X186.5Y-90.58
T5
X114.96Y-144.0
X117.5Y-144.0
X120.04Y-144.0
X122.0Y-64.0
X122.0Y-84.0
X122.0Y-106.0
X122.0Y-126.0
X163.0Y-144.0
X165.54Y-144.0
X168.08Y-144.0
X170.0Y-64.0
X170.0Y-84.0
X170.0Y-106.0
X170.0Y-126.0
X211.0Y-144.0
X213.54Y-144.0
X216.08Y-144.0
X218.0Y-64.0
X218.0Y-84.0
X218.0Y-106.0
X218.0Y-126.0
T6
X100.38Y-69.84
X100.38Y-74.92
X100.38Y-80.0
X100.38Y-112.0
X100.38Y-117.08
X100.38Y-122.16
X108.0Y-69.84
X108.0Y-74.92
X108.0Y-80.0
X108.0Y-112.0
X108.0Y-117.08
X108.0Y-122.16
X148.38Y-69.84
X148.38Y-74.92
X148.38Y-80.0
X148.38Y-112.0
X148.38Y-117.08
X148.38Y-122.16
X156.0Y-69.84
X156.0Y-74.92
X156.0Y-80.0
X156.0Y-112.0
X156.0Y-117.08
X156.0Y-122.16
X196.0Y-69.84
X196.0Y-74.92
X196.0Y-80.0
X196.0Y-112.19
X196.0Y-117.27
X196.0Y-122.35
X203.62Y-69.84
X203.62Y-74.92
X203.62Y-80.0
X203.62Y-112.19
X203.62Y-117.27
X203.62Y-122.35
T7
X109.68Y-91.0
X109.68Y-98.5
X130.0Y-91.0
X130.0Y-98.5
X157.68Y-91.0
X157.68Y-98.5
X178.0Y-91.0
X178.0Y-98.5
X205.68Y-91.0
X205.68Y-98.5
X226.0Y-91.0
X226.0Y-98.5
T8
X156.42Y-43.0
X161.5Y-43.0
X166.58Y-43.0
T9
X80.95Y-75.0
X80.95Y-78.96
X80.95Y-82.92
T10
X80.0Y-42.0
X80.0Y-146.0
X225.0Y-42.0
X225.0Y-146.0
T3
G00X79.5Y-107.542
M15
G01X79.5Y-109.542
M16
G05
G00X81.5Y-113.242
M15
G01X83.5Y-113.242
M16
G05
G00X85.5Y-107.542
M15
G01X85.5Y-109.542
M16
G05
M30
