%TF.GenerationSoftware,KiCad,Pcbnew,9.0.2*%
%TF.CreationDate,2026-03-05T18:00:30+09:00*%
%TF.ProjectId,2lv_inverter,326c765f-696e-4766-9572-7465722e6b69,rev?*%
%TF.SameCoordinates,Original*%
%TF.FileFunction,Soldermask,Bot*%
%TF.FilePolarity,Negative*%
%FSLAX46Y46*%
G04 Gerber Fmt 4.6, Leading zero omitted, Abs format (unit mm)*
G04 Created by KiCad (PCBNEW 9.0.2) date 2026-03-05 18:00:30*
%MOMM*%
%LPD*%
G01*
G04 APERTURE LIST*
G04 Aperture macros list*
%AMRoundRect*
0 Rectangle with rounded corners*
0 $1 Rounding radius*
0 $2 $3 $4 $5 $6 $7 $8 $9 X,Y pos of 4 corners*
0 Add a 4 corners polygon primitive as box body*
4,1,4,$2,$3,$4,$5,$6,$7,$8,$9,$2,$3,0*
0 Add four circle primitives for the rounded corners*
1,1,$1+$1,$2,$3*
1,1,$1+$1,$4,$5*
1,1,$1+$1,$6,$7*
1,1,$1+$1,$8,$9*
0 Add four rect primitives between the rounded corners*
20,1,$1+$1,$2,$3,$4,$5,0*
20,1,$1+$1,$4,$5,$6,$7,0*
20,1,$1+$1,$6,$7,$8,$9,0*
20,1,$1+$1,$8,$9,$2,$3,0*%
G04 Aperture macros list end*
%ADD10C,1.950000*%
%ADD11R,1.950000X1.950000*%
%ADD12R,1.800000X1.800000*%
%ADD13C,1.800000*%
%ADD14RoundRect,0.250000X0.550000X0.550000X-0.550000X0.550000X-0.550000X-0.550000X0.550000X-0.550000X0*%
%ADD15C,1.600000*%
%ADD16RoundRect,0.250001X1.099999X-1.099999X1.099999X1.099999X-1.099999X1.099999X-1.099999X-1.099999X0*%
%ADD17C,2.700000*%
%ADD18RoundRect,0.249999X0.850001X-0.850001X0.850001X0.850001X-0.850001X0.850001X-0.850001X-0.850001X0*%
%ADD19C,2.200000*%
%ADD20C,3.200000*%
%ADD21R,3.000000X3.000000*%
%ADD22C,3.000000*%
%ADD23C,2.800000*%
%ADD24RoundRect,0.250000X-0.750000X-0.750000X0.750000X-0.750000X0.750000X0.750000X-0.750000X0.750000X0*%
%ADD25C,2.000000*%
%ADD26R,3.500000X3.500000*%
%ADD27RoundRect,0.750000X-0.750000X-1.000000X0.750000X-1.000000X0.750000X1.000000X-0.750000X1.000000X0*%
%ADD28RoundRect,0.875000X-0.875000X-0.875000X0.875000X-0.875000X0.875000X0.875000X-0.875000X0.875000X0*%
G04 APERTURE END LIST*
D10*
%TO.C,J12*%
X108000000Y-69840000D03*
D11*
X100380000Y-69840000D03*
D10*
X108000000Y-74920000D03*
X100380000Y-74920000D03*
X108000000Y-80000000D03*
X100380000Y-80000000D03*
%TD*%
D12*
%TO.C,C9*%
X218000000Y-106000000D03*
D13*
X218000000Y-126000000D03*
%TD*%
D14*
%TO.C,U2*%
X109305000Y-138775000D03*
D15*
X109305000Y-136235000D03*
X101685000Y-136235000D03*
X101685000Y-138775000D03*
%TD*%
%TO.C,C12*%
X184100000Y-99000000D03*
X184100000Y-94000000D03*
%TD*%
D16*
%TO.C,J2*%
X80950000Y-82920000D03*
D17*
X80950000Y-78960000D03*
X80950000Y-75000000D03*
%TD*%
D15*
%TO.C,R1*%
X94690000Y-104000000D03*
X102310000Y-104000000D03*
%TD*%
D18*
%TO.C,D1*%
X138500000Y-90500000D03*
D19*
X138500000Y-80340000D03*
%TD*%
D15*
%TO.C,C10*%
X88100000Y-98400000D03*
X88100000Y-93400000D03*
%TD*%
D14*
%TO.C,U3*%
X109305000Y-131775000D03*
D15*
X109305000Y-129235000D03*
X101685000Y-129235000D03*
X101685000Y-131775000D03*
%TD*%
%TO.C,R12*%
X190690000Y-100500000D03*
X198310000Y-100500000D03*
%TD*%
%TO.C,R11*%
X190690000Y-89000000D03*
X198310000Y-89000000D03*
%TD*%
D20*
%TO.C,H1*%
X225000000Y-42000000D03*
%TD*%
D15*
%TO.C,R20*%
X145190000Y-143500000D03*
X152810000Y-143500000D03*
%TD*%
D21*
%TO.C,J11*%
X156420000Y-43000000D03*
D22*
X161500000Y-43000000D03*
X166580000Y-43000000D03*
%TD*%
D20*
%TO.C,H3*%
X225000000Y-146000000D03*
%TD*%
D10*
%TO.C,J1*%
X108000000Y-112000000D03*
D11*
X100380000Y-112000000D03*
D10*
X108000000Y-117080000D03*
X100380000Y-117080000D03*
X108000000Y-122160000D03*
X100380000Y-122160000D03*
%TD*%
D15*
%TO.C,C3*%
X200500000Y-92000000D03*
X200500000Y-97000000D03*
%TD*%
%TO.C,C11*%
X136100000Y-98800000D03*
X136100000Y-93800000D03*
%TD*%
%TO.C,C2*%
X152500000Y-92000000D03*
X152500000Y-97000000D03*
%TD*%
D12*
%TO.C,C8*%
X170000000Y-106000000D03*
D13*
X170000000Y-126000000D03*
%TD*%
D23*
%TO.C,R18*%
X205680000Y-98500000D03*
X226000000Y-98500000D03*
%TD*%
D12*
%TO.C,C7*%
X218000000Y-64000000D03*
D13*
X218000000Y-84000000D03*
%TD*%
D15*
%TO.C,R21*%
X193500000Y-144000000D03*
X201120000Y-144000000D03*
%TD*%
%TO.C,R6*%
X142690000Y-104000000D03*
X150310000Y-104000000D03*
%TD*%
D14*
%TO.C,U8*%
X205305000Y-131775000D03*
D15*
X205305000Y-129235000D03*
X197685000Y-129235000D03*
X197685000Y-131775000D03*
%TD*%
%TO.C,R5*%
X142690000Y-85500000D03*
X150310000Y-85500000D03*
%TD*%
%TO.C,R9*%
X190690000Y-85500000D03*
X198310000Y-85500000D03*
%TD*%
%TO.C,R2*%
X94690000Y-85500000D03*
X102310000Y-85500000D03*
%TD*%
D18*
%TO.C,D2*%
X186500000Y-90580000D03*
D19*
X186500000Y-80420000D03*
%TD*%
D10*
%TO.C,J10*%
X203620000Y-112190000D03*
D11*
X196000000Y-112190000D03*
D10*
X203620000Y-117270000D03*
X196000000Y-117270000D03*
X203620000Y-122350000D03*
X196000000Y-122350000D03*
%TD*%
D12*
%TO.C,C6*%
X170000000Y-64000000D03*
D13*
X170000000Y-84000000D03*
%TD*%
D15*
%TO.C,R10*%
X190690000Y-104000000D03*
X198310000Y-104000000D03*
%TD*%
D23*
%TO.C,R14*%
X109680000Y-98500000D03*
X130000000Y-98500000D03*
%TD*%
D10*
%TO.C,J7*%
X203620000Y-69840000D03*
D11*
X196000000Y-69840000D03*
D10*
X203620000Y-74920000D03*
X196000000Y-74920000D03*
X203620000Y-80000000D03*
X196000000Y-80000000D03*
%TD*%
D24*
%TO.C,J6*%
X163000000Y-144000000D03*
D25*
X165540000Y-144000000D03*
X168080000Y-144000000D03*
%TD*%
D12*
%TO.C,C5*%
X122000000Y-106000000D03*
D13*
X122000000Y-126000000D03*
%TD*%
D20*
%TO.C,H4*%
X80000000Y-146000000D03*
%TD*%
D23*
%TO.C,R17*%
X157680000Y-98500000D03*
X178000000Y-98500000D03*
%TD*%
D20*
%TO.C,H2*%
X80000000Y-42000000D03*
%TD*%
D24*
%TO.C,J9*%
X211000000Y-144000000D03*
D25*
X213540000Y-144000000D03*
X216080000Y-144000000D03*
%TD*%
D23*
%TO.C,R13*%
X130000000Y-91000000D03*
X109680000Y-91000000D03*
%TD*%
D26*
%TO.C,J5*%
X85500000Y-108542500D03*
D27*
X79500000Y-108542500D03*
D28*
X82500000Y-113242500D03*
%TD*%
D15*
%TO.C,R19*%
X97380000Y-143500000D03*
X105000000Y-143500000D03*
%TD*%
D18*
%TO.C,D4*%
X90500000Y-90500000D03*
D19*
X90500000Y-80340000D03*
%TD*%
D15*
%TO.C,R8*%
X142690000Y-100500000D03*
X150310000Y-100500000D03*
%TD*%
D10*
%TO.C,J8*%
X156000000Y-112000000D03*
D11*
X148380000Y-112000000D03*
D10*
X156000000Y-117080000D03*
X148380000Y-117080000D03*
X156000000Y-122160000D03*
X148380000Y-122160000D03*
%TD*%
D15*
%TO.C,C1*%
X104500000Y-92000000D03*
X104500000Y-97000000D03*
%TD*%
%TO.C,R7*%
X142690000Y-89000000D03*
X150310000Y-89000000D03*
%TD*%
D14*
%TO.C,U7*%
X205305000Y-139050000D03*
D15*
X205305000Y-136510000D03*
X197685000Y-136510000D03*
X197685000Y-139050000D03*
%TD*%
D10*
%TO.C,J4*%
X156000000Y-69840000D03*
D11*
X148380000Y-69840000D03*
D10*
X156000000Y-74920000D03*
X148380000Y-74920000D03*
X156000000Y-80000000D03*
X148380000Y-80000000D03*
%TD*%
D23*
%TO.C,R16*%
X226000000Y-91000000D03*
X205680000Y-91000000D03*
%TD*%
D12*
%TO.C,C4*%
X122000000Y-64000000D03*
D13*
X122000000Y-84000000D03*
%TD*%
D15*
%TO.C,R4*%
X94690000Y-100500000D03*
X102310000Y-100500000D03*
%TD*%
%TO.C,R3*%
X94700000Y-89000000D03*
X102320000Y-89000000D03*
%TD*%
D23*
%TO.C,R15*%
X178000000Y-91000000D03*
X157680000Y-91000000D03*
%TD*%
D14*
%TO.C,U5*%
X157305000Y-131775000D03*
D15*
X157305000Y-129235000D03*
X149685000Y-129235000D03*
X149685000Y-131775000D03*
%TD*%
D14*
%TO.C,U4*%
X157305000Y-138775000D03*
D15*
X157305000Y-136235000D03*
X149685000Y-136235000D03*
X149685000Y-138775000D03*
%TD*%
D24*
%TO.C,J3*%
X114960000Y-144000000D03*
D25*
X117500000Y-144000000D03*
X120040000Y-144000000D03*
%TD*%
M02*
