%TF.GenerationSoftware,KiCad,Pcbnew,9.0.2*%
%TF.CreationDate,2026-03-05T18:00:36+09:00*%
%TF.ProjectId,2lv_inverter,326c765f-696e-4766-9572-7465722e6b69,rev?*%
%TF.SameCoordinates,Original*%
%TF.FileFunction,Drillmap*%
%TF.FilePolarity,Positive*%
%FSLAX45Y45*%
G04 Gerber Fmt 4.5, Leading zero omitted, Abs format (unit mm)*
G04 Created by KiCad (PCBNEW 9.0.2) date 2026-03-05 18:00:36*
%MOMM*%
%LPD*%
G01*
G04 APERTURE LIST*
%ADD10C,0.050000*%
%ADD11C,0.200000*%
%ADD12C,0.100000*%
%ADD13C,0.110000*%
%ADD14C,0.120000*%
%ADD15C,0.130000*%
%ADD16C,0.140000*%
%ADD17C,0.152000*%
%ADD18C,0.170000*%
%ADD19C,0.320000*%
G04 APERTURE END LIST*
D10*
X7500000Y-3700000D02*
X23000000Y-3700000D01*
X23000000Y-15100000D02*
X23000000Y-3700000D01*
X7500000Y-15100000D02*
X7500000Y-3700000D01*
X7500000Y-15100000D02*
X23000000Y-15100000D01*
D11*
D12*
X7935000Y-6985000D02*
X7965000Y-7015000D01*
X7965000Y-6985000D02*
X7935000Y-7015000D01*
X7985000Y-5185000D02*
X8015000Y-5215000D01*
X8015000Y-5185000D02*
X7985000Y-5215000D01*
X7985000Y-13585000D02*
X8015000Y-13615000D01*
X8015000Y-13585000D02*
X7985000Y-13615000D01*
X8035000Y-9535000D02*
X8065000Y-9565000D01*
X8065000Y-9535000D02*
X8035000Y-9565000D01*
X8765000Y-10275000D02*
X8795000Y-10305000D01*
X8795000Y-10275000D02*
X8765000Y-10305000D01*
X8785000Y-8735000D02*
X8815000Y-8765000D01*
X8815000Y-8735000D02*
X8785000Y-8765000D01*
X8985000Y-4185000D02*
X9015000Y-4215000D01*
X9015000Y-4185000D02*
X8985000Y-4215000D01*
X8985000Y-14585000D02*
X9015000Y-14615000D01*
X9015000Y-14585000D02*
X8985000Y-14615000D01*
X9485000Y-6985000D02*
X9515000Y-7015000D01*
X9515000Y-6985000D02*
X9485000Y-7015000D01*
X9685000Y-9685000D02*
X9715000Y-9715000D01*
X9715000Y-9685000D02*
X9685000Y-9715000D01*
X9935000Y-9135000D02*
X9965000Y-9165000D01*
X9965000Y-9135000D02*
X9935000Y-9165000D01*
X9935000Y-10285000D02*
X9965000Y-10315000D01*
X9965000Y-10285000D02*
X9935000Y-10315000D01*
X10535000Y-12735000D02*
X10565000Y-12765000D01*
X10565000Y-12735000D02*
X10535000Y-12765000D01*
X10835000Y-14235000D02*
X10865000Y-14265000D01*
X10865000Y-14235000D02*
X10835000Y-14265000D01*
X10985000Y-4185000D02*
X11015000Y-4215000D01*
X11015000Y-4185000D02*
X10985000Y-4215000D01*
X11185000Y-10935000D02*
X11215000Y-10965000D01*
X11215000Y-10935000D02*
X11185000Y-10965000D01*
X11685000Y-6985000D02*
X11715000Y-7015000D01*
X11715000Y-6985000D02*
X11685000Y-7015000D01*
X12035000Y-11335000D02*
X12065000Y-11365000D01*
X12065000Y-11335000D02*
X12035000Y-11365000D01*
X12085000Y-8935000D02*
X12115000Y-8965000D01*
X12115000Y-8935000D02*
X12085000Y-8965000D01*
X12235000Y-7885000D02*
X12265000Y-7915000D01*
X12265000Y-7885000D02*
X12235000Y-7915000D01*
X12385000Y-10035000D02*
X12415000Y-10065000D01*
X12415000Y-10035000D02*
X12385000Y-10065000D01*
X12385000Y-14635000D02*
X12415000Y-14665000D01*
X12415000Y-14635000D02*
X12385000Y-14665000D01*
X12585000Y-7935000D02*
X12615000Y-7965000D01*
X12615000Y-7935000D02*
X12585000Y-7965000D01*
X12585000Y-9085000D02*
X12615000Y-9115000D01*
X12615000Y-9085000D02*
X12585000Y-9115000D01*
X12635000Y-6335000D02*
X12665000Y-6365000D01*
X12665000Y-6335000D02*
X12635000Y-6365000D01*
X12985000Y-4185000D02*
X13015000Y-4215000D01*
X13015000Y-4185000D02*
X12985000Y-4215000D01*
X12985000Y-7885000D02*
X13015000Y-7915000D01*
X13015000Y-7885000D02*
X12985000Y-7915000D01*
X13085000Y-7035000D02*
X13115000Y-7065000D01*
X13115000Y-7035000D02*
X13085000Y-7065000D01*
X13185000Y-5735000D02*
X13215000Y-5765000D01*
X13215000Y-5735000D02*
X13185000Y-5765000D01*
X13335000Y-10935000D02*
X13365000Y-10965000D01*
X13365000Y-10935000D02*
X13335000Y-10965000D01*
X13485000Y-11235000D02*
X13515000Y-11265000D01*
X13515000Y-11235000D02*
X13485000Y-11265000D01*
X13485000Y-14585000D02*
X13515000Y-14615000D01*
X13515000Y-14585000D02*
X13485000Y-14615000D01*
X13635000Y-6635000D02*
X13665000Y-6665000D01*
X13665000Y-6635000D02*
X13635000Y-6665000D01*
X13735000Y-5235000D02*
X13765000Y-5265000D01*
X13765000Y-5235000D02*
X13735000Y-5265000D01*
X13885000Y-8635000D02*
X13915000Y-8665000D01*
X13915000Y-8635000D02*
X13885000Y-8665000D01*
X14135000Y-6135000D02*
X14165000Y-6165000D01*
X14165000Y-6135000D02*
X14135000Y-6165000D01*
X14235000Y-4735000D02*
X14265000Y-4765000D01*
X14265000Y-4735000D02*
X14235000Y-4765000D01*
X14285000Y-6985000D02*
X14315000Y-7015000D01*
X14315000Y-6985000D02*
X14285000Y-7015000D01*
X14485000Y-9735000D02*
X14515000Y-9765000D01*
X14515000Y-9735000D02*
X14485000Y-9765000D01*
X14535000Y-11435000D02*
X14565000Y-11465000D01*
X14565000Y-11435000D02*
X14535000Y-11465000D01*
X14635000Y-5635000D02*
X14665000Y-5665000D01*
X14665000Y-5635000D02*
X14635000Y-5665000D01*
X14685000Y-10335000D02*
X14715000Y-10365000D01*
X14715000Y-10335000D02*
X14685000Y-10365000D01*
X14735000Y-9135000D02*
X14765000Y-9165000D01*
X14765000Y-9135000D02*
X14735000Y-9165000D01*
X14985000Y-4185000D02*
X15015000Y-4215000D01*
X15015000Y-4185000D02*
X14985000Y-4215000D01*
X15135000Y-5135000D02*
X15165000Y-5165000D01*
X15165000Y-5135000D02*
X15135000Y-5165000D01*
X15135000Y-10935000D02*
X15165000Y-10965000D01*
X15165000Y-10935000D02*
X15135000Y-10965000D01*
X15335000Y-12735000D02*
X15365000Y-12765000D01*
X15365000Y-12735000D02*
X15335000Y-12765000D01*
X15385000Y-4585000D02*
X15415000Y-4615000D01*
X15415000Y-4585000D02*
X15385000Y-4615000D01*
X15635000Y-14235000D02*
X15665000Y-14265000D01*
X15665000Y-14235000D02*
X15635000Y-14265000D01*
X15685000Y-5485000D02*
X15715000Y-5515000D01*
X15715000Y-5485000D02*
X15685000Y-5515000D01*
X15685000Y-6235000D02*
X15715000Y-6265000D01*
X15715000Y-6235000D02*
X15685000Y-6265000D01*
X16485000Y-4685000D02*
X16515000Y-4715000D01*
X16515000Y-4685000D02*
X16485000Y-4715000D01*
X16535000Y-5485000D02*
X16565000Y-5515000D01*
X16565000Y-5485000D02*
X16535000Y-5515000D01*
X16535000Y-6235000D02*
X16565000Y-6265000D01*
X16565000Y-6235000D02*
X16535000Y-6265000D01*
X16535000Y-6985000D02*
X16565000Y-7015000D01*
X16565000Y-6985000D02*
X16535000Y-7015000D01*
X16785000Y-10935000D02*
X16815000Y-10965000D01*
X16815000Y-10935000D02*
X16785000Y-10965000D01*
X16835000Y-11435000D02*
X16865000Y-11465000D01*
X16865000Y-11435000D02*
X16835000Y-11465000D01*
X16885000Y-8935000D02*
X16915000Y-8965000D01*
X16915000Y-8935000D02*
X16885000Y-8965000D01*
X16985000Y-7885000D02*
X17015000Y-7915000D01*
X17015000Y-7885000D02*
X16985000Y-7915000D01*
X17185000Y-9985000D02*
X17215000Y-10015000D01*
X17215000Y-9985000D02*
X17185000Y-10015000D01*
X17335000Y-7935000D02*
X17365000Y-7965000D01*
X17365000Y-7935000D02*
X17335000Y-7965000D01*
X17335000Y-9085000D02*
X17365000Y-9115000D01*
X17365000Y-9085000D02*
X17335000Y-9115000D01*
X17385000Y-14585000D02*
X17415000Y-14615000D01*
X17415000Y-14585000D02*
X17385000Y-14615000D01*
X17435000Y-7035000D02*
X17465000Y-7065000D01*
X17465000Y-7035000D02*
X17435000Y-7065000D01*
X17685000Y-7885000D02*
X17715000Y-7915000D01*
X17715000Y-7885000D02*
X17685000Y-7915000D01*
X18185000Y-4685000D02*
X18215000Y-4715000D01*
X18215000Y-4685000D02*
X18185000Y-4715000D01*
X18185000Y-11085000D02*
X18215000Y-11115000D01*
X18215000Y-11085000D02*
X18185000Y-11115000D01*
X18685000Y-8635000D02*
X18715000Y-8665000D01*
X18715000Y-8635000D02*
X18685000Y-8665000D01*
X18735000Y-5235000D02*
X18765000Y-5265000D01*
X18765000Y-5235000D02*
X18735000Y-5265000D01*
X18985000Y-4185000D02*
X19015000Y-4215000D01*
X19015000Y-4185000D02*
X18985000Y-4215000D01*
X18985000Y-7035000D02*
X19015000Y-7065000D01*
X19015000Y-7035000D02*
X18985000Y-7065000D01*
X19235000Y-5735000D02*
X19265000Y-5765000D01*
X19265000Y-5735000D02*
X19235000Y-5765000D01*
X19235000Y-9735000D02*
X19265000Y-9765000D01*
X19265000Y-9735000D02*
X19235000Y-9765000D01*
X19485000Y-10335000D02*
X19515000Y-10365000D01*
X19515000Y-10335000D02*
X19485000Y-10365000D01*
X19535000Y-9135000D02*
X19565000Y-9165000D01*
X19565000Y-9135000D02*
X19535000Y-9165000D01*
X19635000Y-4835000D02*
X19665000Y-4865000D01*
X19665000Y-4835000D02*
X19635000Y-4865000D01*
X19735000Y-6235000D02*
X19765000Y-6265000D01*
X19765000Y-6235000D02*
X19735000Y-6265000D01*
X19935000Y-10885000D02*
X19965000Y-10915000D01*
X19965000Y-10885000D02*
X19935000Y-10915000D01*
X20135000Y-5335000D02*
X20165000Y-5365000D01*
X20165000Y-5335000D02*
X20135000Y-5365000D01*
X20135000Y-12735000D02*
X20165000Y-12765000D01*
X20165000Y-12735000D02*
X20135000Y-12765000D01*
X20435000Y-14235000D02*
X20465000Y-14265000D01*
X20465000Y-14235000D02*
X20435000Y-14265000D01*
X20635000Y-5835000D02*
X20665000Y-5865000D01*
X20665000Y-5835000D02*
X20635000Y-5865000D01*
X21135000Y-6335000D02*
X21165000Y-6365000D01*
X21165000Y-6335000D02*
X21135000Y-6365000D01*
X21235000Y-7435000D02*
X21265000Y-7465000D01*
X21265000Y-7435000D02*
X21235000Y-7465000D01*
X21235000Y-7835000D02*
X21265000Y-7865000D01*
X21265000Y-7835000D02*
X21235000Y-7865000D01*
X21435000Y-14735000D02*
X21465000Y-14765000D01*
X21465000Y-14735000D02*
X21435000Y-14765000D01*
X21485000Y-4185000D02*
X21515000Y-4215000D01*
X21515000Y-4185000D02*
X21485000Y-4215000D01*
X21635000Y-7035000D02*
X21665000Y-7065000D01*
X21665000Y-7035000D02*
X21635000Y-7065000D01*
X21685000Y-8885000D02*
X21715000Y-8915000D01*
X21715000Y-8885000D02*
X21685000Y-8915000D01*
X21835000Y-8085000D02*
X21865000Y-8115000D01*
X21865000Y-8085000D02*
X21835000Y-8115000D01*
X21935000Y-14235000D02*
X21965000Y-14265000D01*
X21965000Y-14235000D02*
X21935000Y-14265000D01*
X21985000Y-9985000D02*
X22015000Y-10015000D01*
X22015000Y-9985000D02*
X21985000Y-10015000D01*
X22135000Y-7935000D02*
X22165000Y-7965000D01*
X22165000Y-7935000D02*
X22135000Y-7965000D01*
X22135000Y-9085000D02*
X22165000Y-9115000D01*
X22165000Y-9085000D02*
X22135000Y-9115000D01*
X22485000Y-5185000D02*
X22515000Y-5215000D01*
X22515000Y-5185000D02*
X22485000Y-5215000D01*
X22485000Y-7185000D02*
X22515000Y-7215000D01*
X22515000Y-7185000D02*
X22485000Y-7215000D01*
X22485000Y-11585000D02*
X22515000Y-11615000D01*
X22515000Y-11585000D02*
X22485000Y-11615000D01*
X22485000Y-13585000D02*
X22515000Y-13615000D01*
X22515000Y-13585000D02*
X22485000Y-13615000D01*
X22635000Y-8285000D02*
X22665000Y-8315000D01*
X22665000Y-8285000D02*
X22635000Y-8315000D01*
X22635000Y-10635000D02*
X22665000Y-10665000D01*
X22665000Y-10635000D02*
X22635000Y-10665000D01*
X8850000Y-9340000D02*
G75*
G02*
X8770000Y-9340000I-40000J0D01*
G01*
X8770000Y-9340000D02*
G75*
G02*
X8850000Y-9340000I40000J0D01*
G01*
X8850000Y-9840000D02*
G75*
G02*
X8770000Y-9840000I-40000J0D01*
G01*
X8770000Y-9840000D02*
G75*
G02*
X8850000Y-9840000I40000J0D01*
G01*
X9509000Y-8550000D02*
G75*
G02*
X9429000Y-8550000I-40000J0D01*
G01*
X9429000Y-8550000D02*
G75*
G02*
X9509000Y-8550000I40000J0D01*
G01*
X9509000Y-10050000D02*
G75*
G02*
X9429000Y-10050000I-40000J0D01*
G01*
X9429000Y-10050000D02*
G75*
G02*
X9509000Y-10050000I40000J0D01*
G01*
X9509000Y-10400000D02*
G75*
G02*
X9429000Y-10400000I-40000J0D01*
G01*
X9429000Y-10400000D02*
G75*
G02*
X9509000Y-10400000I40000J0D01*
G01*
X9510000Y-8900000D02*
G75*
G02*
X9430000Y-8900000I-40000J0D01*
G01*
X9430000Y-8900000D02*
G75*
G02*
X9510000Y-8900000I40000J0D01*
G01*
X9778000Y-14350000D02*
G75*
G02*
X9698000Y-14350000I-40000J0D01*
G01*
X9698000Y-14350000D02*
G75*
G02*
X9778000Y-14350000I40000J0D01*
G01*
X10208500Y-12923500D02*
G75*
G02*
X10128500Y-12923500I-40000J0D01*
G01*
X10128500Y-12923500D02*
G75*
G02*
X10208500Y-12923500I40000J0D01*
G01*
X10208500Y-13177500D02*
G75*
G02*
X10128500Y-13177500I-40000J0D01*
G01*
X10128500Y-13177500D02*
G75*
G02*
X10208500Y-13177500I40000J0D01*
G01*
X10208500Y-13623500D02*
G75*
G02*
X10128500Y-13623500I-40000J0D01*
G01*
X10128500Y-13623500D02*
G75*
G02*
X10208500Y-13623500I40000J0D01*
G01*
X10208500Y-13877500D02*
G75*
G02*
X10128500Y-13877500I-40000J0D01*
G01*
X10128500Y-13877500D02*
G75*
G02*
X10208500Y-13877500I40000J0D01*
G01*
X10271000Y-8550000D02*
G75*
G02*
X10191000Y-8550000I-40000J0D01*
G01*
X10191000Y-8550000D02*
G75*
G02*
X10271000Y-8550000I40000J0D01*
G01*
X10271000Y-10050000D02*
G75*
G02*
X10191000Y-10050000I-40000J0D01*
G01*
X10191000Y-10050000D02*
G75*
G02*
X10271000Y-10050000I40000J0D01*
G01*
X10271000Y-10400000D02*
G75*
G02*
X10191000Y-10400000I-40000J0D01*
G01*
X10191000Y-10400000D02*
G75*
G02*
X10271000Y-10400000I40000J0D01*
G01*
X10272000Y-8900000D02*
G75*
G02*
X10192000Y-8900000I-40000J0D01*
G01*
X10192000Y-8900000D02*
G75*
G02*
X10272000Y-8900000I40000J0D01*
G01*
X10490000Y-9200000D02*
G75*
G02*
X10410000Y-9200000I-40000J0D01*
G01*
X10410000Y-9200000D02*
G75*
G02*
X10490000Y-9200000I40000J0D01*
G01*
X10490000Y-9700000D02*
G75*
G02*
X10410000Y-9700000I-40000J0D01*
G01*
X10410000Y-9700000D02*
G75*
G02*
X10490000Y-9700000I40000J0D01*
G01*
X10540000Y-14350000D02*
G75*
G02*
X10460000Y-14350000I-40000J0D01*
G01*
X10460000Y-14350000D02*
G75*
G02*
X10540000Y-14350000I40000J0D01*
G01*
X10970500Y-12923500D02*
G75*
G02*
X10890500Y-12923500I-40000J0D01*
G01*
X10890500Y-12923500D02*
G75*
G02*
X10970500Y-12923500I40000J0D01*
G01*
X10970500Y-13177500D02*
G75*
G02*
X10890500Y-13177500I-40000J0D01*
G01*
X10890500Y-13177500D02*
G75*
G02*
X10970500Y-13177500I40000J0D01*
G01*
X10970500Y-13623500D02*
G75*
G02*
X10890500Y-13623500I-40000J0D01*
G01*
X10890500Y-13623500D02*
G75*
G02*
X10970500Y-13623500I40000J0D01*
G01*
X10970500Y-13877500D02*
G75*
G02*
X10890500Y-13877500I-40000J0D01*
G01*
X10890500Y-13877500D02*
G75*
G02*
X10970500Y-13877500I40000J0D01*
G01*
X13650000Y-9380000D02*
G75*
G02*
X13570000Y-9380000I-40000J0D01*
G01*
X13570000Y-9380000D02*
G75*
G02*
X13650000Y-9380000I40000J0D01*
G01*
X13650000Y-9880000D02*
G75*
G02*
X13570000Y-9880000I-40000J0D01*
G01*
X13570000Y-9880000D02*
G75*
G02*
X13650000Y-9880000I40000J0D01*
G01*
X14309000Y-8550000D02*
G75*
G02*
X14229000Y-8550000I-40000J0D01*
G01*
X14229000Y-8550000D02*
G75*
G02*
X14309000Y-8550000I40000J0D01*
G01*
X14309000Y-8900000D02*
G75*
G02*
X14229000Y-8900000I-40000J0D01*
G01*
X14229000Y-8900000D02*
G75*
G02*
X14309000Y-8900000I40000J0D01*
G01*
X14309000Y-10050000D02*
G75*
G02*
X14229000Y-10050000I-40000J0D01*
G01*
X14229000Y-10050000D02*
G75*
G02*
X14309000Y-10050000I40000J0D01*
G01*
X14309000Y-10400000D02*
G75*
G02*
X14229000Y-10400000I-40000J0D01*
G01*
X14229000Y-10400000D02*
G75*
G02*
X14309000Y-10400000I40000J0D01*
G01*
X14559000Y-14350000D02*
G75*
G02*
X14479000Y-14350000I-40000J0D01*
G01*
X14479000Y-14350000D02*
G75*
G02*
X14559000Y-14350000I40000J0D01*
G01*
X15008500Y-12923500D02*
G75*
G02*
X14928500Y-12923500I-40000J0D01*
G01*
X14928500Y-12923500D02*
G75*
G02*
X15008500Y-12923500I40000J0D01*
G01*
X15008500Y-13177500D02*
G75*
G02*
X14928500Y-13177500I-40000J0D01*
G01*
X14928500Y-13177500D02*
G75*
G02*
X15008500Y-13177500I40000J0D01*
G01*
X15008500Y-13623500D02*
G75*
G02*
X14928500Y-13623500I-40000J0D01*
G01*
X14928500Y-13623500D02*
G75*
G02*
X15008500Y-13623500I40000J0D01*
G01*
X15008500Y-13877500D02*
G75*
G02*
X14928500Y-13877500I-40000J0D01*
G01*
X14928500Y-13877500D02*
G75*
G02*
X15008500Y-13877500I40000J0D01*
G01*
X15071000Y-8550000D02*
G75*
G02*
X14991000Y-8550000I-40000J0D01*
G01*
X14991000Y-8550000D02*
G75*
G02*
X15071000Y-8550000I40000J0D01*
G01*
X15071000Y-8900000D02*
G75*
G02*
X14991000Y-8900000I-40000J0D01*
G01*
X14991000Y-8900000D02*
G75*
G02*
X15071000Y-8900000I40000J0D01*
G01*
X15071000Y-10050000D02*
G75*
G02*
X14991000Y-10050000I-40000J0D01*
G01*
X14991000Y-10050000D02*
G75*
G02*
X15071000Y-10050000I40000J0D01*
G01*
X15071000Y-10400000D02*
G75*
G02*
X14991000Y-10400000I-40000J0D01*
G01*
X14991000Y-10400000D02*
G75*
G02*
X15071000Y-10400000I40000J0D01*
G01*
X15290000Y-9200000D02*
G75*
G02*
X15210000Y-9200000I-40000J0D01*
G01*
X15210000Y-9200000D02*
G75*
G02*
X15290000Y-9200000I40000J0D01*
G01*
X15290000Y-9700000D02*
G75*
G02*
X15210000Y-9700000I-40000J0D01*
G01*
X15210000Y-9700000D02*
G75*
G02*
X15290000Y-9700000I40000J0D01*
G01*
X15321000Y-14350000D02*
G75*
G02*
X15241000Y-14350000I-40000J0D01*
G01*
X15241000Y-14350000D02*
G75*
G02*
X15321000Y-14350000I40000J0D01*
G01*
X15770500Y-12923500D02*
G75*
G02*
X15690500Y-12923500I-40000J0D01*
G01*
X15690500Y-12923500D02*
G75*
G02*
X15770500Y-12923500I40000J0D01*
G01*
X15770500Y-13177500D02*
G75*
G02*
X15690500Y-13177500I-40000J0D01*
G01*
X15690500Y-13177500D02*
G75*
G02*
X15770500Y-13177500I40000J0D01*
G01*
X15770500Y-13623500D02*
G75*
G02*
X15690500Y-13623500I-40000J0D01*
G01*
X15690500Y-13623500D02*
G75*
G02*
X15770500Y-13623500I40000J0D01*
G01*
X15770500Y-13877500D02*
G75*
G02*
X15690500Y-13877500I-40000J0D01*
G01*
X15690500Y-13877500D02*
G75*
G02*
X15770500Y-13877500I40000J0D01*
G01*
X18450000Y-9400000D02*
G75*
G02*
X18370000Y-9400000I-40000J0D01*
G01*
X18370000Y-9400000D02*
G75*
G02*
X18450000Y-9400000I40000J0D01*
G01*
X18450000Y-9900000D02*
G75*
G02*
X18370000Y-9900000I-40000J0D01*
G01*
X18370000Y-9900000D02*
G75*
G02*
X18450000Y-9900000I40000J0D01*
G01*
X19109000Y-8550000D02*
G75*
G02*
X19029000Y-8550000I-40000J0D01*
G01*
X19029000Y-8550000D02*
G75*
G02*
X19109000Y-8550000I40000J0D01*
G01*
X19109000Y-8900000D02*
G75*
G02*
X19029000Y-8900000I-40000J0D01*
G01*
X19029000Y-8900000D02*
G75*
G02*
X19109000Y-8900000I40000J0D01*
G01*
X19109000Y-10050000D02*
G75*
G02*
X19029000Y-10050000I-40000J0D01*
G01*
X19029000Y-10050000D02*
G75*
G02*
X19109000Y-10050000I40000J0D01*
G01*
X19109000Y-10400000D02*
G75*
G02*
X19029000Y-10400000I-40000J0D01*
G01*
X19029000Y-10400000D02*
G75*
G02*
X19109000Y-10400000I40000J0D01*
G01*
X19390000Y-14400000D02*
G75*
G02*
X19310000Y-14400000I-40000J0D01*
G01*
X19310000Y-14400000D02*
G75*
G02*
X19390000Y-14400000I40000J0D01*
G01*
X19808500Y-12923500D02*
G75*
G02*
X19728500Y-12923500I-40000J0D01*
G01*
X19728500Y-12923500D02*
G75*
G02*
X19808500Y-12923500I40000J0D01*
G01*
X19808500Y-13177500D02*
G75*
G02*
X19728500Y-13177500I-40000J0D01*
G01*
X19728500Y-13177500D02*
G75*
G02*
X19808500Y-13177500I40000J0D01*
G01*
X19808500Y-13651000D02*
G75*
G02*
X19728500Y-13651000I-40000J0D01*
G01*
X19728500Y-13651000D02*
G75*
G02*
X19808500Y-13651000I40000J0D01*
G01*
X19808500Y-13905000D02*
G75*
G02*
X19728500Y-13905000I-40000J0D01*
G01*
X19728500Y-13905000D02*
G75*
G02*
X19808500Y-13905000I40000J0D01*
G01*
X19871000Y-8550000D02*
G75*
G02*
X19791000Y-8550000I-40000J0D01*
G01*
X19791000Y-8550000D02*
G75*
G02*
X19871000Y-8550000I40000J0D01*
G01*
X19871000Y-8900000D02*
G75*
G02*
X19791000Y-8900000I-40000J0D01*
G01*
X19791000Y-8900000D02*
G75*
G02*
X19871000Y-8900000I40000J0D01*
G01*
X19871000Y-10050000D02*
G75*
G02*
X19791000Y-10050000I-40000J0D01*
G01*
X19791000Y-10050000D02*
G75*
G02*
X19871000Y-10050000I40000J0D01*
G01*
X19871000Y-10400000D02*
G75*
G02*
X19791000Y-10400000I-40000J0D01*
G01*
X19791000Y-10400000D02*
G75*
G02*
X19871000Y-10400000I40000J0D01*
G01*
X20090000Y-9200000D02*
G75*
G02*
X20010000Y-9200000I-40000J0D01*
G01*
X20010000Y-9200000D02*
G75*
G02*
X20090000Y-9200000I40000J0D01*
G01*
X20090000Y-9700000D02*
G75*
G02*
X20010000Y-9700000I-40000J0D01*
G01*
X20010000Y-9700000D02*
G75*
G02*
X20090000Y-9700000I40000J0D01*
G01*
X20152000Y-14400000D02*
G75*
G02*
X20072000Y-14400000I-40000J0D01*
G01*
X20072000Y-14400000D02*
G75*
G02*
X20152000Y-14400000I40000J0D01*
G01*
X20570500Y-12923500D02*
G75*
G02*
X20490500Y-12923500I-40000J0D01*
G01*
X20490500Y-12923500D02*
G75*
G02*
X20570500Y-12923500I40000J0D01*
G01*
X20570500Y-13177500D02*
G75*
G02*
X20490500Y-13177500I-40000J0D01*
G01*
X20490500Y-13177500D02*
G75*
G02*
X20570500Y-13177500I40000J0D01*
G01*
X20570500Y-13651000D02*
G75*
G02*
X20490500Y-13651000I-40000J0D01*
G01*
X20490500Y-13651000D02*
G75*
G02*
X20570500Y-13651000I40000J0D01*
G01*
X20570500Y-13905000D02*
G75*
G02*
X20490500Y-13905000I-40000J0D01*
G01*
X20490500Y-13905000D02*
G75*
G02*
X20570500Y-13905000I40000J0D01*
G01*
X7950000Y-10804250D02*
X7950000Y-10904250D01*
X7900000Y-10854250D02*
X8000000Y-10854250D01*
X7900000Y-10754250D02*
X7900000Y-10954250D01*
X8000000Y-10954250D02*
G75*
G02*
X7900000Y-10954250I-50000J0D01*
G01*
X8000000Y-10954250D02*
X8000000Y-10754250D01*
X8000000Y-10754250D02*
G75*
G03*
X7900000Y-10754250I-50000J0D01*
G01*
X8250000Y-11274250D02*
X8250000Y-11374250D01*
X8200000Y-11324250D02*
X8300000Y-11324250D01*
X8150000Y-11374250D02*
X8350000Y-11374250D01*
X8350000Y-11274250D02*
G75*
G02*
X8350000Y-11374250I0J-50000D01*
G01*
X8350000Y-11274250D02*
X8150000Y-11274250D01*
X8150000Y-11274250D02*
G75*
G03*
X8150000Y-11374250I0J-50000D01*
G01*
X8550000Y-10804250D02*
X8550000Y-10904250D01*
X8500000Y-10854250D02*
X8600000Y-10854250D01*
X8500000Y-10754250D02*
X8500000Y-10954250D01*
X8600000Y-10954250D02*
G75*
G02*
X8500000Y-10954250I-50000J0D01*
G01*
X8600000Y-10954250D02*
X8600000Y-10754250D01*
X8600000Y-10754250D02*
G75*
G03*
X8500000Y-10754250I-50000J0D01*
G01*
D13*
X9088891Y-8072891D02*
X9088891Y-7995109D01*
X9011109Y-7995109D01*
X9011109Y-8072891D01*
X9088891Y-8072891D01*
X9088891Y-9088891D02*
X9088891Y-9011109D01*
X9011109Y-9011109D01*
X9011109Y-9088891D01*
X9088891Y-9088891D01*
X13888891Y-8072891D02*
X13888891Y-7995109D01*
X13811109Y-7995109D01*
X13811109Y-8072891D01*
X13888891Y-8072891D01*
X13888891Y-9088891D02*
X13888891Y-9011109D01*
X13811109Y-9011109D01*
X13811109Y-9088891D01*
X13888891Y-9088891D01*
X18688891Y-8080891D02*
X18688891Y-8003109D01*
X18611109Y-8003109D01*
X18611109Y-8080891D01*
X18688891Y-8080891D01*
X18688891Y-9096891D02*
X18688891Y-9019109D01*
X18611109Y-9019109D01*
X18611109Y-9096891D01*
X18688891Y-9096891D01*
D14*
X11496000Y-14460000D02*
X11556000Y-14400000D01*
X11496000Y-14340000D01*
X11436000Y-14400000D01*
X11496000Y-14460000D01*
X11750000Y-14460000D02*
X11810000Y-14400000D01*
X11750000Y-14340000D01*
X11690000Y-14400000D01*
X11750000Y-14460000D01*
X12004000Y-14460000D02*
X12064000Y-14400000D01*
X12004000Y-14340000D01*
X11944000Y-14400000D01*
X12004000Y-14460000D01*
X12200000Y-6460000D02*
X12260000Y-6400000D01*
X12200000Y-6340000D01*
X12140000Y-6400000D01*
X12200000Y-6460000D01*
X12200000Y-8460000D02*
X12260000Y-8400000D01*
X12200000Y-8340000D01*
X12140000Y-8400000D01*
X12200000Y-8460000D01*
X12200000Y-10660000D02*
X12260000Y-10600000D01*
X12200000Y-10540000D01*
X12140000Y-10600000D01*
X12200000Y-10660000D01*
X12200000Y-12660000D02*
X12260000Y-12600000D01*
X12200000Y-12540000D01*
X12140000Y-12600000D01*
X12200000Y-12660000D01*
X16300000Y-14460000D02*
X16360000Y-14400000D01*
X16300000Y-14340000D01*
X16240000Y-14400000D01*
X16300000Y-14460000D01*
X16554000Y-14460000D02*
X16614000Y-14400000D01*
X16554000Y-14340000D01*
X16494000Y-14400000D01*
X16554000Y-14460000D01*
X16808000Y-14460000D02*
X16868000Y-14400000D01*
X16808000Y-14340000D01*
X16748000Y-14400000D01*
X16808000Y-14460000D01*
X17000000Y-6460000D02*
X17060000Y-6400000D01*
X17000000Y-6340000D01*
X16940000Y-6400000D01*
X17000000Y-6460000D01*
X17000000Y-8460000D02*
X17060000Y-8400000D01*
X17000000Y-8340000D01*
X16940000Y-8400000D01*
X17000000Y-8460000D01*
X17000000Y-10660000D02*
X17060000Y-10600000D01*
X17000000Y-10540000D01*
X16940000Y-10600000D01*
X17000000Y-10660000D01*
X17000000Y-12660000D02*
X17060000Y-12600000D01*
X17000000Y-12540000D01*
X16940000Y-12600000D01*
X17000000Y-12660000D01*
X21100000Y-14460000D02*
X21160000Y-14400000D01*
X21100000Y-14340000D01*
X21040000Y-14400000D01*
X21100000Y-14460000D01*
X21354000Y-14460000D02*
X21414000Y-14400000D01*
X21354000Y-14340000D01*
X21294000Y-14400000D01*
X21354000Y-14460000D01*
X21608000Y-14460000D02*
X21668000Y-14400000D01*
X21608000Y-14340000D01*
X21548000Y-14400000D01*
X21608000Y-14460000D01*
X21800000Y-6460000D02*
X21860000Y-6400000D01*
X21800000Y-6340000D01*
X21740000Y-6400000D01*
X21800000Y-6460000D01*
X21800000Y-8460000D02*
X21860000Y-8400000D01*
X21800000Y-8340000D01*
X21740000Y-8400000D01*
X21800000Y-8460000D01*
X21800000Y-10660000D02*
X21860000Y-10600000D01*
X21800000Y-10540000D01*
X21740000Y-10600000D01*
X21800000Y-10660000D01*
X21800000Y-12660000D02*
X21860000Y-12600000D01*
X21800000Y-12540000D01*
X21740000Y-12600000D01*
X21800000Y-12660000D01*
D15*
X9973000Y-6919000D02*
X10103000Y-7049000D01*
X10103000Y-6919000D02*
X9973000Y-7049000D01*
X10103000Y-6984000D02*
G75*
G02*
X9973000Y-6984000I-65000J0D01*
G01*
X9973000Y-6984000D02*
G75*
G02*
X10103000Y-6984000I65000J0D01*
G01*
X9973000Y-7427000D02*
X10103000Y-7557000D01*
X10103000Y-7427000D02*
X9973000Y-7557000D01*
X10103000Y-7492000D02*
G75*
G02*
X9973000Y-7492000I-65000J0D01*
G01*
X9973000Y-7492000D02*
G75*
G02*
X10103000Y-7492000I65000J0D01*
G01*
X9973000Y-7935000D02*
X10103000Y-8065000D01*
X10103000Y-7935000D02*
X9973000Y-8065000D01*
X10103000Y-8000000D02*
G75*
G02*
X9973000Y-8000000I-65000J0D01*
G01*
X9973000Y-8000000D02*
G75*
G02*
X10103000Y-8000000I65000J0D01*
G01*
X9973000Y-11135000D02*
X10103000Y-11265000D01*
X10103000Y-11135000D02*
X9973000Y-11265000D01*
X10103000Y-11200000D02*
G75*
G02*
X9973000Y-11200000I-65000J0D01*
G01*
X9973000Y-11200000D02*
G75*
G02*
X10103000Y-11200000I65000J0D01*
G01*
X9973000Y-11643000D02*
X10103000Y-11773000D01*
X10103000Y-11643000D02*
X9973000Y-11773000D01*
X10103000Y-11708000D02*
G75*
G02*
X9973000Y-11708000I-65000J0D01*
G01*
X9973000Y-11708000D02*
G75*
G02*
X10103000Y-11708000I65000J0D01*
G01*
X9973000Y-12151000D02*
X10103000Y-12281000D01*
X10103000Y-12151000D02*
X9973000Y-12281000D01*
X10103000Y-12216000D02*
G75*
G02*
X9973000Y-12216000I-65000J0D01*
G01*
X9973000Y-12216000D02*
G75*
G02*
X10103000Y-12216000I65000J0D01*
G01*
X10735000Y-6919000D02*
X10865000Y-7049000D01*
X10865000Y-6919000D02*
X10735000Y-7049000D01*
X10865000Y-6984000D02*
G75*
G02*
X10735000Y-6984000I-65000J0D01*
G01*
X10735000Y-6984000D02*
G75*
G02*
X10865000Y-6984000I65000J0D01*
G01*
X10735000Y-7427000D02*
X10865000Y-7557000D01*
X10865000Y-7427000D02*
X10735000Y-7557000D01*
X10865000Y-7492000D02*
G75*
G02*
X10735000Y-7492000I-65000J0D01*
G01*
X10735000Y-7492000D02*
G75*
G02*
X10865000Y-7492000I65000J0D01*
G01*
X10735000Y-7935000D02*
X10865000Y-8065000D01*
X10865000Y-7935000D02*
X10735000Y-8065000D01*
X10865000Y-8000000D02*
G75*
G02*
X10735000Y-8000000I-65000J0D01*
G01*
X10735000Y-8000000D02*
G75*
G02*
X10865000Y-8000000I65000J0D01*
G01*
X10735000Y-11135000D02*
X10865000Y-11265000D01*
X10865000Y-11135000D02*
X10735000Y-11265000D01*
X10865000Y-11200000D02*
G75*
G02*
X10735000Y-11200000I-65000J0D01*
G01*
X10735000Y-11200000D02*
G75*
G02*
X10865000Y-11200000I65000J0D01*
G01*
X10735000Y-11643000D02*
X10865000Y-11773000D01*
X10865000Y-11643000D02*
X10735000Y-11773000D01*
X10865000Y-11708000D02*
G75*
G02*
X10735000Y-11708000I-65000J0D01*
G01*
X10735000Y-11708000D02*
G75*
G02*
X10865000Y-11708000I65000J0D01*
G01*
X10735000Y-12151000D02*
X10865000Y-12281000D01*
X10865000Y-12151000D02*
X10735000Y-12281000D01*
X10865000Y-12216000D02*
G75*
G02*
X10735000Y-12216000I-65000J0D01*
G01*
X10735000Y-12216000D02*
G75*
G02*
X10865000Y-12216000I65000J0D01*
G01*
X14773000Y-6919000D02*
X14903000Y-7049000D01*
X14903000Y-6919000D02*
X14773000Y-7049000D01*
X14903000Y-6984000D02*
G75*
G02*
X14773000Y-6984000I-65000J0D01*
G01*
X14773000Y-6984000D02*
G75*
G02*
X14903000Y-6984000I65000J0D01*
G01*
X14773000Y-7427000D02*
X14903000Y-7557000D01*
X14903000Y-7427000D02*
X14773000Y-7557000D01*
X14903000Y-7492000D02*
G75*
G02*
X14773000Y-7492000I-65000J0D01*
G01*
X14773000Y-7492000D02*
G75*
G02*
X14903000Y-7492000I65000J0D01*
G01*
X14773000Y-7935000D02*
X14903000Y-8065000D01*
X14903000Y-7935000D02*
X14773000Y-8065000D01*
X14903000Y-8000000D02*
G75*
G02*
X14773000Y-8000000I-65000J0D01*
G01*
X14773000Y-8000000D02*
G75*
G02*
X14903000Y-8000000I65000J0D01*
G01*
X14773000Y-11135000D02*
X14903000Y-11265000D01*
X14903000Y-11135000D02*
X14773000Y-11265000D01*
X14903000Y-11200000D02*
G75*
G02*
X14773000Y-11200000I-65000J0D01*
G01*
X14773000Y-11200000D02*
G75*
G02*
X14903000Y-11200000I65000J0D01*
G01*
X14773000Y-11643000D02*
X14903000Y-11773000D01*
X14903000Y-11643000D02*
X14773000Y-11773000D01*
X14903000Y-11708000D02*
G75*
G02*
X14773000Y-11708000I-65000J0D01*
G01*
X14773000Y-11708000D02*
G75*
G02*
X14903000Y-11708000I65000J0D01*
G01*
X14773000Y-12151000D02*
X14903000Y-12281000D01*
X14903000Y-12151000D02*
X14773000Y-12281000D01*
X14903000Y-12216000D02*
G75*
G02*
X14773000Y-12216000I-65000J0D01*
G01*
X14773000Y-12216000D02*
G75*
G02*
X14903000Y-12216000I65000J0D01*
G01*
X15535000Y-6919000D02*
X15665000Y-7049000D01*
X15665000Y-6919000D02*
X15535000Y-7049000D01*
X15665000Y-6984000D02*
G75*
G02*
X15535000Y-6984000I-65000J0D01*
G01*
X15535000Y-6984000D02*
G75*
G02*
X15665000Y-6984000I65000J0D01*
G01*
X15535000Y-7427000D02*
X15665000Y-7557000D01*
X15665000Y-7427000D02*
X15535000Y-7557000D01*
X15665000Y-7492000D02*
G75*
G02*
X15535000Y-7492000I-65000J0D01*
G01*
X15535000Y-7492000D02*
G75*
G02*
X15665000Y-7492000I65000J0D01*
G01*
X15535000Y-7935000D02*
X15665000Y-8065000D01*
X15665000Y-7935000D02*
X15535000Y-8065000D01*
X15665000Y-8000000D02*
G75*
G02*
X15535000Y-8000000I-65000J0D01*
G01*
X15535000Y-8000000D02*
G75*
G02*
X15665000Y-8000000I65000J0D01*
G01*
X15535000Y-11135000D02*
X15665000Y-11265000D01*
X15665000Y-11135000D02*
X15535000Y-11265000D01*
X15665000Y-11200000D02*
G75*
G02*
X15535000Y-11200000I-65000J0D01*
G01*
X15535000Y-11200000D02*
G75*
G02*
X15665000Y-11200000I65000J0D01*
G01*
X15535000Y-11643000D02*
X15665000Y-11773000D01*
X15665000Y-11643000D02*
X15535000Y-11773000D01*
X15665000Y-11708000D02*
G75*
G02*
X15535000Y-11708000I-65000J0D01*
G01*
X15535000Y-11708000D02*
G75*
G02*
X15665000Y-11708000I65000J0D01*
G01*
X15535000Y-12151000D02*
X15665000Y-12281000D01*
X15665000Y-12151000D02*
X15535000Y-12281000D01*
X15665000Y-12216000D02*
G75*
G02*
X15535000Y-12216000I-65000J0D01*
G01*
X15535000Y-12216000D02*
G75*
G02*
X15665000Y-12216000I65000J0D01*
G01*
X19535000Y-6919000D02*
X19665000Y-7049000D01*
X19665000Y-6919000D02*
X19535000Y-7049000D01*
X19665000Y-6984000D02*
G75*
G02*
X19535000Y-6984000I-65000J0D01*
G01*
X19535000Y-6984000D02*
G75*
G02*
X19665000Y-6984000I65000J0D01*
G01*
X19535000Y-7427000D02*
X19665000Y-7557000D01*
X19665000Y-7427000D02*
X19535000Y-7557000D01*
X19665000Y-7492000D02*
G75*
G02*
X19535000Y-7492000I-65000J0D01*
G01*
X19535000Y-7492000D02*
G75*
G02*
X19665000Y-7492000I65000J0D01*
G01*
X19535000Y-7935000D02*
X19665000Y-8065000D01*
X19665000Y-7935000D02*
X19535000Y-8065000D01*
X19665000Y-8000000D02*
G75*
G02*
X19535000Y-8000000I-65000J0D01*
G01*
X19535000Y-8000000D02*
G75*
G02*
X19665000Y-8000000I65000J0D01*
G01*
X19535000Y-11154000D02*
X19665000Y-11284000D01*
X19665000Y-11154000D02*
X19535000Y-11284000D01*
X19665000Y-11219000D02*
G75*
G02*
X19535000Y-11219000I-65000J0D01*
G01*
X19535000Y-11219000D02*
G75*
G02*
X19665000Y-11219000I65000J0D01*
G01*
X19535000Y-11662000D02*
X19665000Y-11792000D01*
X19665000Y-11662000D02*
X19535000Y-11792000D01*
X19665000Y-11727000D02*
G75*
G02*
X19535000Y-11727000I-65000J0D01*
G01*
X19535000Y-11727000D02*
G75*
G02*
X19665000Y-11727000I65000J0D01*
G01*
X19535000Y-12170000D02*
X19665000Y-12300000D01*
X19665000Y-12170000D02*
X19535000Y-12300000D01*
X19665000Y-12235000D02*
G75*
G02*
X19535000Y-12235000I-65000J0D01*
G01*
X19535000Y-12235000D02*
G75*
G02*
X19665000Y-12235000I65000J0D01*
G01*
X20297000Y-6919000D02*
X20427000Y-7049000D01*
X20427000Y-6919000D02*
X20297000Y-7049000D01*
X20427000Y-6984000D02*
G75*
G02*
X20297000Y-6984000I-65000J0D01*
G01*
X20297000Y-6984000D02*
G75*
G02*
X20427000Y-6984000I65000J0D01*
G01*
X20297000Y-7427000D02*
X20427000Y-7557000D01*
X20427000Y-7427000D02*
X20297000Y-7557000D01*
X20427000Y-7492000D02*
G75*
G02*
X20297000Y-7492000I-65000J0D01*
G01*
X20297000Y-7492000D02*
G75*
G02*
X20427000Y-7492000I65000J0D01*
G01*
X20297000Y-7935000D02*
X20427000Y-8065000D01*
X20427000Y-7935000D02*
X20297000Y-8065000D01*
X20427000Y-8000000D02*
G75*
G02*
X20297000Y-8000000I-65000J0D01*
G01*
X20297000Y-8000000D02*
G75*
G02*
X20427000Y-8000000I65000J0D01*
G01*
X20297000Y-11154000D02*
X20427000Y-11284000D01*
X20427000Y-11154000D02*
X20297000Y-11284000D01*
X20427000Y-11219000D02*
G75*
G02*
X20297000Y-11219000I-65000J0D01*
G01*
X20297000Y-11219000D02*
G75*
G02*
X20427000Y-11219000I65000J0D01*
G01*
X20297000Y-11662000D02*
X20427000Y-11792000D01*
X20427000Y-11662000D02*
X20297000Y-11792000D01*
X20427000Y-11727000D02*
G75*
G02*
X20297000Y-11727000I-65000J0D01*
G01*
X20297000Y-11727000D02*
G75*
G02*
X20427000Y-11727000I65000J0D01*
G01*
X20297000Y-12170000D02*
X20427000Y-12300000D01*
X20427000Y-12170000D02*
X20297000Y-12300000D01*
X20427000Y-12235000D02*
G75*
G02*
X20297000Y-12235000I-65000J0D01*
G01*
X20297000Y-12235000D02*
G75*
G02*
X20427000Y-12235000I65000J0D01*
G01*
D16*
X10898000Y-9030000D02*
X11038000Y-9170000D01*
X11038000Y-9030000D02*
X10898000Y-9170000D01*
X10968000Y-9030000D02*
X10968000Y-9170000D01*
X10898000Y-9100000D02*
X11038000Y-9100000D01*
X10898000Y-9780000D02*
X11038000Y-9920000D01*
X11038000Y-9780000D02*
X10898000Y-9920000D01*
X10968000Y-9780000D02*
X10968000Y-9920000D01*
X10898000Y-9850000D02*
X11038000Y-9850000D01*
X12930000Y-9030000D02*
X13070000Y-9170000D01*
X13070000Y-9030000D02*
X12930000Y-9170000D01*
X13000000Y-9030000D02*
X13000000Y-9170000D01*
X12930000Y-9100000D02*
X13070000Y-9100000D01*
X12930000Y-9780000D02*
X13070000Y-9920000D01*
X13070000Y-9780000D02*
X12930000Y-9920000D01*
X13000000Y-9780000D02*
X13000000Y-9920000D01*
X12930000Y-9850000D02*
X13070000Y-9850000D01*
X15698000Y-9030000D02*
X15838000Y-9170000D01*
X15838000Y-9030000D02*
X15698000Y-9170000D01*
X15768000Y-9030000D02*
X15768000Y-9170000D01*
X15698000Y-9100000D02*
X15838000Y-9100000D01*
X15698000Y-9780000D02*
X15838000Y-9920000D01*
X15838000Y-9780000D02*
X15698000Y-9920000D01*
X15768000Y-9780000D02*
X15768000Y-9920000D01*
X15698000Y-9850000D02*
X15838000Y-9850000D01*
X17730000Y-9030000D02*
X17870000Y-9170000D01*
X17870000Y-9030000D02*
X17730000Y-9170000D01*
X17800000Y-9030000D02*
X17800000Y-9170000D01*
X17730000Y-9100000D02*
X17870000Y-9100000D01*
X17730000Y-9780000D02*
X17870000Y-9920000D01*
X17870000Y-9780000D02*
X17730000Y-9920000D01*
X17800000Y-9780000D02*
X17800000Y-9920000D01*
X17730000Y-9850000D02*
X17870000Y-9850000D01*
X20498000Y-9030000D02*
X20638000Y-9170000D01*
X20638000Y-9030000D02*
X20498000Y-9170000D01*
X20568000Y-9030000D02*
X20568000Y-9170000D01*
X20498000Y-9100000D02*
X20638000Y-9100000D01*
X20498000Y-9780000D02*
X20638000Y-9920000D01*
X20638000Y-9780000D02*
X20498000Y-9920000D01*
X20568000Y-9780000D02*
X20568000Y-9920000D01*
X20498000Y-9850000D02*
X20638000Y-9850000D01*
X22530000Y-9030000D02*
X22670000Y-9170000D01*
X22670000Y-9030000D02*
X22530000Y-9170000D01*
X22600000Y-9030000D02*
X22600000Y-9170000D01*
X22530000Y-9100000D02*
X22670000Y-9100000D01*
X22530000Y-9780000D02*
X22670000Y-9920000D01*
X22670000Y-9780000D02*
X22530000Y-9920000D01*
X22600000Y-9780000D02*
X22600000Y-9920000D01*
X22530000Y-9850000D02*
X22670000Y-9850000D01*
D17*
X15566000Y-4224000D02*
X15718000Y-4376000D01*
X15718000Y-4224000D02*
X15566000Y-4376000D01*
X15695741Y-4353741D02*
X15695741Y-4246259D01*
X15588259Y-4246259D01*
X15588259Y-4353741D01*
X15695741Y-4353741D01*
X16074000Y-4224000D02*
X16226000Y-4376000D01*
X16226000Y-4224000D02*
X16074000Y-4376000D01*
X16203741Y-4353741D02*
X16203741Y-4246259D01*
X16096259Y-4246259D01*
X16096259Y-4353741D01*
X16203741Y-4353741D01*
X16582000Y-4224000D02*
X16734000Y-4376000D01*
X16734000Y-4224000D02*
X16582000Y-4376000D01*
X16711741Y-4353741D02*
X16711741Y-4246259D01*
X16604259Y-4246259D01*
X16604259Y-4353741D01*
X16711741Y-4353741D01*
D18*
X8010000Y-7415000D02*
X8180000Y-7585000D01*
X8180000Y-7415000D02*
X8010000Y-7585000D01*
X8095000Y-7585000D02*
X8180000Y-7500000D01*
X8095000Y-7415000D01*
X8010000Y-7500000D01*
X8095000Y-7585000D01*
X8010000Y-7811000D02*
X8180000Y-7981000D01*
X8180000Y-7811000D02*
X8010000Y-7981000D01*
X8095000Y-7981000D02*
X8180000Y-7896000D01*
X8095000Y-7811000D01*
X8010000Y-7896000D01*
X8095000Y-7981000D01*
X8010000Y-8207000D02*
X8180000Y-8377000D01*
X8180000Y-8207000D02*
X8010000Y-8377000D01*
X8095000Y-8377000D02*
X8180000Y-8292000D01*
X8095000Y-8207000D01*
X8010000Y-8292000D01*
X8095000Y-8377000D01*
D19*
X8000000Y-4040000D02*
X8000000Y-4360000D01*
X7840000Y-4200000D02*
X8160000Y-4200000D01*
X8160000Y-4200000D02*
G75*
G02*
X7840000Y-4200000I-160000J0D01*
G01*
X7840000Y-4200000D02*
G75*
G02*
X8160000Y-4200000I160000J0D01*
G01*
X8000000Y-14440000D02*
X8000000Y-14760000D01*
X7840000Y-14600000D02*
X8160000Y-14600000D01*
X8160000Y-14600000D02*
G75*
G02*
X7840000Y-14600000I-160000J0D01*
G01*
X7840000Y-14600000D02*
G75*
G02*
X8160000Y-14600000I160000J0D01*
G01*
X22500000Y-4040000D02*
X22500000Y-4360000D01*
X22340000Y-4200000D02*
X22660000Y-4200000D01*
X22660000Y-4200000D02*
G75*
G02*
X22340000Y-4200000I-160000J0D01*
G01*
X22340000Y-4200000D02*
G75*
G02*
X22660000Y-4200000I160000J0D01*
G01*
X22500000Y-14440000D02*
X22500000Y-14760000D01*
X22340000Y-14600000D02*
X22660000Y-14600000D01*
X22660000Y-14600000D02*
G75*
G02*
X22340000Y-14600000I-160000J0D01*
G01*
X22340000Y-14600000D02*
G75*
G02*
X22660000Y-14600000I160000J0D01*
G01*
D11*
X7758277Y-15413984D02*
X7758277Y-15213984D01*
X7758277Y-15213984D02*
X7805896Y-15213984D01*
X7805896Y-15213984D02*
X7834467Y-15223508D01*
X7834467Y-15223508D02*
X7853515Y-15242555D01*
X7853515Y-15242555D02*
X7863039Y-15261603D01*
X7863039Y-15261603D02*
X7872562Y-15299698D01*
X7872562Y-15299698D02*
X7872562Y-15328269D01*
X7872562Y-15328269D02*
X7863039Y-15366365D01*
X7863039Y-15366365D02*
X7853515Y-15385412D01*
X7853515Y-15385412D02*
X7834467Y-15404460D01*
X7834467Y-15404460D02*
X7805896Y-15413984D01*
X7805896Y-15413984D02*
X7758277Y-15413984D01*
X7958277Y-15413984D02*
X7958277Y-15280650D01*
X7958277Y-15318746D02*
X7967801Y-15299698D01*
X7967801Y-15299698D02*
X7977324Y-15290174D01*
X7977324Y-15290174D02*
X7996372Y-15280650D01*
X7996372Y-15280650D02*
X8015420Y-15280650D01*
X8082086Y-15413984D02*
X8082086Y-15280650D01*
X8082086Y-15213984D02*
X8072562Y-15223508D01*
X8072562Y-15223508D02*
X8082086Y-15233031D01*
X8082086Y-15233031D02*
X8091610Y-15223508D01*
X8091610Y-15223508D02*
X8082086Y-15213984D01*
X8082086Y-15213984D02*
X8082086Y-15233031D01*
X8205896Y-15413984D02*
X8186848Y-15404460D01*
X8186848Y-15404460D02*
X8177324Y-15385412D01*
X8177324Y-15385412D02*
X8177324Y-15213984D01*
X8310658Y-15413984D02*
X8291610Y-15404460D01*
X8291610Y-15404460D02*
X8282086Y-15385412D01*
X8282086Y-15385412D02*
X8282086Y-15213984D01*
X8539229Y-15413984D02*
X8539229Y-15213984D01*
X8539229Y-15213984D02*
X8605896Y-15356841D01*
X8605896Y-15356841D02*
X8672563Y-15213984D01*
X8672563Y-15213984D02*
X8672563Y-15413984D01*
X8853515Y-15413984D02*
X8853515Y-15309222D01*
X8853515Y-15309222D02*
X8843991Y-15290174D01*
X8843991Y-15290174D02*
X8824944Y-15280650D01*
X8824944Y-15280650D02*
X8786848Y-15280650D01*
X8786848Y-15280650D02*
X8767801Y-15290174D01*
X8853515Y-15404460D02*
X8834467Y-15413984D01*
X8834467Y-15413984D02*
X8786848Y-15413984D01*
X8786848Y-15413984D02*
X8767801Y-15404460D01*
X8767801Y-15404460D02*
X8758277Y-15385412D01*
X8758277Y-15385412D02*
X8758277Y-15366365D01*
X8758277Y-15366365D02*
X8767801Y-15347317D01*
X8767801Y-15347317D02*
X8786848Y-15337793D01*
X8786848Y-15337793D02*
X8834467Y-15337793D01*
X8834467Y-15337793D02*
X8853515Y-15328269D01*
X8948753Y-15280650D02*
X8948753Y-15480650D01*
X8948753Y-15290174D02*
X8967801Y-15280650D01*
X8967801Y-15280650D02*
X9005896Y-15280650D01*
X9005896Y-15280650D02*
X9024944Y-15290174D01*
X9024944Y-15290174D02*
X9034467Y-15299698D01*
X9034467Y-15299698D02*
X9043991Y-15318746D01*
X9043991Y-15318746D02*
X9043991Y-15375888D01*
X9043991Y-15375888D02*
X9034467Y-15394936D01*
X9034467Y-15394936D02*
X9024944Y-15404460D01*
X9024944Y-15404460D02*
X9005896Y-15413984D01*
X9005896Y-15413984D02*
X8967801Y-15413984D01*
X8967801Y-15413984D02*
X8948753Y-15404460D01*
X9129705Y-15394936D02*
X9139229Y-15404460D01*
X9139229Y-15404460D02*
X9129705Y-15413984D01*
X9129705Y-15413984D02*
X9120182Y-15404460D01*
X9120182Y-15404460D02*
X9129705Y-15394936D01*
X9129705Y-15394936D02*
X9129705Y-15413984D01*
X9129705Y-15290174D02*
X9139229Y-15299698D01*
X9139229Y-15299698D02*
X9129705Y-15309222D01*
X9129705Y-15309222D02*
X9120182Y-15299698D01*
X9120182Y-15299698D02*
X9129705Y-15290174D01*
X9129705Y-15290174D02*
X9129705Y-15309222D01*
D12*
X7467500Y-15727500D02*
X7497500Y-15757500D01*
X7497500Y-15727500D02*
X7467500Y-15757500D01*
D11*
X7796372Y-15633984D02*
X7815420Y-15633984D01*
X7815420Y-15633984D02*
X7834467Y-15643508D01*
X7834467Y-15643508D02*
X7843991Y-15653031D01*
X7843991Y-15653031D02*
X7853515Y-15672079D01*
X7853515Y-15672079D02*
X7863039Y-15710174D01*
X7863039Y-15710174D02*
X7863039Y-15757793D01*
X7863039Y-15757793D02*
X7853515Y-15795888D01*
X7853515Y-15795888D02*
X7843991Y-15814936D01*
X7843991Y-15814936D02*
X7834467Y-15824460D01*
X7834467Y-15824460D02*
X7815420Y-15833984D01*
X7815420Y-15833984D02*
X7796372Y-15833984D01*
X7796372Y-15833984D02*
X7777324Y-15824460D01*
X7777324Y-15824460D02*
X7767801Y-15814936D01*
X7767801Y-15814936D02*
X7758277Y-15795888D01*
X7758277Y-15795888D02*
X7748753Y-15757793D01*
X7748753Y-15757793D02*
X7748753Y-15710174D01*
X7748753Y-15710174D02*
X7758277Y-15672079D01*
X7758277Y-15672079D02*
X7767801Y-15653031D01*
X7767801Y-15653031D02*
X7777324Y-15643508D01*
X7777324Y-15643508D02*
X7796372Y-15633984D01*
X7948753Y-15814936D02*
X7958277Y-15824460D01*
X7958277Y-15824460D02*
X7948753Y-15833984D01*
X7948753Y-15833984D02*
X7939229Y-15824460D01*
X7939229Y-15824460D02*
X7948753Y-15814936D01*
X7948753Y-15814936D02*
X7948753Y-15833984D01*
X8024943Y-15633984D02*
X8148753Y-15633984D01*
X8148753Y-15633984D02*
X8082086Y-15710174D01*
X8082086Y-15710174D02*
X8110658Y-15710174D01*
X8110658Y-15710174D02*
X8129705Y-15719698D01*
X8129705Y-15719698D02*
X8139229Y-15729222D01*
X8139229Y-15729222D02*
X8148753Y-15748269D01*
X8148753Y-15748269D02*
X8148753Y-15795888D01*
X8148753Y-15795888D02*
X8139229Y-15814936D01*
X8139229Y-15814936D02*
X8129705Y-15824460D01*
X8129705Y-15824460D02*
X8110658Y-15833984D01*
X8110658Y-15833984D02*
X8053515Y-15833984D01*
X8053515Y-15833984D02*
X8034467Y-15824460D01*
X8034467Y-15824460D02*
X8024943Y-15814936D01*
X8272562Y-15633984D02*
X8291610Y-15633984D01*
X8291610Y-15633984D02*
X8310658Y-15643508D01*
X8310658Y-15643508D02*
X8320182Y-15653031D01*
X8320182Y-15653031D02*
X8329705Y-15672079D01*
X8329705Y-15672079D02*
X8339229Y-15710174D01*
X8339229Y-15710174D02*
X8339229Y-15757793D01*
X8339229Y-15757793D02*
X8329705Y-15795888D01*
X8329705Y-15795888D02*
X8320182Y-15814936D01*
X8320182Y-15814936D02*
X8310658Y-15824460D01*
X8310658Y-15824460D02*
X8291610Y-15833984D01*
X8291610Y-15833984D02*
X8272562Y-15833984D01*
X8272562Y-15833984D02*
X8253515Y-15824460D01*
X8253515Y-15824460D02*
X8243991Y-15814936D01*
X8243991Y-15814936D02*
X8234467Y-15795888D01*
X8234467Y-15795888D02*
X8224943Y-15757793D01*
X8224943Y-15757793D02*
X8224943Y-15710174D01*
X8224943Y-15710174D02*
X8234467Y-15672079D01*
X8234467Y-15672079D02*
X8243991Y-15653031D01*
X8243991Y-15653031D02*
X8253515Y-15643508D01*
X8253515Y-15643508D02*
X8272562Y-15633984D01*
X8463039Y-15633984D02*
X8482086Y-15633984D01*
X8482086Y-15633984D02*
X8501134Y-15643508D01*
X8501134Y-15643508D02*
X8510658Y-15653031D01*
X8510658Y-15653031D02*
X8520182Y-15672079D01*
X8520182Y-15672079D02*
X8529705Y-15710174D01*
X8529705Y-15710174D02*
X8529705Y-15757793D01*
X8529705Y-15757793D02*
X8520182Y-15795888D01*
X8520182Y-15795888D02*
X8510658Y-15814936D01*
X8510658Y-15814936D02*
X8501134Y-15824460D01*
X8501134Y-15824460D02*
X8482086Y-15833984D01*
X8482086Y-15833984D02*
X8463039Y-15833984D01*
X8463039Y-15833984D02*
X8443991Y-15824460D01*
X8443991Y-15824460D02*
X8434467Y-15814936D01*
X8434467Y-15814936D02*
X8424944Y-15795888D01*
X8424944Y-15795888D02*
X8415420Y-15757793D01*
X8415420Y-15757793D02*
X8415420Y-15710174D01*
X8415420Y-15710174D02*
X8424944Y-15672079D01*
X8424944Y-15672079D02*
X8434467Y-15653031D01*
X8434467Y-15653031D02*
X8443991Y-15643508D01*
X8443991Y-15643508D02*
X8463039Y-15633984D01*
X8615420Y-15833984D02*
X8615420Y-15700650D01*
X8615420Y-15719698D02*
X8624944Y-15710174D01*
X8624944Y-15710174D02*
X8643991Y-15700650D01*
X8643991Y-15700650D02*
X8672563Y-15700650D01*
X8672563Y-15700650D02*
X8691610Y-15710174D01*
X8691610Y-15710174D02*
X8701134Y-15729222D01*
X8701134Y-15729222D02*
X8701134Y-15833984D01*
X8701134Y-15729222D02*
X8710658Y-15710174D01*
X8710658Y-15710174D02*
X8729705Y-15700650D01*
X8729705Y-15700650D02*
X8758277Y-15700650D01*
X8758277Y-15700650D02*
X8777325Y-15710174D01*
X8777325Y-15710174D02*
X8786848Y-15729222D01*
X8786848Y-15729222D02*
X8786848Y-15833984D01*
X8882086Y-15833984D02*
X8882086Y-15700650D01*
X8882086Y-15719698D02*
X8891610Y-15710174D01*
X8891610Y-15710174D02*
X8910658Y-15700650D01*
X8910658Y-15700650D02*
X8939229Y-15700650D01*
X8939229Y-15700650D02*
X8958277Y-15710174D01*
X8958277Y-15710174D02*
X8967801Y-15729222D01*
X8967801Y-15729222D02*
X8967801Y-15833984D01*
X8967801Y-15729222D02*
X8977325Y-15710174D01*
X8977325Y-15710174D02*
X8996372Y-15700650D01*
X8996372Y-15700650D02*
X9024944Y-15700650D01*
X9024944Y-15700650D02*
X9043991Y-15710174D01*
X9043991Y-15710174D02*
X9053515Y-15729222D01*
X9053515Y-15729222D02*
X9053515Y-15833984D01*
X9443991Y-15624460D02*
X9272563Y-15881603D01*
X9701134Y-15633984D02*
X9720182Y-15633984D01*
X9720182Y-15633984D02*
X9739229Y-15643508D01*
X9739229Y-15643508D02*
X9748753Y-15653031D01*
X9748753Y-15653031D02*
X9758277Y-15672079D01*
X9758277Y-15672079D02*
X9767801Y-15710174D01*
X9767801Y-15710174D02*
X9767801Y-15757793D01*
X9767801Y-15757793D02*
X9758277Y-15795888D01*
X9758277Y-15795888D02*
X9748753Y-15814936D01*
X9748753Y-15814936D02*
X9739229Y-15824460D01*
X9739229Y-15824460D02*
X9720182Y-15833984D01*
X9720182Y-15833984D02*
X9701134Y-15833984D01*
X9701134Y-15833984D02*
X9682087Y-15824460D01*
X9682087Y-15824460D02*
X9672563Y-15814936D01*
X9672563Y-15814936D02*
X9663039Y-15795888D01*
X9663039Y-15795888D02*
X9653515Y-15757793D01*
X9653515Y-15757793D02*
X9653515Y-15710174D01*
X9653515Y-15710174D02*
X9663039Y-15672079D01*
X9663039Y-15672079D02*
X9672563Y-15653031D01*
X9672563Y-15653031D02*
X9682087Y-15643508D01*
X9682087Y-15643508D02*
X9701134Y-15633984D01*
X9853515Y-15814936D02*
X9863039Y-15824460D01*
X9863039Y-15824460D02*
X9853515Y-15833984D01*
X9853515Y-15833984D02*
X9843991Y-15824460D01*
X9843991Y-15824460D02*
X9853515Y-15814936D01*
X9853515Y-15814936D02*
X9853515Y-15833984D01*
X9986848Y-15633984D02*
X10005896Y-15633984D01*
X10005896Y-15633984D02*
X10024944Y-15643508D01*
X10024944Y-15643508D02*
X10034468Y-15653031D01*
X10034468Y-15653031D02*
X10043991Y-15672079D01*
X10043991Y-15672079D02*
X10053515Y-15710174D01*
X10053515Y-15710174D02*
X10053515Y-15757793D01*
X10053515Y-15757793D02*
X10043991Y-15795888D01*
X10043991Y-15795888D02*
X10034468Y-15814936D01*
X10034468Y-15814936D02*
X10024944Y-15824460D01*
X10024944Y-15824460D02*
X10005896Y-15833984D01*
X10005896Y-15833984D02*
X9986848Y-15833984D01*
X9986848Y-15833984D02*
X9967801Y-15824460D01*
X9967801Y-15824460D02*
X9958277Y-15814936D01*
X9958277Y-15814936D02*
X9948753Y-15795888D01*
X9948753Y-15795888D02*
X9939229Y-15757793D01*
X9939229Y-15757793D02*
X9939229Y-15710174D01*
X9939229Y-15710174D02*
X9948753Y-15672079D01*
X9948753Y-15672079D02*
X9958277Y-15653031D01*
X9958277Y-15653031D02*
X9967801Y-15643508D01*
X9967801Y-15643508D02*
X9986848Y-15633984D01*
X10243991Y-15833984D02*
X10129706Y-15833984D01*
X10186848Y-15833984D02*
X10186848Y-15633984D01*
X10186848Y-15633984D02*
X10167801Y-15662555D01*
X10167801Y-15662555D02*
X10148753Y-15681603D01*
X10148753Y-15681603D02*
X10129706Y-15691127D01*
X10434468Y-15833984D02*
X10320182Y-15833984D01*
X10377325Y-15833984D02*
X10377325Y-15633984D01*
X10377325Y-15633984D02*
X10358277Y-15662555D01*
X10358277Y-15662555D02*
X10339229Y-15681603D01*
X10339229Y-15681603D02*
X10320182Y-15691127D01*
X10548753Y-15719698D02*
X10529706Y-15710174D01*
X10529706Y-15710174D02*
X10520182Y-15700650D01*
X10520182Y-15700650D02*
X10510658Y-15681603D01*
X10510658Y-15681603D02*
X10510658Y-15672079D01*
X10510658Y-15672079D02*
X10520182Y-15653031D01*
X10520182Y-15653031D02*
X10529706Y-15643508D01*
X10529706Y-15643508D02*
X10548753Y-15633984D01*
X10548753Y-15633984D02*
X10586849Y-15633984D01*
X10586849Y-15633984D02*
X10605896Y-15643508D01*
X10605896Y-15643508D02*
X10615420Y-15653031D01*
X10615420Y-15653031D02*
X10624944Y-15672079D01*
X10624944Y-15672079D02*
X10624944Y-15681603D01*
X10624944Y-15681603D02*
X10615420Y-15700650D01*
X10615420Y-15700650D02*
X10605896Y-15710174D01*
X10605896Y-15710174D02*
X10586849Y-15719698D01*
X10586849Y-15719698D02*
X10548753Y-15719698D01*
X10548753Y-15719698D02*
X10529706Y-15729222D01*
X10529706Y-15729222D02*
X10520182Y-15738746D01*
X10520182Y-15738746D02*
X10510658Y-15757793D01*
X10510658Y-15757793D02*
X10510658Y-15795888D01*
X10510658Y-15795888D02*
X10520182Y-15814936D01*
X10520182Y-15814936D02*
X10529706Y-15824460D01*
X10529706Y-15824460D02*
X10548753Y-15833984D01*
X10548753Y-15833984D02*
X10586849Y-15833984D01*
X10586849Y-15833984D02*
X10605896Y-15824460D01*
X10605896Y-15824460D02*
X10615420Y-15814936D01*
X10615420Y-15814936D02*
X10624944Y-15795888D01*
X10624944Y-15795888D02*
X10624944Y-15757793D01*
X10624944Y-15757793D02*
X10615420Y-15738746D01*
X10615420Y-15738746D02*
X10605896Y-15729222D01*
X10605896Y-15729222D02*
X10586849Y-15719698D01*
X10701134Y-15633984D02*
X10701134Y-15672079D01*
X10777325Y-15633984D02*
X10777325Y-15672079D01*
X11072563Y-15910174D02*
X11063039Y-15900650D01*
X11063039Y-15900650D02*
X11043991Y-15872079D01*
X11043991Y-15872079D02*
X11034468Y-15853031D01*
X11034468Y-15853031D02*
X11024944Y-15824460D01*
X11024944Y-15824460D02*
X11015420Y-15776841D01*
X11015420Y-15776841D02*
X11015420Y-15738746D01*
X11015420Y-15738746D02*
X11024944Y-15691127D01*
X11024944Y-15691127D02*
X11034468Y-15662555D01*
X11034468Y-15662555D02*
X11043991Y-15643508D01*
X11043991Y-15643508D02*
X11063039Y-15614936D01*
X11063039Y-15614936D02*
X11072563Y-15605412D01*
X11253515Y-15833984D02*
X11139230Y-15833984D01*
X11196372Y-15833984D02*
X11196372Y-15633984D01*
X11196372Y-15633984D02*
X11177325Y-15662555D01*
X11177325Y-15662555D02*
X11158277Y-15681603D01*
X11158277Y-15681603D02*
X11139230Y-15691127D01*
X11377325Y-15633984D02*
X11396372Y-15633984D01*
X11396372Y-15633984D02*
X11415420Y-15643508D01*
X11415420Y-15643508D02*
X11424944Y-15653031D01*
X11424944Y-15653031D02*
X11434468Y-15672079D01*
X11434468Y-15672079D02*
X11443991Y-15710174D01*
X11443991Y-15710174D02*
X11443991Y-15757793D01*
X11443991Y-15757793D02*
X11434468Y-15795888D01*
X11434468Y-15795888D02*
X11424944Y-15814936D01*
X11424944Y-15814936D02*
X11415420Y-15824460D01*
X11415420Y-15824460D02*
X11396372Y-15833984D01*
X11396372Y-15833984D02*
X11377325Y-15833984D01*
X11377325Y-15833984D02*
X11358277Y-15824460D01*
X11358277Y-15824460D02*
X11348753Y-15814936D01*
X11348753Y-15814936D02*
X11339229Y-15795888D01*
X11339229Y-15795888D02*
X11329706Y-15757793D01*
X11329706Y-15757793D02*
X11329706Y-15710174D01*
X11329706Y-15710174D02*
X11339229Y-15672079D01*
X11339229Y-15672079D02*
X11348753Y-15653031D01*
X11348753Y-15653031D02*
X11358277Y-15643508D01*
X11358277Y-15643508D02*
X11377325Y-15633984D01*
X11567801Y-15633984D02*
X11586849Y-15633984D01*
X11586849Y-15633984D02*
X11605896Y-15643508D01*
X11605896Y-15643508D02*
X11615420Y-15653031D01*
X11615420Y-15653031D02*
X11624944Y-15672079D01*
X11624944Y-15672079D02*
X11634468Y-15710174D01*
X11634468Y-15710174D02*
X11634468Y-15757793D01*
X11634468Y-15757793D02*
X11624944Y-15795888D01*
X11624944Y-15795888D02*
X11615420Y-15814936D01*
X11615420Y-15814936D02*
X11605896Y-15824460D01*
X11605896Y-15824460D02*
X11586849Y-15833984D01*
X11586849Y-15833984D02*
X11567801Y-15833984D01*
X11567801Y-15833984D02*
X11548753Y-15824460D01*
X11548753Y-15824460D02*
X11539229Y-15814936D01*
X11539229Y-15814936D02*
X11529706Y-15795888D01*
X11529706Y-15795888D02*
X11520182Y-15757793D01*
X11520182Y-15757793D02*
X11520182Y-15710174D01*
X11520182Y-15710174D02*
X11529706Y-15672079D01*
X11529706Y-15672079D02*
X11539229Y-15653031D01*
X11539229Y-15653031D02*
X11548753Y-15643508D01*
X11548753Y-15643508D02*
X11567801Y-15633984D01*
X11872563Y-15833984D02*
X11872563Y-15633984D01*
X11958277Y-15833984D02*
X11958277Y-15729222D01*
X11958277Y-15729222D02*
X11948753Y-15710174D01*
X11948753Y-15710174D02*
X11929706Y-15700650D01*
X11929706Y-15700650D02*
X11901134Y-15700650D01*
X11901134Y-15700650D02*
X11882087Y-15710174D01*
X11882087Y-15710174D02*
X11872563Y-15719698D01*
X12082087Y-15833984D02*
X12063039Y-15824460D01*
X12063039Y-15824460D02*
X12053515Y-15814936D01*
X12053515Y-15814936D02*
X12043991Y-15795888D01*
X12043991Y-15795888D02*
X12043991Y-15738746D01*
X12043991Y-15738746D02*
X12053515Y-15719698D01*
X12053515Y-15719698D02*
X12063039Y-15710174D01*
X12063039Y-15710174D02*
X12082087Y-15700650D01*
X12082087Y-15700650D02*
X12110658Y-15700650D01*
X12110658Y-15700650D02*
X12129706Y-15710174D01*
X12129706Y-15710174D02*
X12139230Y-15719698D01*
X12139230Y-15719698D02*
X12148753Y-15738746D01*
X12148753Y-15738746D02*
X12148753Y-15795888D01*
X12148753Y-15795888D02*
X12139230Y-15814936D01*
X12139230Y-15814936D02*
X12129706Y-15824460D01*
X12129706Y-15824460D02*
X12110658Y-15833984D01*
X12110658Y-15833984D02*
X12082087Y-15833984D01*
X12263039Y-15833984D02*
X12243991Y-15824460D01*
X12243991Y-15824460D02*
X12234468Y-15805412D01*
X12234468Y-15805412D02*
X12234468Y-15633984D01*
X12415420Y-15824460D02*
X12396372Y-15833984D01*
X12396372Y-15833984D02*
X12358277Y-15833984D01*
X12358277Y-15833984D02*
X12339230Y-15824460D01*
X12339230Y-15824460D02*
X12329706Y-15805412D01*
X12329706Y-15805412D02*
X12329706Y-15729222D01*
X12329706Y-15729222D02*
X12339230Y-15710174D01*
X12339230Y-15710174D02*
X12358277Y-15700650D01*
X12358277Y-15700650D02*
X12396372Y-15700650D01*
X12396372Y-15700650D02*
X12415420Y-15710174D01*
X12415420Y-15710174D02*
X12424944Y-15729222D01*
X12424944Y-15729222D02*
X12424944Y-15748269D01*
X12424944Y-15748269D02*
X12329706Y-15767317D01*
X12501134Y-15824460D02*
X12520182Y-15833984D01*
X12520182Y-15833984D02*
X12558277Y-15833984D01*
X12558277Y-15833984D02*
X12577325Y-15824460D01*
X12577325Y-15824460D02*
X12586849Y-15805412D01*
X12586849Y-15805412D02*
X12586849Y-15795888D01*
X12586849Y-15795888D02*
X12577325Y-15776841D01*
X12577325Y-15776841D02*
X12558277Y-15767317D01*
X12558277Y-15767317D02*
X12529706Y-15767317D01*
X12529706Y-15767317D02*
X12510658Y-15757793D01*
X12510658Y-15757793D02*
X12501134Y-15738746D01*
X12501134Y-15738746D02*
X12501134Y-15729222D01*
X12501134Y-15729222D02*
X12510658Y-15710174D01*
X12510658Y-15710174D02*
X12529706Y-15700650D01*
X12529706Y-15700650D02*
X12558277Y-15700650D01*
X12558277Y-15700650D02*
X12577325Y-15710174D01*
X12653515Y-15910174D02*
X12663039Y-15900650D01*
X12663039Y-15900650D02*
X12682087Y-15872079D01*
X12682087Y-15872079D02*
X12691611Y-15853031D01*
X12691611Y-15853031D02*
X12701134Y-15824460D01*
X12701134Y-15824460D02*
X12710658Y-15776841D01*
X12710658Y-15776841D02*
X12710658Y-15738746D01*
X12710658Y-15738746D02*
X12701134Y-15691127D01*
X12701134Y-15691127D02*
X12691611Y-15662555D01*
X12691611Y-15662555D02*
X12682087Y-15643508D01*
X12682087Y-15643508D02*
X12663039Y-15614936D01*
X12663039Y-15614936D02*
X12653515Y-15605412D01*
D12*
X7497500Y-16006500D02*
G75*
G02*
X7417500Y-16006500I-40000J0D01*
G01*
X7417500Y-16006500D02*
G75*
G02*
X7497500Y-16006500I40000J0D01*
G01*
D11*
X7796372Y-15897984D02*
X7815420Y-15897984D01*
X7815420Y-15897984D02*
X7834467Y-15907508D01*
X7834467Y-15907508D02*
X7843991Y-15917031D01*
X7843991Y-15917031D02*
X7853515Y-15936079D01*
X7853515Y-15936079D02*
X7863039Y-15974174D01*
X7863039Y-15974174D02*
X7863039Y-16021793D01*
X7863039Y-16021793D02*
X7853515Y-16059888D01*
X7853515Y-16059888D02*
X7843991Y-16078936D01*
X7843991Y-16078936D02*
X7834467Y-16088460D01*
X7834467Y-16088460D02*
X7815420Y-16097984D01*
X7815420Y-16097984D02*
X7796372Y-16097984D01*
X7796372Y-16097984D02*
X7777324Y-16088460D01*
X7777324Y-16088460D02*
X7767801Y-16078936D01*
X7767801Y-16078936D02*
X7758277Y-16059888D01*
X7758277Y-16059888D02*
X7748753Y-16021793D01*
X7748753Y-16021793D02*
X7748753Y-15974174D01*
X7748753Y-15974174D02*
X7758277Y-15936079D01*
X7758277Y-15936079D02*
X7767801Y-15917031D01*
X7767801Y-15917031D02*
X7777324Y-15907508D01*
X7777324Y-15907508D02*
X7796372Y-15897984D01*
X7948753Y-16078936D02*
X7958277Y-16088460D01*
X7958277Y-16088460D02*
X7948753Y-16097984D01*
X7948753Y-16097984D02*
X7939229Y-16088460D01*
X7939229Y-16088460D02*
X7948753Y-16078936D01*
X7948753Y-16078936D02*
X7948753Y-16097984D01*
X8072562Y-15983698D02*
X8053515Y-15974174D01*
X8053515Y-15974174D02*
X8043991Y-15964650D01*
X8043991Y-15964650D02*
X8034467Y-15945603D01*
X8034467Y-15945603D02*
X8034467Y-15936079D01*
X8034467Y-15936079D02*
X8043991Y-15917031D01*
X8043991Y-15917031D02*
X8053515Y-15907508D01*
X8053515Y-15907508D02*
X8072562Y-15897984D01*
X8072562Y-15897984D02*
X8110658Y-15897984D01*
X8110658Y-15897984D02*
X8129705Y-15907508D01*
X8129705Y-15907508D02*
X8139229Y-15917031D01*
X8139229Y-15917031D02*
X8148753Y-15936079D01*
X8148753Y-15936079D02*
X8148753Y-15945603D01*
X8148753Y-15945603D02*
X8139229Y-15964650D01*
X8139229Y-15964650D02*
X8129705Y-15974174D01*
X8129705Y-15974174D02*
X8110658Y-15983698D01*
X8110658Y-15983698D02*
X8072562Y-15983698D01*
X8072562Y-15983698D02*
X8053515Y-15993222D01*
X8053515Y-15993222D02*
X8043991Y-16002746D01*
X8043991Y-16002746D02*
X8034467Y-16021793D01*
X8034467Y-16021793D02*
X8034467Y-16059888D01*
X8034467Y-16059888D02*
X8043991Y-16078936D01*
X8043991Y-16078936D02*
X8053515Y-16088460D01*
X8053515Y-16088460D02*
X8072562Y-16097984D01*
X8072562Y-16097984D02*
X8110658Y-16097984D01*
X8110658Y-16097984D02*
X8129705Y-16088460D01*
X8129705Y-16088460D02*
X8139229Y-16078936D01*
X8139229Y-16078936D02*
X8148753Y-16059888D01*
X8148753Y-16059888D02*
X8148753Y-16021793D01*
X8148753Y-16021793D02*
X8139229Y-16002746D01*
X8139229Y-16002746D02*
X8129705Y-15993222D01*
X8129705Y-15993222D02*
X8110658Y-15983698D01*
X8272562Y-15897984D02*
X8291610Y-15897984D01*
X8291610Y-15897984D02*
X8310658Y-15907508D01*
X8310658Y-15907508D02*
X8320182Y-15917031D01*
X8320182Y-15917031D02*
X8329705Y-15936079D01*
X8329705Y-15936079D02*
X8339229Y-15974174D01*
X8339229Y-15974174D02*
X8339229Y-16021793D01*
X8339229Y-16021793D02*
X8329705Y-16059888D01*
X8329705Y-16059888D02*
X8320182Y-16078936D01*
X8320182Y-16078936D02*
X8310658Y-16088460D01*
X8310658Y-16088460D02*
X8291610Y-16097984D01*
X8291610Y-16097984D02*
X8272562Y-16097984D01*
X8272562Y-16097984D02*
X8253515Y-16088460D01*
X8253515Y-16088460D02*
X8243991Y-16078936D01*
X8243991Y-16078936D02*
X8234467Y-16059888D01*
X8234467Y-16059888D02*
X8224943Y-16021793D01*
X8224943Y-16021793D02*
X8224943Y-15974174D01*
X8224943Y-15974174D02*
X8234467Y-15936079D01*
X8234467Y-15936079D02*
X8243991Y-15917031D01*
X8243991Y-15917031D02*
X8253515Y-15907508D01*
X8253515Y-15907508D02*
X8272562Y-15897984D01*
X8463039Y-15897984D02*
X8482086Y-15897984D01*
X8482086Y-15897984D02*
X8501134Y-15907508D01*
X8501134Y-15907508D02*
X8510658Y-15917031D01*
X8510658Y-15917031D02*
X8520182Y-15936079D01*
X8520182Y-15936079D02*
X8529705Y-15974174D01*
X8529705Y-15974174D02*
X8529705Y-16021793D01*
X8529705Y-16021793D02*
X8520182Y-16059888D01*
X8520182Y-16059888D02*
X8510658Y-16078936D01*
X8510658Y-16078936D02*
X8501134Y-16088460D01*
X8501134Y-16088460D02*
X8482086Y-16097984D01*
X8482086Y-16097984D02*
X8463039Y-16097984D01*
X8463039Y-16097984D02*
X8443991Y-16088460D01*
X8443991Y-16088460D02*
X8434467Y-16078936D01*
X8434467Y-16078936D02*
X8424944Y-16059888D01*
X8424944Y-16059888D02*
X8415420Y-16021793D01*
X8415420Y-16021793D02*
X8415420Y-15974174D01*
X8415420Y-15974174D02*
X8424944Y-15936079D01*
X8424944Y-15936079D02*
X8434467Y-15917031D01*
X8434467Y-15917031D02*
X8443991Y-15907508D01*
X8443991Y-15907508D02*
X8463039Y-15897984D01*
X8615420Y-16097984D02*
X8615420Y-15964650D01*
X8615420Y-15983698D02*
X8624944Y-15974174D01*
X8624944Y-15974174D02*
X8643991Y-15964650D01*
X8643991Y-15964650D02*
X8672563Y-15964650D01*
X8672563Y-15964650D02*
X8691610Y-15974174D01*
X8691610Y-15974174D02*
X8701134Y-15993222D01*
X8701134Y-15993222D02*
X8701134Y-16097984D01*
X8701134Y-15993222D02*
X8710658Y-15974174D01*
X8710658Y-15974174D02*
X8729705Y-15964650D01*
X8729705Y-15964650D02*
X8758277Y-15964650D01*
X8758277Y-15964650D02*
X8777325Y-15974174D01*
X8777325Y-15974174D02*
X8786848Y-15993222D01*
X8786848Y-15993222D02*
X8786848Y-16097984D01*
X8882086Y-16097984D02*
X8882086Y-15964650D01*
X8882086Y-15983698D02*
X8891610Y-15974174D01*
X8891610Y-15974174D02*
X8910658Y-15964650D01*
X8910658Y-15964650D02*
X8939229Y-15964650D01*
X8939229Y-15964650D02*
X8958277Y-15974174D01*
X8958277Y-15974174D02*
X8967801Y-15993222D01*
X8967801Y-15993222D02*
X8967801Y-16097984D01*
X8967801Y-15993222D02*
X8977325Y-15974174D01*
X8977325Y-15974174D02*
X8996372Y-15964650D01*
X8996372Y-15964650D02*
X9024944Y-15964650D01*
X9024944Y-15964650D02*
X9043991Y-15974174D01*
X9043991Y-15974174D02*
X9053515Y-15993222D01*
X9053515Y-15993222D02*
X9053515Y-16097984D01*
X9443991Y-15888460D02*
X9272563Y-16145603D01*
X9701134Y-15897984D02*
X9720182Y-15897984D01*
X9720182Y-15897984D02*
X9739229Y-15907508D01*
X9739229Y-15907508D02*
X9748753Y-15917031D01*
X9748753Y-15917031D02*
X9758277Y-15936079D01*
X9758277Y-15936079D02*
X9767801Y-15974174D01*
X9767801Y-15974174D02*
X9767801Y-16021793D01*
X9767801Y-16021793D02*
X9758277Y-16059888D01*
X9758277Y-16059888D02*
X9748753Y-16078936D01*
X9748753Y-16078936D02*
X9739229Y-16088460D01*
X9739229Y-16088460D02*
X9720182Y-16097984D01*
X9720182Y-16097984D02*
X9701134Y-16097984D01*
X9701134Y-16097984D02*
X9682087Y-16088460D01*
X9682087Y-16088460D02*
X9672563Y-16078936D01*
X9672563Y-16078936D02*
X9663039Y-16059888D01*
X9663039Y-16059888D02*
X9653515Y-16021793D01*
X9653515Y-16021793D02*
X9653515Y-15974174D01*
X9653515Y-15974174D02*
X9663039Y-15936079D01*
X9663039Y-15936079D02*
X9672563Y-15917031D01*
X9672563Y-15917031D02*
X9682087Y-15907508D01*
X9682087Y-15907508D02*
X9701134Y-15897984D01*
X9853515Y-16078936D02*
X9863039Y-16088460D01*
X9863039Y-16088460D02*
X9853515Y-16097984D01*
X9853515Y-16097984D02*
X9843991Y-16088460D01*
X9843991Y-16088460D02*
X9853515Y-16078936D01*
X9853515Y-16078936D02*
X9853515Y-16097984D01*
X9986848Y-15897984D02*
X10005896Y-15897984D01*
X10005896Y-15897984D02*
X10024944Y-15907508D01*
X10024944Y-15907508D02*
X10034468Y-15917031D01*
X10034468Y-15917031D02*
X10043991Y-15936079D01*
X10043991Y-15936079D02*
X10053515Y-15974174D01*
X10053515Y-15974174D02*
X10053515Y-16021793D01*
X10053515Y-16021793D02*
X10043991Y-16059888D01*
X10043991Y-16059888D02*
X10034468Y-16078936D01*
X10034468Y-16078936D02*
X10024944Y-16088460D01*
X10024944Y-16088460D02*
X10005896Y-16097984D01*
X10005896Y-16097984D02*
X9986848Y-16097984D01*
X9986848Y-16097984D02*
X9967801Y-16088460D01*
X9967801Y-16088460D02*
X9958277Y-16078936D01*
X9958277Y-16078936D02*
X9948753Y-16059888D01*
X9948753Y-16059888D02*
X9939229Y-16021793D01*
X9939229Y-16021793D02*
X9939229Y-15974174D01*
X9939229Y-15974174D02*
X9948753Y-15936079D01*
X9948753Y-15936079D02*
X9958277Y-15917031D01*
X9958277Y-15917031D02*
X9967801Y-15907508D01*
X9967801Y-15907508D02*
X9986848Y-15897984D01*
X10120182Y-15897984D02*
X10243991Y-15897984D01*
X10243991Y-15897984D02*
X10177325Y-15974174D01*
X10177325Y-15974174D02*
X10205896Y-15974174D01*
X10205896Y-15974174D02*
X10224944Y-15983698D01*
X10224944Y-15983698D02*
X10234468Y-15993222D01*
X10234468Y-15993222D02*
X10243991Y-16012269D01*
X10243991Y-16012269D02*
X10243991Y-16059888D01*
X10243991Y-16059888D02*
X10234468Y-16078936D01*
X10234468Y-16078936D02*
X10224944Y-16088460D01*
X10224944Y-16088460D02*
X10205896Y-16097984D01*
X10205896Y-16097984D02*
X10148753Y-16097984D01*
X10148753Y-16097984D02*
X10129706Y-16088460D01*
X10129706Y-16088460D02*
X10120182Y-16078936D01*
X10434468Y-16097984D02*
X10320182Y-16097984D01*
X10377325Y-16097984D02*
X10377325Y-15897984D01*
X10377325Y-15897984D02*
X10358277Y-15926555D01*
X10358277Y-15926555D02*
X10339229Y-15945603D01*
X10339229Y-15945603D02*
X10320182Y-15955127D01*
X10615420Y-15897984D02*
X10520182Y-15897984D01*
X10520182Y-15897984D02*
X10510658Y-15993222D01*
X10510658Y-15993222D02*
X10520182Y-15983698D01*
X10520182Y-15983698D02*
X10539229Y-15974174D01*
X10539229Y-15974174D02*
X10586849Y-15974174D01*
X10586849Y-15974174D02*
X10605896Y-15983698D01*
X10605896Y-15983698D02*
X10615420Y-15993222D01*
X10615420Y-15993222D02*
X10624944Y-16012269D01*
X10624944Y-16012269D02*
X10624944Y-16059888D01*
X10624944Y-16059888D02*
X10615420Y-16078936D01*
X10615420Y-16078936D02*
X10605896Y-16088460D01*
X10605896Y-16088460D02*
X10586849Y-16097984D01*
X10586849Y-16097984D02*
X10539229Y-16097984D01*
X10539229Y-16097984D02*
X10520182Y-16088460D01*
X10520182Y-16088460D02*
X10510658Y-16078936D01*
X10701134Y-15897984D02*
X10701134Y-15936079D01*
X10777325Y-15897984D02*
X10777325Y-15936079D01*
X11072563Y-16174174D02*
X11063039Y-16164650D01*
X11063039Y-16164650D02*
X11043991Y-16136079D01*
X11043991Y-16136079D02*
X11034468Y-16117031D01*
X11034468Y-16117031D02*
X11024944Y-16088460D01*
X11024944Y-16088460D02*
X11015420Y-16040841D01*
X11015420Y-16040841D02*
X11015420Y-16002746D01*
X11015420Y-16002746D02*
X11024944Y-15955127D01*
X11024944Y-15955127D02*
X11034468Y-15926555D01*
X11034468Y-15926555D02*
X11043991Y-15907508D01*
X11043991Y-15907508D02*
X11063039Y-15878936D01*
X11063039Y-15878936D02*
X11072563Y-15869412D01*
X11234468Y-15897984D02*
X11196372Y-15897984D01*
X11196372Y-15897984D02*
X11177325Y-15907508D01*
X11177325Y-15907508D02*
X11167801Y-15917031D01*
X11167801Y-15917031D02*
X11148753Y-15945603D01*
X11148753Y-15945603D02*
X11139230Y-15983698D01*
X11139230Y-15983698D02*
X11139230Y-16059888D01*
X11139230Y-16059888D02*
X11148753Y-16078936D01*
X11148753Y-16078936D02*
X11158277Y-16088460D01*
X11158277Y-16088460D02*
X11177325Y-16097984D01*
X11177325Y-16097984D02*
X11215420Y-16097984D01*
X11215420Y-16097984D02*
X11234468Y-16088460D01*
X11234468Y-16088460D02*
X11243991Y-16078936D01*
X11243991Y-16078936D02*
X11253515Y-16059888D01*
X11253515Y-16059888D02*
X11253515Y-16012269D01*
X11253515Y-16012269D02*
X11243991Y-15993222D01*
X11243991Y-15993222D02*
X11234468Y-15983698D01*
X11234468Y-15983698D02*
X11215420Y-15974174D01*
X11215420Y-15974174D02*
X11177325Y-15974174D01*
X11177325Y-15974174D02*
X11158277Y-15983698D01*
X11158277Y-15983698D02*
X11148753Y-15993222D01*
X11148753Y-15993222D02*
X11139230Y-16012269D01*
X11424944Y-15897984D02*
X11386848Y-15897984D01*
X11386848Y-15897984D02*
X11367801Y-15907508D01*
X11367801Y-15907508D02*
X11358277Y-15917031D01*
X11358277Y-15917031D02*
X11339229Y-15945603D01*
X11339229Y-15945603D02*
X11329706Y-15983698D01*
X11329706Y-15983698D02*
X11329706Y-16059888D01*
X11329706Y-16059888D02*
X11339229Y-16078936D01*
X11339229Y-16078936D02*
X11348753Y-16088460D01*
X11348753Y-16088460D02*
X11367801Y-16097984D01*
X11367801Y-16097984D02*
X11405896Y-16097984D01*
X11405896Y-16097984D02*
X11424944Y-16088460D01*
X11424944Y-16088460D02*
X11434468Y-16078936D01*
X11434468Y-16078936D02*
X11443991Y-16059888D01*
X11443991Y-16059888D02*
X11443991Y-16012269D01*
X11443991Y-16012269D02*
X11434468Y-15993222D01*
X11434468Y-15993222D02*
X11424944Y-15983698D01*
X11424944Y-15983698D02*
X11405896Y-15974174D01*
X11405896Y-15974174D02*
X11367801Y-15974174D01*
X11367801Y-15974174D02*
X11348753Y-15983698D01*
X11348753Y-15983698D02*
X11339229Y-15993222D01*
X11339229Y-15993222D02*
X11329706Y-16012269D01*
X11682087Y-16097984D02*
X11682087Y-15897984D01*
X11767801Y-16097984D02*
X11767801Y-15993222D01*
X11767801Y-15993222D02*
X11758277Y-15974174D01*
X11758277Y-15974174D02*
X11739230Y-15964650D01*
X11739230Y-15964650D02*
X11710658Y-15964650D01*
X11710658Y-15964650D02*
X11691610Y-15974174D01*
X11691610Y-15974174D02*
X11682087Y-15983698D01*
X11891610Y-16097984D02*
X11872563Y-16088460D01*
X11872563Y-16088460D02*
X11863039Y-16078936D01*
X11863039Y-16078936D02*
X11853515Y-16059888D01*
X11853515Y-16059888D02*
X11853515Y-16002746D01*
X11853515Y-16002746D02*
X11863039Y-15983698D01*
X11863039Y-15983698D02*
X11872563Y-15974174D01*
X11872563Y-15974174D02*
X11891610Y-15964650D01*
X11891610Y-15964650D02*
X11920182Y-15964650D01*
X11920182Y-15964650D02*
X11939230Y-15974174D01*
X11939230Y-15974174D02*
X11948753Y-15983698D01*
X11948753Y-15983698D02*
X11958277Y-16002746D01*
X11958277Y-16002746D02*
X11958277Y-16059888D01*
X11958277Y-16059888D02*
X11948753Y-16078936D01*
X11948753Y-16078936D02*
X11939230Y-16088460D01*
X11939230Y-16088460D02*
X11920182Y-16097984D01*
X11920182Y-16097984D02*
X11891610Y-16097984D01*
X12072563Y-16097984D02*
X12053515Y-16088460D01*
X12053515Y-16088460D02*
X12043991Y-16069412D01*
X12043991Y-16069412D02*
X12043991Y-15897984D01*
X12224944Y-16088460D02*
X12205896Y-16097984D01*
X12205896Y-16097984D02*
X12167801Y-16097984D01*
X12167801Y-16097984D02*
X12148753Y-16088460D01*
X12148753Y-16088460D02*
X12139230Y-16069412D01*
X12139230Y-16069412D02*
X12139230Y-15993222D01*
X12139230Y-15993222D02*
X12148753Y-15974174D01*
X12148753Y-15974174D02*
X12167801Y-15964650D01*
X12167801Y-15964650D02*
X12205896Y-15964650D01*
X12205896Y-15964650D02*
X12224944Y-15974174D01*
X12224944Y-15974174D02*
X12234468Y-15993222D01*
X12234468Y-15993222D02*
X12234468Y-16012269D01*
X12234468Y-16012269D02*
X12139230Y-16031317D01*
X12310658Y-16088460D02*
X12329706Y-16097984D01*
X12329706Y-16097984D02*
X12367801Y-16097984D01*
X12367801Y-16097984D02*
X12386849Y-16088460D01*
X12386849Y-16088460D02*
X12396372Y-16069412D01*
X12396372Y-16069412D02*
X12396372Y-16059888D01*
X12396372Y-16059888D02*
X12386849Y-16040841D01*
X12386849Y-16040841D02*
X12367801Y-16031317D01*
X12367801Y-16031317D02*
X12339230Y-16031317D01*
X12339230Y-16031317D02*
X12320182Y-16021793D01*
X12320182Y-16021793D02*
X12310658Y-16002746D01*
X12310658Y-16002746D02*
X12310658Y-15993222D01*
X12310658Y-15993222D02*
X12320182Y-15974174D01*
X12320182Y-15974174D02*
X12339230Y-15964650D01*
X12339230Y-15964650D02*
X12367801Y-15964650D01*
X12367801Y-15964650D02*
X12386849Y-15974174D01*
X12463039Y-16174174D02*
X12472563Y-16164650D01*
X12472563Y-16164650D02*
X12491611Y-16136079D01*
X12491611Y-16136079D02*
X12501134Y-16117031D01*
X12501134Y-16117031D02*
X12510658Y-16088460D01*
X12510658Y-16088460D02*
X12520182Y-16040841D01*
X12520182Y-16040841D02*
X12520182Y-16002746D01*
X12520182Y-16002746D02*
X12510658Y-15955127D01*
X12510658Y-15955127D02*
X12501134Y-15926555D01*
X12501134Y-15926555D02*
X12491611Y-15907508D01*
X12491611Y-15907508D02*
X12472563Y-15878936D01*
X12472563Y-15878936D02*
X12463039Y-15869412D01*
D12*
X7447500Y-16220500D02*
X7447500Y-16320500D01*
X7397500Y-16270500D02*
X7497500Y-16270500D01*
D11*
X7863039Y-16361984D02*
X7748753Y-16361984D01*
X7805896Y-16361984D02*
X7805896Y-16161984D01*
X7805896Y-16161984D02*
X7786848Y-16190555D01*
X7786848Y-16190555D02*
X7767801Y-16209603D01*
X7767801Y-16209603D02*
X7748753Y-16219127D01*
X7948753Y-16342936D02*
X7958277Y-16352460D01*
X7958277Y-16352460D02*
X7948753Y-16361984D01*
X7948753Y-16361984D02*
X7939229Y-16352460D01*
X7939229Y-16352460D02*
X7948753Y-16342936D01*
X7948753Y-16342936D02*
X7948753Y-16361984D01*
X8082086Y-16161984D02*
X8101134Y-16161984D01*
X8101134Y-16161984D02*
X8120182Y-16171508D01*
X8120182Y-16171508D02*
X8129705Y-16181031D01*
X8129705Y-16181031D02*
X8139229Y-16200079D01*
X8139229Y-16200079D02*
X8148753Y-16238174D01*
X8148753Y-16238174D02*
X8148753Y-16285793D01*
X8148753Y-16285793D02*
X8139229Y-16323888D01*
X8139229Y-16323888D02*
X8129705Y-16342936D01*
X8129705Y-16342936D02*
X8120182Y-16352460D01*
X8120182Y-16352460D02*
X8101134Y-16361984D01*
X8101134Y-16361984D02*
X8082086Y-16361984D01*
X8082086Y-16361984D02*
X8063039Y-16352460D01*
X8063039Y-16352460D02*
X8053515Y-16342936D01*
X8053515Y-16342936D02*
X8043991Y-16323888D01*
X8043991Y-16323888D02*
X8034467Y-16285793D01*
X8034467Y-16285793D02*
X8034467Y-16238174D01*
X8034467Y-16238174D02*
X8043991Y-16200079D01*
X8043991Y-16200079D02*
X8053515Y-16181031D01*
X8053515Y-16181031D02*
X8063039Y-16171508D01*
X8063039Y-16171508D02*
X8082086Y-16161984D01*
X8272562Y-16161984D02*
X8291610Y-16161984D01*
X8291610Y-16161984D02*
X8310658Y-16171508D01*
X8310658Y-16171508D02*
X8320182Y-16181031D01*
X8320182Y-16181031D02*
X8329705Y-16200079D01*
X8329705Y-16200079D02*
X8339229Y-16238174D01*
X8339229Y-16238174D02*
X8339229Y-16285793D01*
X8339229Y-16285793D02*
X8329705Y-16323888D01*
X8329705Y-16323888D02*
X8320182Y-16342936D01*
X8320182Y-16342936D02*
X8310658Y-16352460D01*
X8310658Y-16352460D02*
X8291610Y-16361984D01*
X8291610Y-16361984D02*
X8272562Y-16361984D01*
X8272562Y-16361984D02*
X8253515Y-16352460D01*
X8253515Y-16352460D02*
X8243991Y-16342936D01*
X8243991Y-16342936D02*
X8234467Y-16323888D01*
X8234467Y-16323888D02*
X8224943Y-16285793D01*
X8224943Y-16285793D02*
X8224943Y-16238174D01*
X8224943Y-16238174D02*
X8234467Y-16200079D01*
X8234467Y-16200079D02*
X8243991Y-16181031D01*
X8243991Y-16181031D02*
X8253515Y-16171508D01*
X8253515Y-16171508D02*
X8272562Y-16161984D01*
X8463039Y-16161984D02*
X8482086Y-16161984D01*
X8482086Y-16161984D02*
X8501134Y-16171508D01*
X8501134Y-16171508D02*
X8510658Y-16181031D01*
X8510658Y-16181031D02*
X8520182Y-16200079D01*
X8520182Y-16200079D02*
X8529705Y-16238174D01*
X8529705Y-16238174D02*
X8529705Y-16285793D01*
X8529705Y-16285793D02*
X8520182Y-16323888D01*
X8520182Y-16323888D02*
X8510658Y-16342936D01*
X8510658Y-16342936D02*
X8501134Y-16352460D01*
X8501134Y-16352460D02*
X8482086Y-16361984D01*
X8482086Y-16361984D02*
X8463039Y-16361984D01*
X8463039Y-16361984D02*
X8443991Y-16352460D01*
X8443991Y-16352460D02*
X8434467Y-16342936D01*
X8434467Y-16342936D02*
X8424944Y-16323888D01*
X8424944Y-16323888D02*
X8415420Y-16285793D01*
X8415420Y-16285793D02*
X8415420Y-16238174D01*
X8415420Y-16238174D02*
X8424944Y-16200079D01*
X8424944Y-16200079D02*
X8434467Y-16181031D01*
X8434467Y-16181031D02*
X8443991Y-16171508D01*
X8443991Y-16171508D02*
X8463039Y-16161984D01*
X8615420Y-16361984D02*
X8615420Y-16228650D01*
X8615420Y-16247698D02*
X8624944Y-16238174D01*
X8624944Y-16238174D02*
X8643991Y-16228650D01*
X8643991Y-16228650D02*
X8672563Y-16228650D01*
X8672563Y-16228650D02*
X8691610Y-16238174D01*
X8691610Y-16238174D02*
X8701134Y-16257222D01*
X8701134Y-16257222D02*
X8701134Y-16361984D01*
X8701134Y-16257222D02*
X8710658Y-16238174D01*
X8710658Y-16238174D02*
X8729705Y-16228650D01*
X8729705Y-16228650D02*
X8758277Y-16228650D01*
X8758277Y-16228650D02*
X8777325Y-16238174D01*
X8777325Y-16238174D02*
X8786848Y-16257222D01*
X8786848Y-16257222D02*
X8786848Y-16361984D01*
X8882086Y-16361984D02*
X8882086Y-16228650D01*
X8882086Y-16247698D02*
X8891610Y-16238174D01*
X8891610Y-16238174D02*
X8910658Y-16228650D01*
X8910658Y-16228650D02*
X8939229Y-16228650D01*
X8939229Y-16228650D02*
X8958277Y-16238174D01*
X8958277Y-16238174D02*
X8967801Y-16257222D01*
X8967801Y-16257222D02*
X8967801Y-16361984D01*
X8967801Y-16257222D02*
X8977325Y-16238174D01*
X8977325Y-16238174D02*
X8996372Y-16228650D01*
X8996372Y-16228650D02*
X9024944Y-16228650D01*
X9024944Y-16228650D02*
X9043991Y-16238174D01*
X9043991Y-16238174D02*
X9053515Y-16257222D01*
X9053515Y-16257222D02*
X9053515Y-16361984D01*
X9443991Y-16152460D02*
X9272563Y-16409603D01*
X9701134Y-16161984D02*
X9720182Y-16161984D01*
X9720182Y-16161984D02*
X9739229Y-16171508D01*
X9739229Y-16171508D02*
X9748753Y-16181031D01*
X9748753Y-16181031D02*
X9758277Y-16200079D01*
X9758277Y-16200079D02*
X9767801Y-16238174D01*
X9767801Y-16238174D02*
X9767801Y-16285793D01*
X9767801Y-16285793D02*
X9758277Y-16323888D01*
X9758277Y-16323888D02*
X9748753Y-16342936D01*
X9748753Y-16342936D02*
X9739229Y-16352460D01*
X9739229Y-16352460D02*
X9720182Y-16361984D01*
X9720182Y-16361984D02*
X9701134Y-16361984D01*
X9701134Y-16361984D02*
X9682087Y-16352460D01*
X9682087Y-16352460D02*
X9672563Y-16342936D01*
X9672563Y-16342936D02*
X9663039Y-16323888D01*
X9663039Y-16323888D02*
X9653515Y-16285793D01*
X9653515Y-16285793D02*
X9653515Y-16238174D01*
X9653515Y-16238174D02*
X9663039Y-16200079D01*
X9663039Y-16200079D02*
X9672563Y-16181031D01*
X9672563Y-16181031D02*
X9682087Y-16171508D01*
X9682087Y-16171508D02*
X9701134Y-16161984D01*
X9853515Y-16342936D02*
X9863039Y-16352460D01*
X9863039Y-16352460D02*
X9853515Y-16361984D01*
X9853515Y-16361984D02*
X9843991Y-16352460D01*
X9843991Y-16352460D02*
X9853515Y-16342936D01*
X9853515Y-16342936D02*
X9853515Y-16361984D01*
X9986848Y-16161984D02*
X10005896Y-16161984D01*
X10005896Y-16161984D02*
X10024944Y-16171508D01*
X10024944Y-16171508D02*
X10034468Y-16181031D01*
X10034468Y-16181031D02*
X10043991Y-16200079D01*
X10043991Y-16200079D02*
X10053515Y-16238174D01*
X10053515Y-16238174D02*
X10053515Y-16285793D01*
X10053515Y-16285793D02*
X10043991Y-16323888D01*
X10043991Y-16323888D02*
X10034468Y-16342936D01*
X10034468Y-16342936D02*
X10024944Y-16352460D01*
X10024944Y-16352460D02*
X10005896Y-16361984D01*
X10005896Y-16361984D02*
X9986848Y-16361984D01*
X9986848Y-16361984D02*
X9967801Y-16352460D01*
X9967801Y-16352460D02*
X9958277Y-16342936D01*
X9958277Y-16342936D02*
X9948753Y-16323888D01*
X9948753Y-16323888D02*
X9939229Y-16285793D01*
X9939229Y-16285793D02*
X9939229Y-16238174D01*
X9939229Y-16238174D02*
X9948753Y-16200079D01*
X9948753Y-16200079D02*
X9958277Y-16181031D01*
X9958277Y-16181031D02*
X9967801Y-16171508D01*
X9967801Y-16171508D02*
X9986848Y-16161984D01*
X10120182Y-16161984D02*
X10243991Y-16161984D01*
X10243991Y-16161984D02*
X10177325Y-16238174D01*
X10177325Y-16238174D02*
X10205896Y-16238174D01*
X10205896Y-16238174D02*
X10224944Y-16247698D01*
X10224944Y-16247698D02*
X10234468Y-16257222D01*
X10234468Y-16257222D02*
X10243991Y-16276269D01*
X10243991Y-16276269D02*
X10243991Y-16323888D01*
X10243991Y-16323888D02*
X10234468Y-16342936D01*
X10234468Y-16342936D02*
X10224944Y-16352460D01*
X10224944Y-16352460D02*
X10205896Y-16361984D01*
X10205896Y-16361984D02*
X10148753Y-16361984D01*
X10148753Y-16361984D02*
X10129706Y-16352460D01*
X10129706Y-16352460D02*
X10120182Y-16342936D01*
X10339229Y-16361984D02*
X10377325Y-16361984D01*
X10377325Y-16361984D02*
X10396372Y-16352460D01*
X10396372Y-16352460D02*
X10405896Y-16342936D01*
X10405896Y-16342936D02*
X10424944Y-16314365D01*
X10424944Y-16314365D02*
X10434468Y-16276269D01*
X10434468Y-16276269D02*
X10434468Y-16200079D01*
X10434468Y-16200079D02*
X10424944Y-16181031D01*
X10424944Y-16181031D02*
X10415420Y-16171508D01*
X10415420Y-16171508D02*
X10396372Y-16161984D01*
X10396372Y-16161984D02*
X10358277Y-16161984D01*
X10358277Y-16161984D02*
X10339229Y-16171508D01*
X10339229Y-16171508D02*
X10329706Y-16181031D01*
X10329706Y-16181031D02*
X10320182Y-16200079D01*
X10320182Y-16200079D02*
X10320182Y-16247698D01*
X10320182Y-16247698D02*
X10329706Y-16266746D01*
X10329706Y-16266746D02*
X10339229Y-16276269D01*
X10339229Y-16276269D02*
X10358277Y-16285793D01*
X10358277Y-16285793D02*
X10396372Y-16285793D01*
X10396372Y-16285793D02*
X10415420Y-16276269D01*
X10415420Y-16276269D02*
X10424944Y-16266746D01*
X10424944Y-16266746D02*
X10434468Y-16247698D01*
X10605896Y-16228650D02*
X10605896Y-16361984D01*
X10558277Y-16152460D02*
X10510658Y-16295317D01*
X10510658Y-16295317D02*
X10634468Y-16295317D01*
X10701134Y-16161984D02*
X10701134Y-16200079D01*
X10777325Y-16161984D02*
X10777325Y-16200079D01*
X11072563Y-16438174D02*
X11063039Y-16428650D01*
X11063039Y-16428650D02*
X11043991Y-16400079D01*
X11043991Y-16400079D02*
X11034468Y-16381031D01*
X11034468Y-16381031D02*
X11024944Y-16352460D01*
X11024944Y-16352460D02*
X11015420Y-16304841D01*
X11015420Y-16304841D02*
X11015420Y-16266746D01*
X11015420Y-16266746D02*
X11024944Y-16219127D01*
X11024944Y-16219127D02*
X11034468Y-16190555D01*
X11034468Y-16190555D02*
X11043991Y-16171508D01*
X11043991Y-16171508D02*
X11063039Y-16142936D01*
X11063039Y-16142936D02*
X11072563Y-16133412D01*
X11186848Y-16161984D02*
X11205896Y-16161984D01*
X11205896Y-16161984D02*
X11224944Y-16171508D01*
X11224944Y-16171508D02*
X11234468Y-16181031D01*
X11234468Y-16181031D02*
X11243991Y-16200079D01*
X11243991Y-16200079D02*
X11253515Y-16238174D01*
X11253515Y-16238174D02*
X11253515Y-16285793D01*
X11253515Y-16285793D02*
X11243991Y-16323888D01*
X11243991Y-16323888D02*
X11234468Y-16342936D01*
X11234468Y-16342936D02*
X11224944Y-16352460D01*
X11224944Y-16352460D02*
X11205896Y-16361984D01*
X11205896Y-16361984D02*
X11186848Y-16361984D01*
X11186848Y-16361984D02*
X11167801Y-16352460D01*
X11167801Y-16352460D02*
X11158277Y-16342936D01*
X11158277Y-16342936D02*
X11148753Y-16323888D01*
X11148753Y-16323888D02*
X11139230Y-16285793D01*
X11139230Y-16285793D02*
X11139230Y-16238174D01*
X11139230Y-16238174D02*
X11148753Y-16200079D01*
X11148753Y-16200079D02*
X11158277Y-16181031D01*
X11158277Y-16181031D02*
X11167801Y-16171508D01*
X11167801Y-16171508D02*
X11186848Y-16161984D01*
X11491610Y-16361984D02*
X11491610Y-16161984D01*
X11577325Y-16361984D02*
X11577325Y-16257222D01*
X11577325Y-16257222D02*
X11567801Y-16238174D01*
X11567801Y-16238174D02*
X11548753Y-16228650D01*
X11548753Y-16228650D02*
X11520182Y-16228650D01*
X11520182Y-16228650D02*
X11501134Y-16238174D01*
X11501134Y-16238174D02*
X11491610Y-16247698D01*
X11701134Y-16361984D02*
X11682087Y-16352460D01*
X11682087Y-16352460D02*
X11672563Y-16342936D01*
X11672563Y-16342936D02*
X11663039Y-16323888D01*
X11663039Y-16323888D02*
X11663039Y-16266746D01*
X11663039Y-16266746D02*
X11672563Y-16247698D01*
X11672563Y-16247698D02*
X11682087Y-16238174D01*
X11682087Y-16238174D02*
X11701134Y-16228650D01*
X11701134Y-16228650D02*
X11729706Y-16228650D01*
X11729706Y-16228650D02*
X11748753Y-16238174D01*
X11748753Y-16238174D02*
X11758277Y-16247698D01*
X11758277Y-16247698D02*
X11767801Y-16266746D01*
X11767801Y-16266746D02*
X11767801Y-16323888D01*
X11767801Y-16323888D02*
X11758277Y-16342936D01*
X11758277Y-16342936D02*
X11748753Y-16352460D01*
X11748753Y-16352460D02*
X11729706Y-16361984D01*
X11729706Y-16361984D02*
X11701134Y-16361984D01*
X11882087Y-16361984D02*
X11863039Y-16352460D01*
X11863039Y-16352460D02*
X11853515Y-16333412D01*
X11853515Y-16333412D02*
X11853515Y-16161984D01*
X12034468Y-16352460D02*
X12015420Y-16361984D01*
X12015420Y-16361984D02*
X11977325Y-16361984D01*
X11977325Y-16361984D02*
X11958277Y-16352460D01*
X11958277Y-16352460D02*
X11948753Y-16333412D01*
X11948753Y-16333412D02*
X11948753Y-16257222D01*
X11948753Y-16257222D02*
X11958277Y-16238174D01*
X11958277Y-16238174D02*
X11977325Y-16228650D01*
X11977325Y-16228650D02*
X12015420Y-16228650D01*
X12015420Y-16228650D02*
X12034468Y-16238174D01*
X12034468Y-16238174D02*
X12043991Y-16257222D01*
X12043991Y-16257222D02*
X12043991Y-16276269D01*
X12043991Y-16276269D02*
X11948753Y-16295317D01*
X12120182Y-16352460D02*
X12139230Y-16361984D01*
X12139230Y-16361984D02*
X12177325Y-16361984D01*
X12177325Y-16361984D02*
X12196372Y-16352460D01*
X12196372Y-16352460D02*
X12205896Y-16333412D01*
X12205896Y-16333412D02*
X12205896Y-16323888D01*
X12205896Y-16323888D02*
X12196372Y-16304841D01*
X12196372Y-16304841D02*
X12177325Y-16295317D01*
X12177325Y-16295317D02*
X12148753Y-16295317D01*
X12148753Y-16295317D02*
X12129706Y-16285793D01*
X12129706Y-16285793D02*
X12120182Y-16266746D01*
X12120182Y-16266746D02*
X12120182Y-16257222D01*
X12120182Y-16257222D02*
X12129706Y-16238174D01*
X12129706Y-16238174D02*
X12148753Y-16228650D01*
X12148753Y-16228650D02*
X12177325Y-16228650D01*
X12177325Y-16228650D02*
X12196372Y-16238174D01*
X12443992Y-16285793D02*
X12596373Y-16285793D01*
X12520182Y-16361984D02*
X12520182Y-16209603D01*
X12824944Y-16161984D02*
X12948753Y-16161984D01*
X12948753Y-16161984D02*
X12882087Y-16238174D01*
X12882087Y-16238174D02*
X12910658Y-16238174D01*
X12910658Y-16238174D02*
X12929706Y-16247698D01*
X12929706Y-16247698D02*
X12939230Y-16257222D01*
X12939230Y-16257222D02*
X12948753Y-16276269D01*
X12948753Y-16276269D02*
X12948753Y-16323888D01*
X12948753Y-16323888D02*
X12939230Y-16342936D01*
X12939230Y-16342936D02*
X12929706Y-16352460D01*
X12929706Y-16352460D02*
X12910658Y-16361984D01*
X12910658Y-16361984D02*
X12853515Y-16361984D01*
X12853515Y-16361984D02*
X12834468Y-16352460D01*
X12834468Y-16352460D02*
X12824944Y-16342936D01*
X13177325Y-16352460D02*
X13196373Y-16361984D01*
X13196373Y-16361984D02*
X13234468Y-16361984D01*
X13234468Y-16361984D02*
X13253515Y-16352460D01*
X13253515Y-16352460D02*
X13263039Y-16333412D01*
X13263039Y-16333412D02*
X13263039Y-16323888D01*
X13263039Y-16323888D02*
X13253515Y-16304841D01*
X13253515Y-16304841D02*
X13234468Y-16295317D01*
X13234468Y-16295317D02*
X13205896Y-16295317D01*
X13205896Y-16295317D02*
X13186849Y-16285793D01*
X13186849Y-16285793D02*
X13177325Y-16266746D01*
X13177325Y-16266746D02*
X13177325Y-16257222D01*
X13177325Y-16257222D02*
X13186849Y-16238174D01*
X13186849Y-16238174D02*
X13205896Y-16228650D01*
X13205896Y-16228650D02*
X13234468Y-16228650D01*
X13234468Y-16228650D02*
X13253515Y-16238174D01*
X13377325Y-16361984D02*
X13358277Y-16352460D01*
X13358277Y-16352460D02*
X13348754Y-16333412D01*
X13348754Y-16333412D02*
X13348754Y-16161984D01*
X13482087Y-16361984D02*
X13463039Y-16352460D01*
X13463039Y-16352460D02*
X13453515Y-16342936D01*
X13453515Y-16342936D02*
X13443992Y-16323888D01*
X13443992Y-16323888D02*
X13443992Y-16266746D01*
X13443992Y-16266746D02*
X13453515Y-16247698D01*
X13453515Y-16247698D02*
X13463039Y-16238174D01*
X13463039Y-16238174D02*
X13482087Y-16228650D01*
X13482087Y-16228650D02*
X13510658Y-16228650D01*
X13510658Y-16228650D02*
X13529706Y-16238174D01*
X13529706Y-16238174D02*
X13539230Y-16247698D01*
X13539230Y-16247698D02*
X13548754Y-16266746D01*
X13548754Y-16266746D02*
X13548754Y-16323888D01*
X13548754Y-16323888D02*
X13539230Y-16342936D01*
X13539230Y-16342936D02*
X13529706Y-16352460D01*
X13529706Y-16352460D02*
X13510658Y-16361984D01*
X13510658Y-16361984D02*
X13482087Y-16361984D01*
X13605896Y-16228650D02*
X13682087Y-16228650D01*
X13634468Y-16161984D02*
X13634468Y-16333412D01*
X13634468Y-16333412D02*
X13643992Y-16352460D01*
X13643992Y-16352460D02*
X13663039Y-16361984D01*
X13663039Y-16361984D02*
X13682087Y-16361984D01*
X13739230Y-16352460D02*
X13758277Y-16361984D01*
X13758277Y-16361984D02*
X13796373Y-16361984D01*
X13796373Y-16361984D02*
X13815420Y-16352460D01*
X13815420Y-16352460D02*
X13824944Y-16333412D01*
X13824944Y-16333412D02*
X13824944Y-16323888D01*
X13824944Y-16323888D02*
X13815420Y-16304841D01*
X13815420Y-16304841D02*
X13796373Y-16295317D01*
X13796373Y-16295317D02*
X13767801Y-16295317D01*
X13767801Y-16295317D02*
X13748754Y-16285793D01*
X13748754Y-16285793D02*
X13739230Y-16266746D01*
X13739230Y-16266746D02*
X13739230Y-16257222D01*
X13739230Y-16257222D02*
X13748754Y-16238174D01*
X13748754Y-16238174D02*
X13767801Y-16228650D01*
X13767801Y-16228650D02*
X13796373Y-16228650D01*
X13796373Y-16228650D02*
X13815420Y-16238174D01*
X13891611Y-16438174D02*
X13901135Y-16428650D01*
X13901135Y-16428650D02*
X13920182Y-16400079D01*
X13920182Y-16400079D02*
X13929706Y-16381031D01*
X13929706Y-16381031D02*
X13939230Y-16352460D01*
X13939230Y-16352460D02*
X13948754Y-16304841D01*
X13948754Y-16304841D02*
X13948754Y-16266746D01*
X13948754Y-16266746D02*
X13939230Y-16219127D01*
X13939230Y-16219127D02*
X13929706Y-16190555D01*
X13929706Y-16190555D02*
X13920182Y-16171508D01*
X13920182Y-16171508D02*
X13901135Y-16142936D01*
X13901135Y-16142936D02*
X13891611Y-16133412D01*
D13*
X7481391Y-16573391D02*
X7481391Y-16495609D01*
X7403609Y-16495609D01*
X7403609Y-16573391D01*
X7481391Y-16573391D01*
D11*
X7863039Y-16625984D02*
X7748753Y-16625984D01*
X7805896Y-16625984D02*
X7805896Y-16425984D01*
X7805896Y-16425984D02*
X7786848Y-16454555D01*
X7786848Y-16454555D02*
X7767801Y-16473603D01*
X7767801Y-16473603D02*
X7748753Y-16483127D01*
X7948753Y-16606936D02*
X7958277Y-16616460D01*
X7958277Y-16616460D02*
X7948753Y-16625984D01*
X7948753Y-16625984D02*
X7939229Y-16616460D01*
X7939229Y-16616460D02*
X7948753Y-16606936D01*
X7948753Y-16606936D02*
X7948753Y-16625984D01*
X8148753Y-16625984D02*
X8034467Y-16625984D01*
X8091610Y-16625984D02*
X8091610Y-16425984D01*
X8091610Y-16425984D02*
X8072562Y-16454555D01*
X8072562Y-16454555D02*
X8053515Y-16473603D01*
X8053515Y-16473603D02*
X8034467Y-16483127D01*
X8272562Y-16425984D02*
X8291610Y-16425984D01*
X8291610Y-16425984D02*
X8310658Y-16435508D01*
X8310658Y-16435508D02*
X8320182Y-16445031D01*
X8320182Y-16445031D02*
X8329705Y-16464079D01*
X8329705Y-16464079D02*
X8339229Y-16502174D01*
X8339229Y-16502174D02*
X8339229Y-16549793D01*
X8339229Y-16549793D02*
X8329705Y-16587888D01*
X8329705Y-16587888D02*
X8320182Y-16606936D01*
X8320182Y-16606936D02*
X8310658Y-16616460D01*
X8310658Y-16616460D02*
X8291610Y-16625984D01*
X8291610Y-16625984D02*
X8272562Y-16625984D01*
X8272562Y-16625984D02*
X8253515Y-16616460D01*
X8253515Y-16616460D02*
X8243991Y-16606936D01*
X8243991Y-16606936D02*
X8234467Y-16587888D01*
X8234467Y-16587888D02*
X8224943Y-16549793D01*
X8224943Y-16549793D02*
X8224943Y-16502174D01*
X8224943Y-16502174D02*
X8234467Y-16464079D01*
X8234467Y-16464079D02*
X8243991Y-16445031D01*
X8243991Y-16445031D02*
X8253515Y-16435508D01*
X8253515Y-16435508D02*
X8272562Y-16425984D01*
X8463039Y-16425984D02*
X8482086Y-16425984D01*
X8482086Y-16425984D02*
X8501134Y-16435508D01*
X8501134Y-16435508D02*
X8510658Y-16445031D01*
X8510658Y-16445031D02*
X8520182Y-16464079D01*
X8520182Y-16464079D02*
X8529705Y-16502174D01*
X8529705Y-16502174D02*
X8529705Y-16549793D01*
X8529705Y-16549793D02*
X8520182Y-16587888D01*
X8520182Y-16587888D02*
X8510658Y-16606936D01*
X8510658Y-16606936D02*
X8501134Y-16616460D01*
X8501134Y-16616460D02*
X8482086Y-16625984D01*
X8482086Y-16625984D02*
X8463039Y-16625984D01*
X8463039Y-16625984D02*
X8443991Y-16616460D01*
X8443991Y-16616460D02*
X8434467Y-16606936D01*
X8434467Y-16606936D02*
X8424944Y-16587888D01*
X8424944Y-16587888D02*
X8415420Y-16549793D01*
X8415420Y-16549793D02*
X8415420Y-16502174D01*
X8415420Y-16502174D02*
X8424944Y-16464079D01*
X8424944Y-16464079D02*
X8434467Y-16445031D01*
X8434467Y-16445031D02*
X8443991Y-16435508D01*
X8443991Y-16435508D02*
X8463039Y-16425984D01*
X8615420Y-16625984D02*
X8615420Y-16492650D01*
X8615420Y-16511698D02*
X8624944Y-16502174D01*
X8624944Y-16502174D02*
X8643991Y-16492650D01*
X8643991Y-16492650D02*
X8672563Y-16492650D01*
X8672563Y-16492650D02*
X8691610Y-16502174D01*
X8691610Y-16502174D02*
X8701134Y-16521222D01*
X8701134Y-16521222D02*
X8701134Y-16625984D01*
X8701134Y-16521222D02*
X8710658Y-16502174D01*
X8710658Y-16502174D02*
X8729705Y-16492650D01*
X8729705Y-16492650D02*
X8758277Y-16492650D01*
X8758277Y-16492650D02*
X8777325Y-16502174D01*
X8777325Y-16502174D02*
X8786848Y-16521222D01*
X8786848Y-16521222D02*
X8786848Y-16625984D01*
X8882086Y-16625984D02*
X8882086Y-16492650D01*
X8882086Y-16511698D02*
X8891610Y-16502174D01*
X8891610Y-16502174D02*
X8910658Y-16492650D01*
X8910658Y-16492650D02*
X8939229Y-16492650D01*
X8939229Y-16492650D02*
X8958277Y-16502174D01*
X8958277Y-16502174D02*
X8967801Y-16521222D01*
X8967801Y-16521222D02*
X8967801Y-16625984D01*
X8967801Y-16521222D02*
X8977325Y-16502174D01*
X8977325Y-16502174D02*
X8996372Y-16492650D01*
X8996372Y-16492650D02*
X9024944Y-16492650D01*
X9024944Y-16492650D02*
X9043991Y-16502174D01*
X9043991Y-16502174D02*
X9053515Y-16521222D01*
X9053515Y-16521222D02*
X9053515Y-16625984D01*
X9443991Y-16416460D02*
X9272563Y-16673603D01*
X9701134Y-16425984D02*
X9720182Y-16425984D01*
X9720182Y-16425984D02*
X9739229Y-16435508D01*
X9739229Y-16435508D02*
X9748753Y-16445031D01*
X9748753Y-16445031D02*
X9758277Y-16464079D01*
X9758277Y-16464079D02*
X9767801Y-16502174D01*
X9767801Y-16502174D02*
X9767801Y-16549793D01*
X9767801Y-16549793D02*
X9758277Y-16587888D01*
X9758277Y-16587888D02*
X9748753Y-16606936D01*
X9748753Y-16606936D02*
X9739229Y-16616460D01*
X9739229Y-16616460D02*
X9720182Y-16625984D01*
X9720182Y-16625984D02*
X9701134Y-16625984D01*
X9701134Y-16625984D02*
X9682087Y-16616460D01*
X9682087Y-16616460D02*
X9672563Y-16606936D01*
X9672563Y-16606936D02*
X9663039Y-16587888D01*
X9663039Y-16587888D02*
X9653515Y-16549793D01*
X9653515Y-16549793D02*
X9653515Y-16502174D01*
X9653515Y-16502174D02*
X9663039Y-16464079D01*
X9663039Y-16464079D02*
X9672563Y-16445031D01*
X9672563Y-16445031D02*
X9682087Y-16435508D01*
X9682087Y-16435508D02*
X9701134Y-16425984D01*
X9853515Y-16606936D02*
X9863039Y-16616460D01*
X9863039Y-16616460D02*
X9853515Y-16625984D01*
X9853515Y-16625984D02*
X9843991Y-16616460D01*
X9843991Y-16616460D02*
X9853515Y-16606936D01*
X9853515Y-16606936D02*
X9853515Y-16625984D01*
X9986848Y-16425984D02*
X10005896Y-16425984D01*
X10005896Y-16425984D02*
X10024944Y-16435508D01*
X10024944Y-16435508D02*
X10034468Y-16445031D01*
X10034468Y-16445031D02*
X10043991Y-16464079D01*
X10043991Y-16464079D02*
X10053515Y-16502174D01*
X10053515Y-16502174D02*
X10053515Y-16549793D01*
X10053515Y-16549793D02*
X10043991Y-16587888D01*
X10043991Y-16587888D02*
X10034468Y-16606936D01*
X10034468Y-16606936D02*
X10024944Y-16616460D01*
X10024944Y-16616460D02*
X10005896Y-16625984D01*
X10005896Y-16625984D02*
X9986848Y-16625984D01*
X9986848Y-16625984D02*
X9967801Y-16616460D01*
X9967801Y-16616460D02*
X9958277Y-16606936D01*
X9958277Y-16606936D02*
X9948753Y-16587888D01*
X9948753Y-16587888D02*
X9939229Y-16549793D01*
X9939229Y-16549793D02*
X9939229Y-16502174D01*
X9939229Y-16502174D02*
X9948753Y-16464079D01*
X9948753Y-16464079D02*
X9958277Y-16445031D01*
X9958277Y-16445031D02*
X9967801Y-16435508D01*
X9967801Y-16435508D02*
X9986848Y-16425984D01*
X10224944Y-16492650D02*
X10224944Y-16625984D01*
X10177325Y-16416460D02*
X10129706Y-16559317D01*
X10129706Y-16559317D02*
X10253515Y-16559317D01*
X10310658Y-16425984D02*
X10434468Y-16425984D01*
X10434468Y-16425984D02*
X10367801Y-16502174D01*
X10367801Y-16502174D02*
X10396372Y-16502174D01*
X10396372Y-16502174D02*
X10415420Y-16511698D01*
X10415420Y-16511698D02*
X10424944Y-16521222D01*
X10424944Y-16521222D02*
X10434468Y-16540269D01*
X10434468Y-16540269D02*
X10434468Y-16587888D01*
X10434468Y-16587888D02*
X10424944Y-16606936D01*
X10424944Y-16606936D02*
X10415420Y-16616460D01*
X10415420Y-16616460D02*
X10396372Y-16625984D01*
X10396372Y-16625984D02*
X10339229Y-16625984D01*
X10339229Y-16625984D02*
X10320182Y-16616460D01*
X10320182Y-16616460D02*
X10310658Y-16606936D01*
X10501134Y-16425984D02*
X10624944Y-16425984D01*
X10624944Y-16425984D02*
X10558277Y-16502174D01*
X10558277Y-16502174D02*
X10586849Y-16502174D01*
X10586849Y-16502174D02*
X10605896Y-16511698D01*
X10605896Y-16511698D02*
X10615420Y-16521222D01*
X10615420Y-16521222D02*
X10624944Y-16540269D01*
X10624944Y-16540269D02*
X10624944Y-16587888D01*
X10624944Y-16587888D02*
X10615420Y-16606936D01*
X10615420Y-16606936D02*
X10605896Y-16616460D01*
X10605896Y-16616460D02*
X10586849Y-16625984D01*
X10586849Y-16625984D02*
X10529706Y-16625984D01*
X10529706Y-16625984D02*
X10510658Y-16616460D01*
X10510658Y-16616460D02*
X10501134Y-16606936D01*
X10701134Y-16425984D02*
X10701134Y-16464079D01*
X10777325Y-16425984D02*
X10777325Y-16464079D01*
X11072563Y-16702174D02*
X11063039Y-16692650D01*
X11063039Y-16692650D02*
X11043991Y-16664079D01*
X11043991Y-16664079D02*
X11034468Y-16645031D01*
X11034468Y-16645031D02*
X11024944Y-16616460D01*
X11024944Y-16616460D02*
X11015420Y-16568841D01*
X11015420Y-16568841D02*
X11015420Y-16530746D01*
X11015420Y-16530746D02*
X11024944Y-16483127D01*
X11024944Y-16483127D02*
X11034468Y-16454555D01*
X11034468Y-16454555D02*
X11043991Y-16435508D01*
X11043991Y-16435508D02*
X11063039Y-16406936D01*
X11063039Y-16406936D02*
X11072563Y-16397412D01*
X11234468Y-16425984D02*
X11196372Y-16425984D01*
X11196372Y-16425984D02*
X11177325Y-16435508D01*
X11177325Y-16435508D02*
X11167801Y-16445031D01*
X11167801Y-16445031D02*
X11148753Y-16473603D01*
X11148753Y-16473603D02*
X11139230Y-16511698D01*
X11139230Y-16511698D02*
X11139230Y-16587888D01*
X11139230Y-16587888D02*
X11148753Y-16606936D01*
X11148753Y-16606936D02*
X11158277Y-16616460D01*
X11158277Y-16616460D02*
X11177325Y-16625984D01*
X11177325Y-16625984D02*
X11215420Y-16625984D01*
X11215420Y-16625984D02*
X11234468Y-16616460D01*
X11234468Y-16616460D02*
X11243991Y-16606936D01*
X11243991Y-16606936D02*
X11253515Y-16587888D01*
X11253515Y-16587888D02*
X11253515Y-16540269D01*
X11253515Y-16540269D02*
X11243991Y-16521222D01*
X11243991Y-16521222D02*
X11234468Y-16511698D01*
X11234468Y-16511698D02*
X11215420Y-16502174D01*
X11215420Y-16502174D02*
X11177325Y-16502174D01*
X11177325Y-16502174D02*
X11158277Y-16511698D01*
X11158277Y-16511698D02*
X11148753Y-16521222D01*
X11148753Y-16521222D02*
X11139230Y-16540269D01*
X11491610Y-16625984D02*
X11491610Y-16425984D01*
X11577325Y-16625984D02*
X11577325Y-16521222D01*
X11577325Y-16521222D02*
X11567801Y-16502174D01*
X11567801Y-16502174D02*
X11548753Y-16492650D01*
X11548753Y-16492650D02*
X11520182Y-16492650D01*
X11520182Y-16492650D02*
X11501134Y-16502174D01*
X11501134Y-16502174D02*
X11491610Y-16511698D01*
X11701134Y-16625984D02*
X11682087Y-16616460D01*
X11682087Y-16616460D02*
X11672563Y-16606936D01*
X11672563Y-16606936D02*
X11663039Y-16587888D01*
X11663039Y-16587888D02*
X11663039Y-16530746D01*
X11663039Y-16530746D02*
X11672563Y-16511698D01*
X11672563Y-16511698D02*
X11682087Y-16502174D01*
X11682087Y-16502174D02*
X11701134Y-16492650D01*
X11701134Y-16492650D02*
X11729706Y-16492650D01*
X11729706Y-16492650D02*
X11748753Y-16502174D01*
X11748753Y-16502174D02*
X11758277Y-16511698D01*
X11758277Y-16511698D02*
X11767801Y-16530746D01*
X11767801Y-16530746D02*
X11767801Y-16587888D01*
X11767801Y-16587888D02*
X11758277Y-16606936D01*
X11758277Y-16606936D02*
X11748753Y-16616460D01*
X11748753Y-16616460D02*
X11729706Y-16625984D01*
X11729706Y-16625984D02*
X11701134Y-16625984D01*
X11882087Y-16625984D02*
X11863039Y-16616460D01*
X11863039Y-16616460D02*
X11853515Y-16597412D01*
X11853515Y-16597412D02*
X11853515Y-16425984D01*
X12034468Y-16616460D02*
X12015420Y-16625984D01*
X12015420Y-16625984D02*
X11977325Y-16625984D01*
X11977325Y-16625984D02*
X11958277Y-16616460D01*
X11958277Y-16616460D02*
X11948753Y-16597412D01*
X11948753Y-16597412D02*
X11948753Y-16521222D01*
X11948753Y-16521222D02*
X11958277Y-16502174D01*
X11958277Y-16502174D02*
X11977325Y-16492650D01*
X11977325Y-16492650D02*
X12015420Y-16492650D01*
X12015420Y-16492650D02*
X12034468Y-16502174D01*
X12034468Y-16502174D02*
X12043991Y-16521222D01*
X12043991Y-16521222D02*
X12043991Y-16540269D01*
X12043991Y-16540269D02*
X11948753Y-16559317D01*
X12120182Y-16616460D02*
X12139230Y-16625984D01*
X12139230Y-16625984D02*
X12177325Y-16625984D01*
X12177325Y-16625984D02*
X12196372Y-16616460D01*
X12196372Y-16616460D02*
X12205896Y-16597412D01*
X12205896Y-16597412D02*
X12205896Y-16587888D01*
X12205896Y-16587888D02*
X12196372Y-16568841D01*
X12196372Y-16568841D02*
X12177325Y-16559317D01*
X12177325Y-16559317D02*
X12148753Y-16559317D01*
X12148753Y-16559317D02*
X12129706Y-16549793D01*
X12129706Y-16549793D02*
X12120182Y-16530746D01*
X12120182Y-16530746D02*
X12120182Y-16521222D01*
X12120182Y-16521222D02*
X12129706Y-16502174D01*
X12129706Y-16502174D02*
X12148753Y-16492650D01*
X12148753Y-16492650D02*
X12177325Y-16492650D01*
X12177325Y-16492650D02*
X12196372Y-16502174D01*
X12272563Y-16702174D02*
X12282087Y-16692650D01*
X12282087Y-16692650D02*
X12301134Y-16664079D01*
X12301134Y-16664079D02*
X12310658Y-16645031D01*
X12310658Y-16645031D02*
X12320182Y-16616460D01*
X12320182Y-16616460D02*
X12329706Y-16568841D01*
X12329706Y-16568841D02*
X12329706Y-16530746D01*
X12329706Y-16530746D02*
X12320182Y-16483127D01*
X12320182Y-16483127D02*
X12310658Y-16454555D01*
X12310658Y-16454555D02*
X12301134Y-16435508D01*
X12301134Y-16435508D02*
X12282087Y-16406936D01*
X12282087Y-16406936D02*
X12272563Y-16397412D01*
D14*
X7437500Y-16858500D02*
X7497500Y-16798500D01*
X7437500Y-16738500D01*
X7377500Y-16798500D01*
X7437500Y-16858500D01*
D11*
X7863039Y-16889984D02*
X7748753Y-16889984D01*
X7805896Y-16889984D02*
X7805896Y-16689984D01*
X7805896Y-16689984D02*
X7786848Y-16718555D01*
X7786848Y-16718555D02*
X7767801Y-16737603D01*
X7767801Y-16737603D02*
X7748753Y-16747127D01*
X7948753Y-16870936D02*
X7958277Y-16880460D01*
X7958277Y-16880460D02*
X7948753Y-16889984D01*
X7948753Y-16889984D02*
X7939229Y-16880460D01*
X7939229Y-16880460D02*
X7948753Y-16870936D01*
X7948753Y-16870936D02*
X7948753Y-16889984D01*
X8034467Y-16709031D02*
X8043991Y-16699508D01*
X8043991Y-16699508D02*
X8063039Y-16689984D01*
X8063039Y-16689984D02*
X8110658Y-16689984D01*
X8110658Y-16689984D02*
X8129705Y-16699508D01*
X8129705Y-16699508D02*
X8139229Y-16709031D01*
X8139229Y-16709031D02*
X8148753Y-16728079D01*
X8148753Y-16728079D02*
X8148753Y-16747127D01*
X8148753Y-16747127D02*
X8139229Y-16775698D01*
X8139229Y-16775698D02*
X8024943Y-16889984D01*
X8024943Y-16889984D02*
X8148753Y-16889984D01*
X8272562Y-16689984D02*
X8291610Y-16689984D01*
X8291610Y-16689984D02*
X8310658Y-16699508D01*
X8310658Y-16699508D02*
X8320182Y-16709031D01*
X8320182Y-16709031D02*
X8329705Y-16728079D01*
X8329705Y-16728079D02*
X8339229Y-16766174D01*
X8339229Y-16766174D02*
X8339229Y-16813793D01*
X8339229Y-16813793D02*
X8329705Y-16851889D01*
X8329705Y-16851889D02*
X8320182Y-16870936D01*
X8320182Y-16870936D02*
X8310658Y-16880460D01*
X8310658Y-16880460D02*
X8291610Y-16889984D01*
X8291610Y-16889984D02*
X8272562Y-16889984D01*
X8272562Y-16889984D02*
X8253515Y-16880460D01*
X8253515Y-16880460D02*
X8243991Y-16870936D01*
X8243991Y-16870936D02*
X8234467Y-16851889D01*
X8234467Y-16851889D02*
X8224943Y-16813793D01*
X8224943Y-16813793D02*
X8224943Y-16766174D01*
X8224943Y-16766174D02*
X8234467Y-16728079D01*
X8234467Y-16728079D02*
X8243991Y-16709031D01*
X8243991Y-16709031D02*
X8253515Y-16699508D01*
X8253515Y-16699508D02*
X8272562Y-16689984D01*
X8463039Y-16689984D02*
X8482086Y-16689984D01*
X8482086Y-16689984D02*
X8501134Y-16699508D01*
X8501134Y-16699508D02*
X8510658Y-16709031D01*
X8510658Y-16709031D02*
X8520182Y-16728079D01*
X8520182Y-16728079D02*
X8529705Y-16766174D01*
X8529705Y-16766174D02*
X8529705Y-16813793D01*
X8529705Y-16813793D02*
X8520182Y-16851889D01*
X8520182Y-16851889D02*
X8510658Y-16870936D01*
X8510658Y-16870936D02*
X8501134Y-16880460D01*
X8501134Y-16880460D02*
X8482086Y-16889984D01*
X8482086Y-16889984D02*
X8463039Y-16889984D01*
X8463039Y-16889984D02*
X8443991Y-16880460D01*
X8443991Y-16880460D02*
X8434467Y-16870936D01*
X8434467Y-16870936D02*
X8424944Y-16851889D01*
X8424944Y-16851889D02*
X8415420Y-16813793D01*
X8415420Y-16813793D02*
X8415420Y-16766174D01*
X8415420Y-16766174D02*
X8424944Y-16728079D01*
X8424944Y-16728079D02*
X8434467Y-16709031D01*
X8434467Y-16709031D02*
X8443991Y-16699508D01*
X8443991Y-16699508D02*
X8463039Y-16689984D01*
X8615420Y-16889984D02*
X8615420Y-16756650D01*
X8615420Y-16775698D02*
X8624944Y-16766174D01*
X8624944Y-16766174D02*
X8643991Y-16756650D01*
X8643991Y-16756650D02*
X8672563Y-16756650D01*
X8672563Y-16756650D02*
X8691610Y-16766174D01*
X8691610Y-16766174D02*
X8701134Y-16785222D01*
X8701134Y-16785222D02*
X8701134Y-16889984D01*
X8701134Y-16785222D02*
X8710658Y-16766174D01*
X8710658Y-16766174D02*
X8729705Y-16756650D01*
X8729705Y-16756650D02*
X8758277Y-16756650D01*
X8758277Y-16756650D02*
X8777325Y-16766174D01*
X8777325Y-16766174D02*
X8786848Y-16785222D01*
X8786848Y-16785222D02*
X8786848Y-16889984D01*
X8882086Y-16889984D02*
X8882086Y-16756650D01*
X8882086Y-16775698D02*
X8891610Y-16766174D01*
X8891610Y-16766174D02*
X8910658Y-16756650D01*
X8910658Y-16756650D02*
X8939229Y-16756650D01*
X8939229Y-16756650D02*
X8958277Y-16766174D01*
X8958277Y-16766174D02*
X8967801Y-16785222D01*
X8967801Y-16785222D02*
X8967801Y-16889984D01*
X8967801Y-16785222D02*
X8977325Y-16766174D01*
X8977325Y-16766174D02*
X8996372Y-16756650D01*
X8996372Y-16756650D02*
X9024944Y-16756650D01*
X9024944Y-16756650D02*
X9043991Y-16766174D01*
X9043991Y-16766174D02*
X9053515Y-16785222D01*
X9053515Y-16785222D02*
X9053515Y-16889984D01*
X9443991Y-16680460D02*
X9272563Y-16937603D01*
X9701134Y-16689984D02*
X9720182Y-16689984D01*
X9720182Y-16689984D02*
X9739229Y-16699508D01*
X9739229Y-16699508D02*
X9748753Y-16709031D01*
X9748753Y-16709031D02*
X9758277Y-16728079D01*
X9758277Y-16728079D02*
X9767801Y-16766174D01*
X9767801Y-16766174D02*
X9767801Y-16813793D01*
X9767801Y-16813793D02*
X9758277Y-16851889D01*
X9758277Y-16851889D02*
X9748753Y-16870936D01*
X9748753Y-16870936D02*
X9739229Y-16880460D01*
X9739229Y-16880460D02*
X9720182Y-16889984D01*
X9720182Y-16889984D02*
X9701134Y-16889984D01*
X9701134Y-16889984D02*
X9682087Y-16880460D01*
X9682087Y-16880460D02*
X9672563Y-16870936D01*
X9672563Y-16870936D02*
X9663039Y-16851889D01*
X9663039Y-16851889D02*
X9653515Y-16813793D01*
X9653515Y-16813793D02*
X9653515Y-16766174D01*
X9653515Y-16766174D02*
X9663039Y-16728079D01*
X9663039Y-16728079D02*
X9672563Y-16709031D01*
X9672563Y-16709031D02*
X9682087Y-16699508D01*
X9682087Y-16699508D02*
X9701134Y-16689984D01*
X9853515Y-16870936D02*
X9863039Y-16880460D01*
X9863039Y-16880460D02*
X9853515Y-16889984D01*
X9853515Y-16889984D02*
X9843991Y-16880460D01*
X9843991Y-16880460D02*
X9853515Y-16870936D01*
X9853515Y-16870936D02*
X9853515Y-16889984D01*
X9986848Y-16689984D02*
X10005896Y-16689984D01*
X10005896Y-16689984D02*
X10024944Y-16699508D01*
X10024944Y-16699508D02*
X10034468Y-16709031D01*
X10034468Y-16709031D02*
X10043991Y-16728079D01*
X10043991Y-16728079D02*
X10053515Y-16766174D01*
X10053515Y-16766174D02*
X10053515Y-16813793D01*
X10053515Y-16813793D02*
X10043991Y-16851889D01*
X10043991Y-16851889D02*
X10034468Y-16870936D01*
X10034468Y-16870936D02*
X10024944Y-16880460D01*
X10024944Y-16880460D02*
X10005896Y-16889984D01*
X10005896Y-16889984D02*
X9986848Y-16889984D01*
X9986848Y-16889984D02*
X9967801Y-16880460D01*
X9967801Y-16880460D02*
X9958277Y-16870936D01*
X9958277Y-16870936D02*
X9948753Y-16851889D01*
X9948753Y-16851889D02*
X9939229Y-16813793D01*
X9939229Y-16813793D02*
X9939229Y-16766174D01*
X9939229Y-16766174D02*
X9948753Y-16728079D01*
X9948753Y-16728079D02*
X9958277Y-16709031D01*
X9958277Y-16709031D02*
X9967801Y-16699508D01*
X9967801Y-16699508D02*
X9986848Y-16689984D01*
X10224944Y-16756650D02*
X10224944Y-16889984D01*
X10177325Y-16680460D02*
X10129706Y-16823317D01*
X10129706Y-16823317D02*
X10253515Y-16823317D01*
X10310658Y-16689984D02*
X10443991Y-16689984D01*
X10443991Y-16689984D02*
X10358277Y-16889984D01*
X10510658Y-16709031D02*
X10520182Y-16699508D01*
X10520182Y-16699508D02*
X10539229Y-16689984D01*
X10539229Y-16689984D02*
X10586849Y-16689984D01*
X10586849Y-16689984D02*
X10605896Y-16699508D01*
X10605896Y-16699508D02*
X10615420Y-16709031D01*
X10615420Y-16709031D02*
X10624944Y-16728079D01*
X10624944Y-16728079D02*
X10624944Y-16747127D01*
X10624944Y-16747127D02*
X10615420Y-16775698D01*
X10615420Y-16775698D02*
X10501134Y-16889984D01*
X10501134Y-16889984D02*
X10624944Y-16889984D01*
X10701134Y-16689984D02*
X10701134Y-16728079D01*
X10777325Y-16689984D02*
X10777325Y-16728079D01*
X11072563Y-16966174D02*
X11063039Y-16956650D01*
X11063039Y-16956650D02*
X11043991Y-16928079D01*
X11043991Y-16928079D02*
X11034468Y-16909031D01*
X11034468Y-16909031D02*
X11024944Y-16880460D01*
X11024944Y-16880460D02*
X11015420Y-16832841D01*
X11015420Y-16832841D02*
X11015420Y-16794746D01*
X11015420Y-16794746D02*
X11024944Y-16747127D01*
X11024944Y-16747127D02*
X11034468Y-16718555D01*
X11034468Y-16718555D02*
X11043991Y-16699508D01*
X11043991Y-16699508D02*
X11063039Y-16670936D01*
X11063039Y-16670936D02*
X11072563Y-16661412D01*
X11139230Y-16709031D02*
X11148753Y-16699508D01*
X11148753Y-16699508D02*
X11167801Y-16689984D01*
X11167801Y-16689984D02*
X11215420Y-16689984D01*
X11215420Y-16689984D02*
X11234468Y-16699508D01*
X11234468Y-16699508D02*
X11243991Y-16709031D01*
X11243991Y-16709031D02*
X11253515Y-16728079D01*
X11253515Y-16728079D02*
X11253515Y-16747127D01*
X11253515Y-16747127D02*
X11243991Y-16775698D01*
X11243991Y-16775698D02*
X11129706Y-16889984D01*
X11129706Y-16889984D02*
X11253515Y-16889984D01*
X11443991Y-16889984D02*
X11329706Y-16889984D01*
X11386848Y-16889984D02*
X11386848Y-16689984D01*
X11386848Y-16689984D02*
X11367801Y-16718555D01*
X11367801Y-16718555D02*
X11348753Y-16737603D01*
X11348753Y-16737603D02*
X11329706Y-16747127D01*
X11682087Y-16889984D02*
X11682087Y-16689984D01*
X11767801Y-16889984D02*
X11767801Y-16785222D01*
X11767801Y-16785222D02*
X11758277Y-16766174D01*
X11758277Y-16766174D02*
X11739230Y-16756650D01*
X11739230Y-16756650D02*
X11710658Y-16756650D01*
X11710658Y-16756650D02*
X11691610Y-16766174D01*
X11691610Y-16766174D02*
X11682087Y-16775698D01*
X11891610Y-16889984D02*
X11872563Y-16880460D01*
X11872563Y-16880460D02*
X11863039Y-16870936D01*
X11863039Y-16870936D02*
X11853515Y-16851889D01*
X11853515Y-16851889D02*
X11853515Y-16794746D01*
X11853515Y-16794746D02*
X11863039Y-16775698D01*
X11863039Y-16775698D02*
X11872563Y-16766174D01*
X11872563Y-16766174D02*
X11891610Y-16756650D01*
X11891610Y-16756650D02*
X11920182Y-16756650D01*
X11920182Y-16756650D02*
X11939230Y-16766174D01*
X11939230Y-16766174D02*
X11948753Y-16775698D01*
X11948753Y-16775698D02*
X11958277Y-16794746D01*
X11958277Y-16794746D02*
X11958277Y-16851889D01*
X11958277Y-16851889D02*
X11948753Y-16870936D01*
X11948753Y-16870936D02*
X11939230Y-16880460D01*
X11939230Y-16880460D02*
X11920182Y-16889984D01*
X11920182Y-16889984D02*
X11891610Y-16889984D01*
X12072563Y-16889984D02*
X12053515Y-16880460D01*
X12053515Y-16880460D02*
X12043991Y-16861412D01*
X12043991Y-16861412D02*
X12043991Y-16689984D01*
X12224944Y-16880460D02*
X12205896Y-16889984D01*
X12205896Y-16889984D02*
X12167801Y-16889984D01*
X12167801Y-16889984D02*
X12148753Y-16880460D01*
X12148753Y-16880460D02*
X12139230Y-16861412D01*
X12139230Y-16861412D02*
X12139230Y-16785222D01*
X12139230Y-16785222D02*
X12148753Y-16766174D01*
X12148753Y-16766174D02*
X12167801Y-16756650D01*
X12167801Y-16756650D02*
X12205896Y-16756650D01*
X12205896Y-16756650D02*
X12224944Y-16766174D01*
X12224944Y-16766174D02*
X12234468Y-16785222D01*
X12234468Y-16785222D02*
X12234468Y-16804270D01*
X12234468Y-16804270D02*
X12139230Y-16823317D01*
X12310658Y-16880460D02*
X12329706Y-16889984D01*
X12329706Y-16889984D02*
X12367801Y-16889984D01*
X12367801Y-16889984D02*
X12386849Y-16880460D01*
X12386849Y-16880460D02*
X12396372Y-16861412D01*
X12396372Y-16861412D02*
X12396372Y-16851889D01*
X12396372Y-16851889D02*
X12386849Y-16832841D01*
X12386849Y-16832841D02*
X12367801Y-16823317D01*
X12367801Y-16823317D02*
X12339230Y-16823317D01*
X12339230Y-16823317D02*
X12320182Y-16813793D01*
X12320182Y-16813793D02*
X12310658Y-16794746D01*
X12310658Y-16794746D02*
X12310658Y-16785222D01*
X12310658Y-16785222D02*
X12320182Y-16766174D01*
X12320182Y-16766174D02*
X12339230Y-16756650D01*
X12339230Y-16756650D02*
X12367801Y-16756650D01*
X12367801Y-16756650D02*
X12386849Y-16766174D01*
X12463039Y-16966174D02*
X12472563Y-16956650D01*
X12472563Y-16956650D02*
X12491611Y-16928079D01*
X12491611Y-16928079D02*
X12501134Y-16909031D01*
X12501134Y-16909031D02*
X12510658Y-16880460D01*
X12510658Y-16880460D02*
X12520182Y-16832841D01*
X12520182Y-16832841D02*
X12520182Y-16794746D01*
X12520182Y-16794746D02*
X12510658Y-16747127D01*
X12510658Y-16747127D02*
X12501134Y-16718555D01*
X12501134Y-16718555D02*
X12491611Y-16699508D01*
X12491611Y-16699508D02*
X12472563Y-16670936D01*
X12472563Y-16670936D02*
X12463039Y-16661412D01*
D15*
X7367500Y-16997500D02*
X7497500Y-17127500D01*
X7497500Y-16997500D02*
X7367500Y-17127500D01*
X7497500Y-17062500D02*
G75*
G02*
X7367500Y-17062500I-65000J0D01*
G01*
X7367500Y-17062500D02*
G75*
G02*
X7497500Y-17062500I65000J0D01*
G01*
D11*
X7863039Y-17153984D02*
X7748753Y-17153984D01*
X7805896Y-17153984D02*
X7805896Y-16953984D01*
X7805896Y-16953984D02*
X7786848Y-16982555D01*
X7786848Y-16982555D02*
X7767801Y-17001603D01*
X7767801Y-17001603D02*
X7748753Y-17011127D01*
X7948753Y-17134936D02*
X7958277Y-17144460D01*
X7958277Y-17144460D02*
X7948753Y-17153984D01*
X7948753Y-17153984D02*
X7939229Y-17144460D01*
X7939229Y-17144460D02*
X7948753Y-17134936D01*
X7948753Y-17134936D02*
X7948753Y-17153984D01*
X8024943Y-16953984D02*
X8148753Y-16953984D01*
X8148753Y-16953984D02*
X8082086Y-17030174D01*
X8082086Y-17030174D02*
X8110658Y-17030174D01*
X8110658Y-17030174D02*
X8129705Y-17039698D01*
X8129705Y-17039698D02*
X8139229Y-17049222D01*
X8139229Y-17049222D02*
X8148753Y-17068270D01*
X8148753Y-17068270D02*
X8148753Y-17115889D01*
X8148753Y-17115889D02*
X8139229Y-17134936D01*
X8139229Y-17134936D02*
X8129705Y-17144460D01*
X8129705Y-17144460D02*
X8110658Y-17153984D01*
X8110658Y-17153984D02*
X8053515Y-17153984D01*
X8053515Y-17153984D02*
X8034467Y-17144460D01*
X8034467Y-17144460D02*
X8024943Y-17134936D01*
X8272562Y-16953984D02*
X8291610Y-16953984D01*
X8291610Y-16953984D02*
X8310658Y-16963508D01*
X8310658Y-16963508D02*
X8320182Y-16973031D01*
X8320182Y-16973031D02*
X8329705Y-16992079D01*
X8329705Y-16992079D02*
X8339229Y-17030174D01*
X8339229Y-17030174D02*
X8339229Y-17077793D01*
X8339229Y-17077793D02*
X8329705Y-17115889D01*
X8329705Y-17115889D02*
X8320182Y-17134936D01*
X8320182Y-17134936D02*
X8310658Y-17144460D01*
X8310658Y-17144460D02*
X8291610Y-17153984D01*
X8291610Y-17153984D02*
X8272562Y-17153984D01*
X8272562Y-17153984D02*
X8253515Y-17144460D01*
X8253515Y-17144460D02*
X8243991Y-17134936D01*
X8243991Y-17134936D02*
X8234467Y-17115889D01*
X8234467Y-17115889D02*
X8224943Y-17077793D01*
X8224943Y-17077793D02*
X8224943Y-17030174D01*
X8224943Y-17030174D02*
X8234467Y-16992079D01*
X8234467Y-16992079D02*
X8243991Y-16973031D01*
X8243991Y-16973031D02*
X8253515Y-16963508D01*
X8253515Y-16963508D02*
X8272562Y-16953984D01*
X8463039Y-16953984D02*
X8482086Y-16953984D01*
X8482086Y-16953984D02*
X8501134Y-16963508D01*
X8501134Y-16963508D02*
X8510658Y-16973031D01*
X8510658Y-16973031D02*
X8520182Y-16992079D01*
X8520182Y-16992079D02*
X8529705Y-17030174D01*
X8529705Y-17030174D02*
X8529705Y-17077793D01*
X8529705Y-17077793D02*
X8520182Y-17115889D01*
X8520182Y-17115889D02*
X8510658Y-17134936D01*
X8510658Y-17134936D02*
X8501134Y-17144460D01*
X8501134Y-17144460D02*
X8482086Y-17153984D01*
X8482086Y-17153984D02*
X8463039Y-17153984D01*
X8463039Y-17153984D02*
X8443991Y-17144460D01*
X8443991Y-17144460D02*
X8434467Y-17134936D01*
X8434467Y-17134936D02*
X8424944Y-17115889D01*
X8424944Y-17115889D02*
X8415420Y-17077793D01*
X8415420Y-17077793D02*
X8415420Y-17030174D01*
X8415420Y-17030174D02*
X8424944Y-16992079D01*
X8424944Y-16992079D02*
X8434467Y-16973031D01*
X8434467Y-16973031D02*
X8443991Y-16963508D01*
X8443991Y-16963508D02*
X8463039Y-16953984D01*
X8615420Y-17153984D02*
X8615420Y-17020650D01*
X8615420Y-17039698D02*
X8624944Y-17030174D01*
X8624944Y-17030174D02*
X8643991Y-17020650D01*
X8643991Y-17020650D02*
X8672563Y-17020650D01*
X8672563Y-17020650D02*
X8691610Y-17030174D01*
X8691610Y-17030174D02*
X8701134Y-17049222D01*
X8701134Y-17049222D02*
X8701134Y-17153984D01*
X8701134Y-17049222D02*
X8710658Y-17030174D01*
X8710658Y-17030174D02*
X8729705Y-17020650D01*
X8729705Y-17020650D02*
X8758277Y-17020650D01*
X8758277Y-17020650D02*
X8777325Y-17030174D01*
X8777325Y-17030174D02*
X8786848Y-17049222D01*
X8786848Y-17049222D02*
X8786848Y-17153984D01*
X8882086Y-17153984D02*
X8882086Y-17020650D01*
X8882086Y-17039698D02*
X8891610Y-17030174D01*
X8891610Y-17030174D02*
X8910658Y-17020650D01*
X8910658Y-17020650D02*
X8939229Y-17020650D01*
X8939229Y-17020650D02*
X8958277Y-17030174D01*
X8958277Y-17030174D02*
X8967801Y-17049222D01*
X8967801Y-17049222D02*
X8967801Y-17153984D01*
X8967801Y-17049222D02*
X8977325Y-17030174D01*
X8977325Y-17030174D02*
X8996372Y-17020650D01*
X8996372Y-17020650D02*
X9024944Y-17020650D01*
X9024944Y-17020650D02*
X9043991Y-17030174D01*
X9043991Y-17030174D02*
X9053515Y-17049222D01*
X9053515Y-17049222D02*
X9053515Y-17153984D01*
X9443991Y-16944460D02*
X9272563Y-17201603D01*
X9701134Y-16953984D02*
X9720182Y-16953984D01*
X9720182Y-16953984D02*
X9739229Y-16963508D01*
X9739229Y-16963508D02*
X9748753Y-16973031D01*
X9748753Y-16973031D02*
X9758277Y-16992079D01*
X9758277Y-16992079D02*
X9767801Y-17030174D01*
X9767801Y-17030174D02*
X9767801Y-17077793D01*
X9767801Y-17077793D02*
X9758277Y-17115889D01*
X9758277Y-17115889D02*
X9748753Y-17134936D01*
X9748753Y-17134936D02*
X9739229Y-17144460D01*
X9739229Y-17144460D02*
X9720182Y-17153984D01*
X9720182Y-17153984D02*
X9701134Y-17153984D01*
X9701134Y-17153984D02*
X9682087Y-17144460D01*
X9682087Y-17144460D02*
X9672563Y-17134936D01*
X9672563Y-17134936D02*
X9663039Y-17115889D01*
X9663039Y-17115889D02*
X9653515Y-17077793D01*
X9653515Y-17077793D02*
X9653515Y-17030174D01*
X9653515Y-17030174D02*
X9663039Y-16992079D01*
X9663039Y-16992079D02*
X9672563Y-16973031D01*
X9672563Y-16973031D02*
X9682087Y-16963508D01*
X9682087Y-16963508D02*
X9701134Y-16953984D01*
X9853515Y-17134936D02*
X9863039Y-17144460D01*
X9863039Y-17144460D02*
X9853515Y-17153984D01*
X9853515Y-17153984D02*
X9843991Y-17144460D01*
X9843991Y-17144460D02*
X9853515Y-17134936D01*
X9853515Y-17134936D02*
X9853515Y-17153984D01*
X9986848Y-16953984D02*
X10005896Y-16953984D01*
X10005896Y-16953984D02*
X10024944Y-16963508D01*
X10024944Y-16963508D02*
X10034468Y-16973031D01*
X10034468Y-16973031D02*
X10043991Y-16992079D01*
X10043991Y-16992079D02*
X10053515Y-17030174D01*
X10053515Y-17030174D02*
X10053515Y-17077793D01*
X10053515Y-17077793D02*
X10043991Y-17115889D01*
X10043991Y-17115889D02*
X10034468Y-17134936D01*
X10034468Y-17134936D02*
X10024944Y-17144460D01*
X10024944Y-17144460D02*
X10005896Y-17153984D01*
X10005896Y-17153984D02*
X9986848Y-17153984D01*
X9986848Y-17153984D02*
X9967801Y-17144460D01*
X9967801Y-17144460D02*
X9958277Y-17134936D01*
X9958277Y-17134936D02*
X9948753Y-17115889D01*
X9948753Y-17115889D02*
X9939229Y-17077793D01*
X9939229Y-17077793D02*
X9939229Y-17030174D01*
X9939229Y-17030174D02*
X9948753Y-16992079D01*
X9948753Y-16992079D02*
X9958277Y-16973031D01*
X9958277Y-16973031D02*
X9967801Y-16963508D01*
X9967801Y-16963508D02*
X9986848Y-16953984D01*
X10234468Y-16953984D02*
X10139229Y-16953984D01*
X10139229Y-16953984D02*
X10129706Y-17049222D01*
X10129706Y-17049222D02*
X10139229Y-17039698D01*
X10139229Y-17039698D02*
X10158277Y-17030174D01*
X10158277Y-17030174D02*
X10205896Y-17030174D01*
X10205896Y-17030174D02*
X10224944Y-17039698D01*
X10224944Y-17039698D02*
X10234468Y-17049222D01*
X10234468Y-17049222D02*
X10243991Y-17068270D01*
X10243991Y-17068270D02*
X10243991Y-17115889D01*
X10243991Y-17115889D02*
X10234468Y-17134936D01*
X10234468Y-17134936D02*
X10224944Y-17144460D01*
X10224944Y-17144460D02*
X10205896Y-17153984D01*
X10205896Y-17153984D02*
X10158277Y-17153984D01*
X10158277Y-17153984D02*
X10139229Y-17144460D01*
X10139229Y-17144460D02*
X10129706Y-17134936D01*
X10434468Y-17153984D02*
X10320182Y-17153984D01*
X10377325Y-17153984D02*
X10377325Y-16953984D01*
X10377325Y-16953984D02*
X10358277Y-16982555D01*
X10358277Y-16982555D02*
X10339229Y-17001603D01*
X10339229Y-17001603D02*
X10320182Y-17011127D01*
X10510658Y-16973031D02*
X10520182Y-16963508D01*
X10520182Y-16963508D02*
X10539229Y-16953984D01*
X10539229Y-16953984D02*
X10586849Y-16953984D01*
X10586849Y-16953984D02*
X10605896Y-16963508D01*
X10605896Y-16963508D02*
X10615420Y-16973031D01*
X10615420Y-16973031D02*
X10624944Y-16992079D01*
X10624944Y-16992079D02*
X10624944Y-17011127D01*
X10624944Y-17011127D02*
X10615420Y-17039698D01*
X10615420Y-17039698D02*
X10501134Y-17153984D01*
X10501134Y-17153984D02*
X10624944Y-17153984D01*
X10701134Y-16953984D02*
X10701134Y-16992079D01*
X10777325Y-16953984D02*
X10777325Y-16992079D01*
X11072563Y-17230174D02*
X11063039Y-17220650D01*
X11063039Y-17220650D02*
X11043991Y-17192079D01*
X11043991Y-17192079D02*
X11034468Y-17173031D01*
X11034468Y-17173031D02*
X11024944Y-17144460D01*
X11024944Y-17144460D02*
X11015420Y-17096841D01*
X11015420Y-17096841D02*
X11015420Y-17058746D01*
X11015420Y-17058746D02*
X11024944Y-17011127D01*
X11024944Y-17011127D02*
X11034468Y-16982555D01*
X11034468Y-16982555D02*
X11043991Y-16963508D01*
X11043991Y-16963508D02*
X11063039Y-16934936D01*
X11063039Y-16934936D02*
X11072563Y-16925412D01*
X11129706Y-16953984D02*
X11253515Y-16953984D01*
X11253515Y-16953984D02*
X11186848Y-17030174D01*
X11186848Y-17030174D02*
X11215420Y-17030174D01*
X11215420Y-17030174D02*
X11234468Y-17039698D01*
X11234468Y-17039698D02*
X11243991Y-17049222D01*
X11243991Y-17049222D02*
X11253515Y-17068270D01*
X11253515Y-17068270D02*
X11253515Y-17115889D01*
X11253515Y-17115889D02*
X11243991Y-17134936D01*
X11243991Y-17134936D02*
X11234468Y-17144460D01*
X11234468Y-17144460D02*
X11215420Y-17153984D01*
X11215420Y-17153984D02*
X11158277Y-17153984D01*
X11158277Y-17153984D02*
X11139230Y-17144460D01*
X11139230Y-17144460D02*
X11129706Y-17134936D01*
X11424944Y-16953984D02*
X11386848Y-16953984D01*
X11386848Y-16953984D02*
X11367801Y-16963508D01*
X11367801Y-16963508D02*
X11358277Y-16973031D01*
X11358277Y-16973031D02*
X11339229Y-17001603D01*
X11339229Y-17001603D02*
X11329706Y-17039698D01*
X11329706Y-17039698D02*
X11329706Y-17115889D01*
X11329706Y-17115889D02*
X11339229Y-17134936D01*
X11339229Y-17134936D02*
X11348753Y-17144460D01*
X11348753Y-17144460D02*
X11367801Y-17153984D01*
X11367801Y-17153984D02*
X11405896Y-17153984D01*
X11405896Y-17153984D02*
X11424944Y-17144460D01*
X11424944Y-17144460D02*
X11434468Y-17134936D01*
X11434468Y-17134936D02*
X11443991Y-17115889D01*
X11443991Y-17115889D02*
X11443991Y-17068270D01*
X11443991Y-17068270D02*
X11434468Y-17049222D01*
X11434468Y-17049222D02*
X11424944Y-17039698D01*
X11424944Y-17039698D02*
X11405896Y-17030174D01*
X11405896Y-17030174D02*
X11367801Y-17030174D01*
X11367801Y-17030174D02*
X11348753Y-17039698D01*
X11348753Y-17039698D02*
X11339229Y-17049222D01*
X11339229Y-17049222D02*
X11329706Y-17068270D01*
X11682087Y-17153984D02*
X11682087Y-16953984D01*
X11767801Y-17153984D02*
X11767801Y-17049222D01*
X11767801Y-17049222D02*
X11758277Y-17030174D01*
X11758277Y-17030174D02*
X11739230Y-17020650D01*
X11739230Y-17020650D02*
X11710658Y-17020650D01*
X11710658Y-17020650D02*
X11691610Y-17030174D01*
X11691610Y-17030174D02*
X11682087Y-17039698D01*
X11891610Y-17153984D02*
X11872563Y-17144460D01*
X11872563Y-17144460D02*
X11863039Y-17134936D01*
X11863039Y-17134936D02*
X11853515Y-17115889D01*
X11853515Y-17115889D02*
X11853515Y-17058746D01*
X11853515Y-17058746D02*
X11863039Y-17039698D01*
X11863039Y-17039698D02*
X11872563Y-17030174D01*
X11872563Y-17030174D02*
X11891610Y-17020650D01*
X11891610Y-17020650D02*
X11920182Y-17020650D01*
X11920182Y-17020650D02*
X11939230Y-17030174D01*
X11939230Y-17030174D02*
X11948753Y-17039698D01*
X11948753Y-17039698D02*
X11958277Y-17058746D01*
X11958277Y-17058746D02*
X11958277Y-17115889D01*
X11958277Y-17115889D02*
X11948753Y-17134936D01*
X11948753Y-17134936D02*
X11939230Y-17144460D01*
X11939230Y-17144460D02*
X11920182Y-17153984D01*
X11920182Y-17153984D02*
X11891610Y-17153984D01*
X12072563Y-17153984D02*
X12053515Y-17144460D01*
X12053515Y-17144460D02*
X12043991Y-17125412D01*
X12043991Y-17125412D02*
X12043991Y-16953984D01*
X12224944Y-17144460D02*
X12205896Y-17153984D01*
X12205896Y-17153984D02*
X12167801Y-17153984D01*
X12167801Y-17153984D02*
X12148753Y-17144460D01*
X12148753Y-17144460D02*
X12139230Y-17125412D01*
X12139230Y-17125412D02*
X12139230Y-17049222D01*
X12139230Y-17049222D02*
X12148753Y-17030174D01*
X12148753Y-17030174D02*
X12167801Y-17020650D01*
X12167801Y-17020650D02*
X12205896Y-17020650D01*
X12205896Y-17020650D02*
X12224944Y-17030174D01*
X12224944Y-17030174D02*
X12234468Y-17049222D01*
X12234468Y-17049222D02*
X12234468Y-17068270D01*
X12234468Y-17068270D02*
X12139230Y-17087317D01*
X12310658Y-17144460D02*
X12329706Y-17153984D01*
X12329706Y-17153984D02*
X12367801Y-17153984D01*
X12367801Y-17153984D02*
X12386849Y-17144460D01*
X12386849Y-17144460D02*
X12396372Y-17125412D01*
X12396372Y-17125412D02*
X12396372Y-17115889D01*
X12396372Y-17115889D02*
X12386849Y-17096841D01*
X12386849Y-17096841D02*
X12367801Y-17087317D01*
X12367801Y-17087317D02*
X12339230Y-17087317D01*
X12339230Y-17087317D02*
X12320182Y-17077793D01*
X12320182Y-17077793D02*
X12310658Y-17058746D01*
X12310658Y-17058746D02*
X12310658Y-17049222D01*
X12310658Y-17049222D02*
X12320182Y-17030174D01*
X12320182Y-17030174D02*
X12339230Y-17020650D01*
X12339230Y-17020650D02*
X12367801Y-17020650D01*
X12367801Y-17020650D02*
X12386849Y-17030174D01*
X12463039Y-17230174D02*
X12472563Y-17220650D01*
X12472563Y-17220650D02*
X12491611Y-17192079D01*
X12491611Y-17192079D02*
X12501134Y-17173031D01*
X12501134Y-17173031D02*
X12510658Y-17144460D01*
X12510658Y-17144460D02*
X12520182Y-17096841D01*
X12520182Y-17096841D02*
X12520182Y-17058746D01*
X12520182Y-17058746D02*
X12510658Y-17011127D01*
X12510658Y-17011127D02*
X12501134Y-16982555D01*
X12501134Y-16982555D02*
X12491611Y-16963508D01*
X12491611Y-16963508D02*
X12472563Y-16934936D01*
X12472563Y-16934936D02*
X12463039Y-16925412D01*
D16*
X7357500Y-17256500D02*
X7497500Y-17396500D01*
X7497500Y-17256500D02*
X7357500Y-17396500D01*
X7427500Y-17256500D02*
X7427500Y-17396500D01*
X7357500Y-17326500D02*
X7497500Y-17326500D01*
D11*
X7863039Y-17417984D02*
X7748753Y-17417984D01*
X7805896Y-17417984D02*
X7805896Y-17217984D01*
X7805896Y-17217984D02*
X7786848Y-17246555D01*
X7786848Y-17246555D02*
X7767801Y-17265603D01*
X7767801Y-17265603D02*
X7748753Y-17275127D01*
X7948753Y-17398936D02*
X7958277Y-17408460D01*
X7958277Y-17408460D02*
X7948753Y-17417984D01*
X7948753Y-17417984D02*
X7939229Y-17408460D01*
X7939229Y-17408460D02*
X7948753Y-17398936D01*
X7948753Y-17398936D02*
X7948753Y-17417984D01*
X8129705Y-17284650D02*
X8129705Y-17417984D01*
X8082086Y-17208460D02*
X8034467Y-17351317D01*
X8034467Y-17351317D02*
X8158277Y-17351317D01*
X8272562Y-17217984D02*
X8291610Y-17217984D01*
X8291610Y-17217984D02*
X8310658Y-17227508D01*
X8310658Y-17227508D02*
X8320182Y-17237031D01*
X8320182Y-17237031D02*
X8329705Y-17256079D01*
X8329705Y-17256079D02*
X8339229Y-17294174D01*
X8339229Y-17294174D02*
X8339229Y-17341793D01*
X8339229Y-17341793D02*
X8329705Y-17379889D01*
X8329705Y-17379889D02*
X8320182Y-17398936D01*
X8320182Y-17398936D02*
X8310658Y-17408460D01*
X8310658Y-17408460D02*
X8291610Y-17417984D01*
X8291610Y-17417984D02*
X8272562Y-17417984D01*
X8272562Y-17417984D02*
X8253515Y-17408460D01*
X8253515Y-17408460D02*
X8243991Y-17398936D01*
X8243991Y-17398936D02*
X8234467Y-17379889D01*
X8234467Y-17379889D02*
X8224943Y-17341793D01*
X8224943Y-17341793D02*
X8224943Y-17294174D01*
X8224943Y-17294174D02*
X8234467Y-17256079D01*
X8234467Y-17256079D02*
X8243991Y-17237031D01*
X8243991Y-17237031D02*
X8253515Y-17227508D01*
X8253515Y-17227508D02*
X8272562Y-17217984D01*
X8463039Y-17217984D02*
X8482086Y-17217984D01*
X8482086Y-17217984D02*
X8501134Y-17227508D01*
X8501134Y-17227508D02*
X8510658Y-17237031D01*
X8510658Y-17237031D02*
X8520182Y-17256079D01*
X8520182Y-17256079D02*
X8529705Y-17294174D01*
X8529705Y-17294174D02*
X8529705Y-17341793D01*
X8529705Y-17341793D02*
X8520182Y-17379889D01*
X8520182Y-17379889D02*
X8510658Y-17398936D01*
X8510658Y-17398936D02*
X8501134Y-17408460D01*
X8501134Y-17408460D02*
X8482086Y-17417984D01*
X8482086Y-17417984D02*
X8463039Y-17417984D01*
X8463039Y-17417984D02*
X8443991Y-17408460D01*
X8443991Y-17408460D02*
X8434467Y-17398936D01*
X8434467Y-17398936D02*
X8424944Y-17379889D01*
X8424944Y-17379889D02*
X8415420Y-17341793D01*
X8415420Y-17341793D02*
X8415420Y-17294174D01*
X8415420Y-17294174D02*
X8424944Y-17256079D01*
X8424944Y-17256079D02*
X8434467Y-17237031D01*
X8434467Y-17237031D02*
X8443991Y-17227508D01*
X8443991Y-17227508D02*
X8463039Y-17217984D01*
X8615420Y-17417984D02*
X8615420Y-17284650D01*
X8615420Y-17303698D02*
X8624944Y-17294174D01*
X8624944Y-17294174D02*
X8643991Y-17284650D01*
X8643991Y-17284650D02*
X8672563Y-17284650D01*
X8672563Y-17284650D02*
X8691610Y-17294174D01*
X8691610Y-17294174D02*
X8701134Y-17313222D01*
X8701134Y-17313222D02*
X8701134Y-17417984D01*
X8701134Y-17313222D02*
X8710658Y-17294174D01*
X8710658Y-17294174D02*
X8729705Y-17284650D01*
X8729705Y-17284650D02*
X8758277Y-17284650D01*
X8758277Y-17284650D02*
X8777325Y-17294174D01*
X8777325Y-17294174D02*
X8786848Y-17313222D01*
X8786848Y-17313222D02*
X8786848Y-17417984D01*
X8882086Y-17417984D02*
X8882086Y-17284650D01*
X8882086Y-17303698D02*
X8891610Y-17294174D01*
X8891610Y-17294174D02*
X8910658Y-17284650D01*
X8910658Y-17284650D02*
X8939229Y-17284650D01*
X8939229Y-17284650D02*
X8958277Y-17294174D01*
X8958277Y-17294174D02*
X8967801Y-17313222D01*
X8967801Y-17313222D02*
X8967801Y-17417984D01*
X8967801Y-17313222D02*
X8977325Y-17294174D01*
X8977325Y-17294174D02*
X8996372Y-17284650D01*
X8996372Y-17284650D02*
X9024944Y-17284650D01*
X9024944Y-17284650D02*
X9043991Y-17294174D01*
X9043991Y-17294174D02*
X9053515Y-17313222D01*
X9053515Y-17313222D02*
X9053515Y-17417984D01*
X9443991Y-17208460D02*
X9272563Y-17465603D01*
X9701134Y-17217984D02*
X9720182Y-17217984D01*
X9720182Y-17217984D02*
X9739229Y-17227508D01*
X9739229Y-17227508D02*
X9748753Y-17237031D01*
X9748753Y-17237031D02*
X9758277Y-17256079D01*
X9758277Y-17256079D02*
X9767801Y-17294174D01*
X9767801Y-17294174D02*
X9767801Y-17341793D01*
X9767801Y-17341793D02*
X9758277Y-17379889D01*
X9758277Y-17379889D02*
X9748753Y-17398936D01*
X9748753Y-17398936D02*
X9739229Y-17408460D01*
X9739229Y-17408460D02*
X9720182Y-17417984D01*
X9720182Y-17417984D02*
X9701134Y-17417984D01*
X9701134Y-17417984D02*
X9682087Y-17408460D01*
X9682087Y-17408460D02*
X9672563Y-17398936D01*
X9672563Y-17398936D02*
X9663039Y-17379889D01*
X9663039Y-17379889D02*
X9653515Y-17341793D01*
X9653515Y-17341793D02*
X9653515Y-17294174D01*
X9653515Y-17294174D02*
X9663039Y-17256079D01*
X9663039Y-17256079D02*
X9672563Y-17237031D01*
X9672563Y-17237031D02*
X9682087Y-17227508D01*
X9682087Y-17227508D02*
X9701134Y-17217984D01*
X9853515Y-17398936D02*
X9863039Y-17408460D01*
X9863039Y-17408460D02*
X9853515Y-17417984D01*
X9853515Y-17417984D02*
X9843991Y-17408460D01*
X9843991Y-17408460D02*
X9853515Y-17398936D01*
X9853515Y-17398936D02*
X9853515Y-17417984D01*
X9986848Y-17217984D02*
X10005896Y-17217984D01*
X10005896Y-17217984D02*
X10024944Y-17227508D01*
X10024944Y-17227508D02*
X10034468Y-17237031D01*
X10034468Y-17237031D02*
X10043991Y-17256079D01*
X10043991Y-17256079D02*
X10053515Y-17294174D01*
X10053515Y-17294174D02*
X10053515Y-17341793D01*
X10053515Y-17341793D02*
X10043991Y-17379889D01*
X10043991Y-17379889D02*
X10034468Y-17398936D01*
X10034468Y-17398936D02*
X10024944Y-17408460D01*
X10024944Y-17408460D02*
X10005896Y-17417984D01*
X10005896Y-17417984D02*
X9986848Y-17417984D01*
X9986848Y-17417984D02*
X9967801Y-17408460D01*
X9967801Y-17408460D02*
X9958277Y-17398936D01*
X9958277Y-17398936D02*
X9948753Y-17379889D01*
X9948753Y-17379889D02*
X9939229Y-17341793D01*
X9939229Y-17341793D02*
X9939229Y-17294174D01*
X9939229Y-17294174D02*
X9948753Y-17256079D01*
X9948753Y-17256079D02*
X9958277Y-17237031D01*
X9958277Y-17237031D02*
X9967801Y-17227508D01*
X9967801Y-17227508D02*
X9986848Y-17217984D01*
X10234468Y-17217984D02*
X10139229Y-17217984D01*
X10139229Y-17217984D02*
X10129706Y-17313222D01*
X10129706Y-17313222D02*
X10139229Y-17303698D01*
X10139229Y-17303698D02*
X10158277Y-17294174D01*
X10158277Y-17294174D02*
X10205896Y-17294174D01*
X10205896Y-17294174D02*
X10224944Y-17303698D01*
X10224944Y-17303698D02*
X10234468Y-17313222D01*
X10234468Y-17313222D02*
X10243991Y-17332270D01*
X10243991Y-17332270D02*
X10243991Y-17379889D01*
X10243991Y-17379889D02*
X10234468Y-17398936D01*
X10234468Y-17398936D02*
X10224944Y-17408460D01*
X10224944Y-17408460D02*
X10205896Y-17417984D01*
X10205896Y-17417984D02*
X10158277Y-17417984D01*
X10158277Y-17417984D02*
X10139229Y-17408460D01*
X10139229Y-17408460D02*
X10129706Y-17398936D01*
X10424944Y-17217984D02*
X10329706Y-17217984D01*
X10329706Y-17217984D02*
X10320182Y-17313222D01*
X10320182Y-17313222D02*
X10329706Y-17303698D01*
X10329706Y-17303698D02*
X10348753Y-17294174D01*
X10348753Y-17294174D02*
X10396372Y-17294174D01*
X10396372Y-17294174D02*
X10415420Y-17303698D01*
X10415420Y-17303698D02*
X10424944Y-17313222D01*
X10424944Y-17313222D02*
X10434468Y-17332270D01*
X10434468Y-17332270D02*
X10434468Y-17379889D01*
X10434468Y-17379889D02*
X10424944Y-17398936D01*
X10424944Y-17398936D02*
X10415420Y-17408460D01*
X10415420Y-17408460D02*
X10396372Y-17417984D01*
X10396372Y-17417984D02*
X10348753Y-17417984D01*
X10348753Y-17417984D02*
X10329706Y-17408460D01*
X10329706Y-17408460D02*
X10320182Y-17398936D01*
X10624944Y-17417984D02*
X10510658Y-17417984D01*
X10567801Y-17417984D02*
X10567801Y-17217984D01*
X10567801Y-17217984D02*
X10548753Y-17246555D01*
X10548753Y-17246555D02*
X10529706Y-17265603D01*
X10529706Y-17265603D02*
X10510658Y-17275127D01*
X10701134Y-17217984D02*
X10701134Y-17256079D01*
X10777325Y-17217984D02*
X10777325Y-17256079D01*
X11072563Y-17494174D02*
X11063039Y-17484650D01*
X11063039Y-17484650D02*
X11043991Y-17456079D01*
X11043991Y-17456079D02*
X11034468Y-17437031D01*
X11034468Y-17437031D02*
X11024944Y-17408460D01*
X11024944Y-17408460D02*
X11015420Y-17360841D01*
X11015420Y-17360841D02*
X11015420Y-17322746D01*
X11015420Y-17322746D02*
X11024944Y-17275127D01*
X11024944Y-17275127D02*
X11034468Y-17246555D01*
X11034468Y-17246555D02*
X11043991Y-17227508D01*
X11043991Y-17227508D02*
X11063039Y-17198936D01*
X11063039Y-17198936D02*
X11072563Y-17189412D01*
X11253515Y-17417984D02*
X11139230Y-17417984D01*
X11196372Y-17417984D02*
X11196372Y-17217984D01*
X11196372Y-17217984D02*
X11177325Y-17246555D01*
X11177325Y-17246555D02*
X11158277Y-17265603D01*
X11158277Y-17265603D02*
X11139230Y-17275127D01*
X11329706Y-17237031D02*
X11339229Y-17227508D01*
X11339229Y-17227508D02*
X11358277Y-17217984D01*
X11358277Y-17217984D02*
X11405896Y-17217984D01*
X11405896Y-17217984D02*
X11424944Y-17227508D01*
X11424944Y-17227508D02*
X11434468Y-17237031D01*
X11434468Y-17237031D02*
X11443991Y-17256079D01*
X11443991Y-17256079D02*
X11443991Y-17275127D01*
X11443991Y-17275127D02*
X11434468Y-17303698D01*
X11434468Y-17303698D02*
X11320182Y-17417984D01*
X11320182Y-17417984D02*
X11443991Y-17417984D01*
X11682087Y-17417984D02*
X11682087Y-17217984D01*
X11767801Y-17417984D02*
X11767801Y-17313222D01*
X11767801Y-17313222D02*
X11758277Y-17294174D01*
X11758277Y-17294174D02*
X11739230Y-17284650D01*
X11739230Y-17284650D02*
X11710658Y-17284650D01*
X11710658Y-17284650D02*
X11691610Y-17294174D01*
X11691610Y-17294174D02*
X11682087Y-17303698D01*
X11891610Y-17417984D02*
X11872563Y-17408460D01*
X11872563Y-17408460D02*
X11863039Y-17398936D01*
X11863039Y-17398936D02*
X11853515Y-17379889D01*
X11853515Y-17379889D02*
X11853515Y-17322746D01*
X11853515Y-17322746D02*
X11863039Y-17303698D01*
X11863039Y-17303698D02*
X11872563Y-17294174D01*
X11872563Y-17294174D02*
X11891610Y-17284650D01*
X11891610Y-17284650D02*
X11920182Y-17284650D01*
X11920182Y-17284650D02*
X11939230Y-17294174D01*
X11939230Y-17294174D02*
X11948753Y-17303698D01*
X11948753Y-17303698D02*
X11958277Y-17322746D01*
X11958277Y-17322746D02*
X11958277Y-17379889D01*
X11958277Y-17379889D02*
X11948753Y-17398936D01*
X11948753Y-17398936D02*
X11939230Y-17408460D01*
X11939230Y-17408460D02*
X11920182Y-17417984D01*
X11920182Y-17417984D02*
X11891610Y-17417984D01*
X12072563Y-17417984D02*
X12053515Y-17408460D01*
X12053515Y-17408460D02*
X12043991Y-17389412D01*
X12043991Y-17389412D02*
X12043991Y-17217984D01*
X12224944Y-17408460D02*
X12205896Y-17417984D01*
X12205896Y-17417984D02*
X12167801Y-17417984D01*
X12167801Y-17417984D02*
X12148753Y-17408460D01*
X12148753Y-17408460D02*
X12139230Y-17389412D01*
X12139230Y-17389412D02*
X12139230Y-17313222D01*
X12139230Y-17313222D02*
X12148753Y-17294174D01*
X12148753Y-17294174D02*
X12167801Y-17284650D01*
X12167801Y-17284650D02*
X12205896Y-17284650D01*
X12205896Y-17284650D02*
X12224944Y-17294174D01*
X12224944Y-17294174D02*
X12234468Y-17313222D01*
X12234468Y-17313222D02*
X12234468Y-17332270D01*
X12234468Y-17332270D02*
X12139230Y-17351317D01*
X12310658Y-17408460D02*
X12329706Y-17417984D01*
X12329706Y-17417984D02*
X12367801Y-17417984D01*
X12367801Y-17417984D02*
X12386849Y-17408460D01*
X12386849Y-17408460D02*
X12396372Y-17389412D01*
X12396372Y-17389412D02*
X12396372Y-17379889D01*
X12396372Y-17379889D02*
X12386849Y-17360841D01*
X12386849Y-17360841D02*
X12367801Y-17351317D01*
X12367801Y-17351317D02*
X12339230Y-17351317D01*
X12339230Y-17351317D02*
X12320182Y-17341793D01*
X12320182Y-17341793D02*
X12310658Y-17322746D01*
X12310658Y-17322746D02*
X12310658Y-17313222D01*
X12310658Y-17313222D02*
X12320182Y-17294174D01*
X12320182Y-17294174D02*
X12339230Y-17284650D01*
X12339230Y-17284650D02*
X12367801Y-17284650D01*
X12367801Y-17284650D02*
X12386849Y-17294174D01*
X12463039Y-17494174D02*
X12472563Y-17484650D01*
X12472563Y-17484650D02*
X12491611Y-17456079D01*
X12491611Y-17456079D02*
X12501134Y-17437031D01*
X12501134Y-17437031D02*
X12510658Y-17408460D01*
X12510658Y-17408460D02*
X12520182Y-17360841D01*
X12520182Y-17360841D02*
X12520182Y-17322746D01*
X12520182Y-17322746D02*
X12510658Y-17275127D01*
X12510658Y-17275127D02*
X12501134Y-17246555D01*
X12501134Y-17246555D02*
X12491611Y-17227508D01*
X12491611Y-17227508D02*
X12472563Y-17198936D01*
X12472563Y-17198936D02*
X12463039Y-17189412D01*
D17*
X7345500Y-17514500D02*
X7497500Y-17666500D01*
X7497500Y-17514500D02*
X7345500Y-17666500D01*
X7475241Y-17644241D02*
X7475241Y-17536759D01*
X7367759Y-17536759D01*
X7367759Y-17644241D01*
X7475241Y-17644241D01*
D11*
X7863039Y-17681984D02*
X7748753Y-17681984D01*
X7805896Y-17681984D02*
X7805896Y-17481984D01*
X7805896Y-17481984D02*
X7786848Y-17510555D01*
X7786848Y-17510555D02*
X7767801Y-17529603D01*
X7767801Y-17529603D02*
X7748753Y-17539127D01*
X7948753Y-17662936D02*
X7958277Y-17672460D01*
X7958277Y-17672460D02*
X7948753Y-17681984D01*
X7948753Y-17681984D02*
X7939229Y-17672460D01*
X7939229Y-17672460D02*
X7948753Y-17662936D01*
X7948753Y-17662936D02*
X7948753Y-17681984D01*
X8139229Y-17481984D02*
X8043991Y-17481984D01*
X8043991Y-17481984D02*
X8034467Y-17577222D01*
X8034467Y-17577222D02*
X8043991Y-17567698D01*
X8043991Y-17567698D02*
X8063039Y-17558174D01*
X8063039Y-17558174D02*
X8110658Y-17558174D01*
X8110658Y-17558174D02*
X8129705Y-17567698D01*
X8129705Y-17567698D02*
X8139229Y-17577222D01*
X8139229Y-17577222D02*
X8148753Y-17596270D01*
X8148753Y-17596270D02*
X8148753Y-17643889D01*
X8148753Y-17643889D02*
X8139229Y-17662936D01*
X8139229Y-17662936D02*
X8129705Y-17672460D01*
X8129705Y-17672460D02*
X8110658Y-17681984D01*
X8110658Y-17681984D02*
X8063039Y-17681984D01*
X8063039Y-17681984D02*
X8043991Y-17672460D01*
X8043991Y-17672460D02*
X8034467Y-17662936D01*
X8224943Y-17501031D02*
X8234467Y-17491508D01*
X8234467Y-17491508D02*
X8253515Y-17481984D01*
X8253515Y-17481984D02*
X8301134Y-17481984D01*
X8301134Y-17481984D02*
X8320182Y-17491508D01*
X8320182Y-17491508D02*
X8329705Y-17501031D01*
X8329705Y-17501031D02*
X8339229Y-17520079D01*
X8339229Y-17520079D02*
X8339229Y-17539127D01*
X8339229Y-17539127D02*
X8329705Y-17567698D01*
X8329705Y-17567698D02*
X8215420Y-17681984D01*
X8215420Y-17681984D02*
X8339229Y-17681984D01*
X8463039Y-17481984D02*
X8482086Y-17481984D01*
X8482086Y-17481984D02*
X8501134Y-17491508D01*
X8501134Y-17491508D02*
X8510658Y-17501031D01*
X8510658Y-17501031D02*
X8520182Y-17520079D01*
X8520182Y-17520079D02*
X8529705Y-17558174D01*
X8529705Y-17558174D02*
X8529705Y-17605793D01*
X8529705Y-17605793D02*
X8520182Y-17643889D01*
X8520182Y-17643889D02*
X8510658Y-17662936D01*
X8510658Y-17662936D02*
X8501134Y-17672460D01*
X8501134Y-17672460D02*
X8482086Y-17681984D01*
X8482086Y-17681984D02*
X8463039Y-17681984D01*
X8463039Y-17681984D02*
X8443991Y-17672460D01*
X8443991Y-17672460D02*
X8434467Y-17662936D01*
X8434467Y-17662936D02*
X8424944Y-17643889D01*
X8424944Y-17643889D02*
X8415420Y-17605793D01*
X8415420Y-17605793D02*
X8415420Y-17558174D01*
X8415420Y-17558174D02*
X8424944Y-17520079D01*
X8424944Y-17520079D02*
X8434467Y-17501031D01*
X8434467Y-17501031D02*
X8443991Y-17491508D01*
X8443991Y-17491508D02*
X8463039Y-17481984D01*
X8615420Y-17681984D02*
X8615420Y-17548650D01*
X8615420Y-17567698D02*
X8624944Y-17558174D01*
X8624944Y-17558174D02*
X8643991Y-17548650D01*
X8643991Y-17548650D02*
X8672563Y-17548650D01*
X8672563Y-17548650D02*
X8691610Y-17558174D01*
X8691610Y-17558174D02*
X8701134Y-17577222D01*
X8701134Y-17577222D02*
X8701134Y-17681984D01*
X8701134Y-17577222D02*
X8710658Y-17558174D01*
X8710658Y-17558174D02*
X8729705Y-17548650D01*
X8729705Y-17548650D02*
X8758277Y-17548650D01*
X8758277Y-17548650D02*
X8777325Y-17558174D01*
X8777325Y-17558174D02*
X8786848Y-17577222D01*
X8786848Y-17577222D02*
X8786848Y-17681984D01*
X8882086Y-17681984D02*
X8882086Y-17548650D01*
X8882086Y-17567698D02*
X8891610Y-17558174D01*
X8891610Y-17558174D02*
X8910658Y-17548650D01*
X8910658Y-17548650D02*
X8939229Y-17548650D01*
X8939229Y-17548650D02*
X8958277Y-17558174D01*
X8958277Y-17558174D02*
X8967801Y-17577222D01*
X8967801Y-17577222D02*
X8967801Y-17681984D01*
X8967801Y-17577222D02*
X8977325Y-17558174D01*
X8977325Y-17558174D02*
X8996372Y-17548650D01*
X8996372Y-17548650D02*
X9024944Y-17548650D01*
X9024944Y-17548650D02*
X9043991Y-17558174D01*
X9043991Y-17558174D02*
X9053515Y-17577222D01*
X9053515Y-17577222D02*
X9053515Y-17681984D01*
X9443991Y-17472460D02*
X9272563Y-17729603D01*
X9701134Y-17481984D02*
X9720182Y-17481984D01*
X9720182Y-17481984D02*
X9739229Y-17491508D01*
X9739229Y-17491508D02*
X9748753Y-17501031D01*
X9748753Y-17501031D02*
X9758277Y-17520079D01*
X9758277Y-17520079D02*
X9767801Y-17558174D01*
X9767801Y-17558174D02*
X9767801Y-17605793D01*
X9767801Y-17605793D02*
X9758277Y-17643889D01*
X9758277Y-17643889D02*
X9748753Y-17662936D01*
X9748753Y-17662936D02*
X9739229Y-17672460D01*
X9739229Y-17672460D02*
X9720182Y-17681984D01*
X9720182Y-17681984D02*
X9701134Y-17681984D01*
X9701134Y-17681984D02*
X9682087Y-17672460D01*
X9682087Y-17672460D02*
X9672563Y-17662936D01*
X9672563Y-17662936D02*
X9663039Y-17643889D01*
X9663039Y-17643889D02*
X9653515Y-17605793D01*
X9653515Y-17605793D02*
X9653515Y-17558174D01*
X9653515Y-17558174D02*
X9663039Y-17520079D01*
X9663039Y-17520079D02*
X9672563Y-17501031D01*
X9672563Y-17501031D02*
X9682087Y-17491508D01*
X9682087Y-17491508D02*
X9701134Y-17481984D01*
X9853515Y-17662936D02*
X9863039Y-17672460D01*
X9863039Y-17672460D02*
X9853515Y-17681984D01*
X9853515Y-17681984D02*
X9843991Y-17672460D01*
X9843991Y-17672460D02*
X9853515Y-17662936D01*
X9853515Y-17662936D02*
X9853515Y-17681984D01*
X9986848Y-17481984D02*
X10005896Y-17481984D01*
X10005896Y-17481984D02*
X10024944Y-17491508D01*
X10024944Y-17491508D02*
X10034468Y-17501031D01*
X10034468Y-17501031D02*
X10043991Y-17520079D01*
X10043991Y-17520079D02*
X10053515Y-17558174D01*
X10053515Y-17558174D02*
X10053515Y-17605793D01*
X10053515Y-17605793D02*
X10043991Y-17643889D01*
X10043991Y-17643889D02*
X10034468Y-17662936D01*
X10034468Y-17662936D02*
X10024944Y-17672460D01*
X10024944Y-17672460D02*
X10005896Y-17681984D01*
X10005896Y-17681984D02*
X9986848Y-17681984D01*
X9986848Y-17681984D02*
X9967801Y-17672460D01*
X9967801Y-17672460D02*
X9958277Y-17662936D01*
X9958277Y-17662936D02*
X9948753Y-17643889D01*
X9948753Y-17643889D02*
X9939229Y-17605793D01*
X9939229Y-17605793D02*
X9939229Y-17558174D01*
X9939229Y-17558174D02*
X9948753Y-17520079D01*
X9948753Y-17520079D02*
X9958277Y-17501031D01*
X9958277Y-17501031D02*
X9967801Y-17491508D01*
X9967801Y-17491508D02*
X9986848Y-17481984D01*
X10234468Y-17481984D02*
X10139229Y-17481984D01*
X10139229Y-17481984D02*
X10129706Y-17577222D01*
X10129706Y-17577222D02*
X10139229Y-17567698D01*
X10139229Y-17567698D02*
X10158277Y-17558174D01*
X10158277Y-17558174D02*
X10205896Y-17558174D01*
X10205896Y-17558174D02*
X10224944Y-17567698D01*
X10224944Y-17567698D02*
X10234468Y-17577222D01*
X10234468Y-17577222D02*
X10243991Y-17596270D01*
X10243991Y-17596270D02*
X10243991Y-17643889D01*
X10243991Y-17643889D02*
X10234468Y-17662936D01*
X10234468Y-17662936D02*
X10224944Y-17672460D01*
X10224944Y-17672460D02*
X10205896Y-17681984D01*
X10205896Y-17681984D02*
X10158277Y-17681984D01*
X10158277Y-17681984D02*
X10139229Y-17672460D01*
X10139229Y-17672460D02*
X10129706Y-17662936D01*
X10339229Y-17681984D02*
X10377325Y-17681984D01*
X10377325Y-17681984D02*
X10396372Y-17672460D01*
X10396372Y-17672460D02*
X10405896Y-17662936D01*
X10405896Y-17662936D02*
X10424944Y-17634365D01*
X10424944Y-17634365D02*
X10434468Y-17596270D01*
X10434468Y-17596270D02*
X10434468Y-17520079D01*
X10434468Y-17520079D02*
X10424944Y-17501031D01*
X10424944Y-17501031D02*
X10415420Y-17491508D01*
X10415420Y-17491508D02*
X10396372Y-17481984D01*
X10396372Y-17481984D02*
X10358277Y-17481984D01*
X10358277Y-17481984D02*
X10339229Y-17491508D01*
X10339229Y-17491508D02*
X10329706Y-17501031D01*
X10329706Y-17501031D02*
X10320182Y-17520079D01*
X10320182Y-17520079D02*
X10320182Y-17567698D01*
X10320182Y-17567698D02*
X10329706Y-17586746D01*
X10329706Y-17586746D02*
X10339229Y-17596270D01*
X10339229Y-17596270D02*
X10358277Y-17605793D01*
X10358277Y-17605793D02*
X10396372Y-17605793D01*
X10396372Y-17605793D02*
X10415420Y-17596270D01*
X10415420Y-17596270D02*
X10424944Y-17586746D01*
X10424944Y-17586746D02*
X10434468Y-17567698D01*
X10548753Y-17567698D02*
X10529706Y-17558174D01*
X10529706Y-17558174D02*
X10520182Y-17548650D01*
X10520182Y-17548650D02*
X10510658Y-17529603D01*
X10510658Y-17529603D02*
X10510658Y-17520079D01*
X10510658Y-17520079D02*
X10520182Y-17501031D01*
X10520182Y-17501031D02*
X10529706Y-17491508D01*
X10529706Y-17491508D02*
X10548753Y-17481984D01*
X10548753Y-17481984D02*
X10586849Y-17481984D01*
X10586849Y-17481984D02*
X10605896Y-17491508D01*
X10605896Y-17491508D02*
X10615420Y-17501031D01*
X10615420Y-17501031D02*
X10624944Y-17520079D01*
X10624944Y-17520079D02*
X10624944Y-17529603D01*
X10624944Y-17529603D02*
X10615420Y-17548650D01*
X10615420Y-17548650D02*
X10605896Y-17558174D01*
X10605896Y-17558174D02*
X10586849Y-17567698D01*
X10586849Y-17567698D02*
X10548753Y-17567698D01*
X10548753Y-17567698D02*
X10529706Y-17577222D01*
X10529706Y-17577222D02*
X10520182Y-17586746D01*
X10520182Y-17586746D02*
X10510658Y-17605793D01*
X10510658Y-17605793D02*
X10510658Y-17643889D01*
X10510658Y-17643889D02*
X10520182Y-17662936D01*
X10520182Y-17662936D02*
X10529706Y-17672460D01*
X10529706Y-17672460D02*
X10548753Y-17681984D01*
X10548753Y-17681984D02*
X10586849Y-17681984D01*
X10586849Y-17681984D02*
X10605896Y-17672460D01*
X10605896Y-17672460D02*
X10615420Y-17662936D01*
X10615420Y-17662936D02*
X10624944Y-17643889D01*
X10624944Y-17643889D02*
X10624944Y-17605793D01*
X10624944Y-17605793D02*
X10615420Y-17586746D01*
X10615420Y-17586746D02*
X10605896Y-17577222D01*
X10605896Y-17577222D02*
X10586849Y-17567698D01*
X10701134Y-17481984D02*
X10701134Y-17520079D01*
X10777325Y-17481984D02*
X10777325Y-17520079D01*
X11072563Y-17758174D02*
X11063039Y-17748650D01*
X11063039Y-17748650D02*
X11043991Y-17720079D01*
X11043991Y-17720079D02*
X11034468Y-17701031D01*
X11034468Y-17701031D02*
X11024944Y-17672460D01*
X11024944Y-17672460D02*
X11015420Y-17624841D01*
X11015420Y-17624841D02*
X11015420Y-17586746D01*
X11015420Y-17586746D02*
X11024944Y-17539127D01*
X11024944Y-17539127D02*
X11034468Y-17510555D01*
X11034468Y-17510555D02*
X11043991Y-17491508D01*
X11043991Y-17491508D02*
X11063039Y-17462936D01*
X11063039Y-17462936D02*
X11072563Y-17453412D01*
X11129706Y-17481984D02*
X11253515Y-17481984D01*
X11253515Y-17481984D02*
X11186848Y-17558174D01*
X11186848Y-17558174D02*
X11215420Y-17558174D01*
X11215420Y-17558174D02*
X11234468Y-17567698D01*
X11234468Y-17567698D02*
X11243991Y-17577222D01*
X11243991Y-17577222D02*
X11253515Y-17596270D01*
X11253515Y-17596270D02*
X11253515Y-17643889D01*
X11253515Y-17643889D02*
X11243991Y-17662936D01*
X11243991Y-17662936D02*
X11234468Y-17672460D01*
X11234468Y-17672460D02*
X11215420Y-17681984D01*
X11215420Y-17681984D02*
X11158277Y-17681984D01*
X11158277Y-17681984D02*
X11139230Y-17672460D01*
X11139230Y-17672460D02*
X11129706Y-17662936D01*
X11491610Y-17681984D02*
X11491610Y-17481984D01*
X11577325Y-17681984D02*
X11577325Y-17577222D01*
X11577325Y-17577222D02*
X11567801Y-17558174D01*
X11567801Y-17558174D02*
X11548753Y-17548650D01*
X11548753Y-17548650D02*
X11520182Y-17548650D01*
X11520182Y-17548650D02*
X11501134Y-17558174D01*
X11501134Y-17558174D02*
X11491610Y-17567698D01*
X11701134Y-17681984D02*
X11682087Y-17672460D01*
X11682087Y-17672460D02*
X11672563Y-17662936D01*
X11672563Y-17662936D02*
X11663039Y-17643889D01*
X11663039Y-17643889D02*
X11663039Y-17586746D01*
X11663039Y-17586746D02*
X11672563Y-17567698D01*
X11672563Y-17567698D02*
X11682087Y-17558174D01*
X11682087Y-17558174D02*
X11701134Y-17548650D01*
X11701134Y-17548650D02*
X11729706Y-17548650D01*
X11729706Y-17548650D02*
X11748753Y-17558174D01*
X11748753Y-17558174D02*
X11758277Y-17567698D01*
X11758277Y-17567698D02*
X11767801Y-17586746D01*
X11767801Y-17586746D02*
X11767801Y-17643889D01*
X11767801Y-17643889D02*
X11758277Y-17662936D01*
X11758277Y-17662936D02*
X11748753Y-17672460D01*
X11748753Y-17672460D02*
X11729706Y-17681984D01*
X11729706Y-17681984D02*
X11701134Y-17681984D01*
X11882087Y-17681984D02*
X11863039Y-17672460D01*
X11863039Y-17672460D02*
X11853515Y-17653412D01*
X11853515Y-17653412D02*
X11853515Y-17481984D01*
X12034468Y-17672460D02*
X12015420Y-17681984D01*
X12015420Y-17681984D02*
X11977325Y-17681984D01*
X11977325Y-17681984D02*
X11958277Y-17672460D01*
X11958277Y-17672460D02*
X11948753Y-17653412D01*
X11948753Y-17653412D02*
X11948753Y-17577222D01*
X11948753Y-17577222D02*
X11958277Y-17558174D01*
X11958277Y-17558174D02*
X11977325Y-17548650D01*
X11977325Y-17548650D02*
X12015420Y-17548650D01*
X12015420Y-17548650D02*
X12034468Y-17558174D01*
X12034468Y-17558174D02*
X12043991Y-17577222D01*
X12043991Y-17577222D02*
X12043991Y-17596270D01*
X12043991Y-17596270D02*
X11948753Y-17615317D01*
X12120182Y-17672460D02*
X12139230Y-17681984D01*
X12139230Y-17681984D02*
X12177325Y-17681984D01*
X12177325Y-17681984D02*
X12196372Y-17672460D01*
X12196372Y-17672460D02*
X12205896Y-17653412D01*
X12205896Y-17653412D02*
X12205896Y-17643889D01*
X12205896Y-17643889D02*
X12196372Y-17624841D01*
X12196372Y-17624841D02*
X12177325Y-17615317D01*
X12177325Y-17615317D02*
X12148753Y-17615317D01*
X12148753Y-17615317D02*
X12129706Y-17605793D01*
X12129706Y-17605793D02*
X12120182Y-17586746D01*
X12120182Y-17586746D02*
X12120182Y-17577222D01*
X12120182Y-17577222D02*
X12129706Y-17558174D01*
X12129706Y-17558174D02*
X12148753Y-17548650D01*
X12148753Y-17548650D02*
X12177325Y-17548650D01*
X12177325Y-17548650D02*
X12196372Y-17558174D01*
X12272563Y-17758174D02*
X12282087Y-17748650D01*
X12282087Y-17748650D02*
X12301134Y-17720079D01*
X12301134Y-17720079D02*
X12310658Y-17701031D01*
X12310658Y-17701031D02*
X12320182Y-17672460D01*
X12320182Y-17672460D02*
X12329706Y-17624841D01*
X12329706Y-17624841D02*
X12329706Y-17586746D01*
X12329706Y-17586746D02*
X12320182Y-17539127D01*
X12320182Y-17539127D02*
X12310658Y-17510555D01*
X12310658Y-17510555D02*
X12301134Y-17491508D01*
X12301134Y-17491508D02*
X12282087Y-17462936D01*
X12282087Y-17462936D02*
X12272563Y-17453412D01*
D18*
X7327500Y-17777500D02*
X7497500Y-17947500D01*
X7497500Y-17777500D02*
X7327500Y-17947500D01*
X7412500Y-17947500D02*
X7497500Y-17862500D01*
X7412500Y-17777500D01*
X7327500Y-17862500D01*
X7412500Y-17947500D01*
D11*
X7863039Y-17953984D02*
X7748753Y-17953984D01*
X7805896Y-17953984D02*
X7805896Y-17753984D01*
X7805896Y-17753984D02*
X7786848Y-17782555D01*
X7786848Y-17782555D02*
X7767801Y-17801603D01*
X7767801Y-17801603D02*
X7748753Y-17811127D01*
X7948753Y-17934936D02*
X7958277Y-17944460D01*
X7958277Y-17944460D02*
X7948753Y-17953984D01*
X7948753Y-17953984D02*
X7939229Y-17944460D01*
X7939229Y-17944460D02*
X7948753Y-17934936D01*
X7948753Y-17934936D02*
X7948753Y-17953984D01*
X8024943Y-17753984D02*
X8158277Y-17753984D01*
X8158277Y-17753984D02*
X8072562Y-17953984D01*
X8272562Y-17753984D02*
X8291610Y-17753984D01*
X8291610Y-17753984D02*
X8310658Y-17763508D01*
X8310658Y-17763508D02*
X8320182Y-17773031D01*
X8320182Y-17773031D02*
X8329705Y-17792079D01*
X8329705Y-17792079D02*
X8339229Y-17830174D01*
X8339229Y-17830174D02*
X8339229Y-17877793D01*
X8339229Y-17877793D02*
X8329705Y-17915889D01*
X8329705Y-17915889D02*
X8320182Y-17934936D01*
X8320182Y-17934936D02*
X8310658Y-17944460D01*
X8310658Y-17944460D02*
X8291610Y-17953984D01*
X8291610Y-17953984D02*
X8272562Y-17953984D01*
X8272562Y-17953984D02*
X8253515Y-17944460D01*
X8253515Y-17944460D02*
X8243991Y-17934936D01*
X8243991Y-17934936D02*
X8234467Y-17915889D01*
X8234467Y-17915889D02*
X8224943Y-17877793D01*
X8224943Y-17877793D02*
X8224943Y-17830174D01*
X8224943Y-17830174D02*
X8234467Y-17792079D01*
X8234467Y-17792079D02*
X8243991Y-17773031D01*
X8243991Y-17773031D02*
X8253515Y-17763508D01*
X8253515Y-17763508D02*
X8272562Y-17753984D01*
X8463039Y-17753984D02*
X8482086Y-17753984D01*
X8482086Y-17753984D02*
X8501134Y-17763508D01*
X8501134Y-17763508D02*
X8510658Y-17773031D01*
X8510658Y-17773031D02*
X8520182Y-17792079D01*
X8520182Y-17792079D02*
X8529705Y-17830174D01*
X8529705Y-17830174D02*
X8529705Y-17877793D01*
X8529705Y-17877793D02*
X8520182Y-17915889D01*
X8520182Y-17915889D02*
X8510658Y-17934936D01*
X8510658Y-17934936D02*
X8501134Y-17944460D01*
X8501134Y-17944460D02*
X8482086Y-17953984D01*
X8482086Y-17953984D02*
X8463039Y-17953984D01*
X8463039Y-17953984D02*
X8443991Y-17944460D01*
X8443991Y-17944460D02*
X8434467Y-17934936D01*
X8434467Y-17934936D02*
X8424944Y-17915889D01*
X8424944Y-17915889D02*
X8415420Y-17877793D01*
X8415420Y-17877793D02*
X8415420Y-17830174D01*
X8415420Y-17830174D02*
X8424944Y-17792079D01*
X8424944Y-17792079D02*
X8434467Y-17773031D01*
X8434467Y-17773031D02*
X8443991Y-17763508D01*
X8443991Y-17763508D02*
X8463039Y-17753984D01*
X8615420Y-17953984D02*
X8615420Y-17820650D01*
X8615420Y-17839698D02*
X8624944Y-17830174D01*
X8624944Y-17830174D02*
X8643991Y-17820650D01*
X8643991Y-17820650D02*
X8672563Y-17820650D01*
X8672563Y-17820650D02*
X8691610Y-17830174D01*
X8691610Y-17830174D02*
X8701134Y-17849222D01*
X8701134Y-17849222D02*
X8701134Y-17953984D01*
X8701134Y-17849222D02*
X8710658Y-17830174D01*
X8710658Y-17830174D02*
X8729705Y-17820650D01*
X8729705Y-17820650D02*
X8758277Y-17820650D01*
X8758277Y-17820650D02*
X8777325Y-17830174D01*
X8777325Y-17830174D02*
X8786848Y-17849222D01*
X8786848Y-17849222D02*
X8786848Y-17953984D01*
X8882086Y-17953984D02*
X8882086Y-17820650D01*
X8882086Y-17839698D02*
X8891610Y-17830174D01*
X8891610Y-17830174D02*
X8910658Y-17820650D01*
X8910658Y-17820650D02*
X8939229Y-17820650D01*
X8939229Y-17820650D02*
X8958277Y-17830174D01*
X8958277Y-17830174D02*
X8967801Y-17849222D01*
X8967801Y-17849222D02*
X8967801Y-17953984D01*
X8967801Y-17849222D02*
X8977325Y-17830174D01*
X8977325Y-17830174D02*
X8996372Y-17820650D01*
X8996372Y-17820650D02*
X9024944Y-17820650D01*
X9024944Y-17820650D02*
X9043991Y-17830174D01*
X9043991Y-17830174D02*
X9053515Y-17849222D01*
X9053515Y-17849222D02*
X9053515Y-17953984D01*
X9443991Y-17744460D02*
X9272563Y-18001603D01*
X9701134Y-17753984D02*
X9720182Y-17753984D01*
X9720182Y-17753984D02*
X9739229Y-17763508D01*
X9739229Y-17763508D02*
X9748753Y-17773031D01*
X9748753Y-17773031D02*
X9758277Y-17792079D01*
X9758277Y-17792079D02*
X9767801Y-17830174D01*
X9767801Y-17830174D02*
X9767801Y-17877793D01*
X9767801Y-17877793D02*
X9758277Y-17915889D01*
X9758277Y-17915889D02*
X9748753Y-17934936D01*
X9748753Y-17934936D02*
X9739229Y-17944460D01*
X9739229Y-17944460D02*
X9720182Y-17953984D01*
X9720182Y-17953984D02*
X9701134Y-17953984D01*
X9701134Y-17953984D02*
X9682087Y-17944460D01*
X9682087Y-17944460D02*
X9672563Y-17934936D01*
X9672563Y-17934936D02*
X9663039Y-17915889D01*
X9663039Y-17915889D02*
X9653515Y-17877793D01*
X9653515Y-17877793D02*
X9653515Y-17830174D01*
X9653515Y-17830174D02*
X9663039Y-17792079D01*
X9663039Y-17792079D02*
X9672563Y-17773031D01*
X9672563Y-17773031D02*
X9682087Y-17763508D01*
X9682087Y-17763508D02*
X9701134Y-17753984D01*
X9853515Y-17934936D02*
X9863039Y-17944460D01*
X9863039Y-17944460D02*
X9853515Y-17953984D01*
X9853515Y-17953984D02*
X9843991Y-17944460D01*
X9843991Y-17944460D02*
X9853515Y-17934936D01*
X9853515Y-17934936D02*
X9853515Y-17953984D01*
X9986848Y-17753984D02*
X10005896Y-17753984D01*
X10005896Y-17753984D02*
X10024944Y-17763508D01*
X10024944Y-17763508D02*
X10034468Y-17773031D01*
X10034468Y-17773031D02*
X10043991Y-17792079D01*
X10043991Y-17792079D02*
X10053515Y-17830174D01*
X10053515Y-17830174D02*
X10053515Y-17877793D01*
X10053515Y-17877793D02*
X10043991Y-17915889D01*
X10043991Y-17915889D02*
X10034468Y-17934936D01*
X10034468Y-17934936D02*
X10024944Y-17944460D01*
X10024944Y-17944460D02*
X10005896Y-17953984D01*
X10005896Y-17953984D02*
X9986848Y-17953984D01*
X9986848Y-17953984D02*
X9967801Y-17944460D01*
X9967801Y-17944460D02*
X9958277Y-17934936D01*
X9958277Y-17934936D02*
X9948753Y-17915889D01*
X9948753Y-17915889D02*
X9939229Y-17877793D01*
X9939229Y-17877793D02*
X9939229Y-17830174D01*
X9939229Y-17830174D02*
X9948753Y-17792079D01*
X9948753Y-17792079D02*
X9958277Y-17773031D01*
X9958277Y-17773031D02*
X9967801Y-17763508D01*
X9967801Y-17763508D02*
X9986848Y-17753984D01*
X10224944Y-17753984D02*
X10186848Y-17753984D01*
X10186848Y-17753984D02*
X10167801Y-17763508D01*
X10167801Y-17763508D02*
X10158277Y-17773031D01*
X10158277Y-17773031D02*
X10139229Y-17801603D01*
X10139229Y-17801603D02*
X10129706Y-17839698D01*
X10129706Y-17839698D02*
X10129706Y-17915889D01*
X10129706Y-17915889D02*
X10139229Y-17934936D01*
X10139229Y-17934936D02*
X10148753Y-17944460D01*
X10148753Y-17944460D02*
X10167801Y-17953984D01*
X10167801Y-17953984D02*
X10205896Y-17953984D01*
X10205896Y-17953984D02*
X10224944Y-17944460D01*
X10224944Y-17944460D02*
X10234468Y-17934936D01*
X10234468Y-17934936D02*
X10243991Y-17915889D01*
X10243991Y-17915889D02*
X10243991Y-17868270D01*
X10243991Y-17868270D02*
X10234468Y-17849222D01*
X10234468Y-17849222D02*
X10224944Y-17839698D01*
X10224944Y-17839698D02*
X10205896Y-17830174D01*
X10205896Y-17830174D02*
X10167801Y-17830174D01*
X10167801Y-17830174D02*
X10148753Y-17839698D01*
X10148753Y-17839698D02*
X10139229Y-17849222D01*
X10139229Y-17849222D02*
X10129706Y-17868270D01*
X10415420Y-17753984D02*
X10377325Y-17753984D01*
X10377325Y-17753984D02*
X10358277Y-17763508D01*
X10358277Y-17763508D02*
X10348753Y-17773031D01*
X10348753Y-17773031D02*
X10329706Y-17801603D01*
X10329706Y-17801603D02*
X10320182Y-17839698D01*
X10320182Y-17839698D02*
X10320182Y-17915889D01*
X10320182Y-17915889D02*
X10329706Y-17934936D01*
X10329706Y-17934936D02*
X10339229Y-17944460D01*
X10339229Y-17944460D02*
X10358277Y-17953984D01*
X10358277Y-17953984D02*
X10396372Y-17953984D01*
X10396372Y-17953984D02*
X10415420Y-17944460D01*
X10415420Y-17944460D02*
X10424944Y-17934936D01*
X10424944Y-17934936D02*
X10434468Y-17915889D01*
X10434468Y-17915889D02*
X10434468Y-17868270D01*
X10434468Y-17868270D02*
X10424944Y-17849222D01*
X10424944Y-17849222D02*
X10415420Y-17839698D01*
X10415420Y-17839698D02*
X10396372Y-17830174D01*
X10396372Y-17830174D02*
X10358277Y-17830174D01*
X10358277Y-17830174D02*
X10339229Y-17839698D01*
X10339229Y-17839698D02*
X10329706Y-17849222D01*
X10329706Y-17849222D02*
X10320182Y-17868270D01*
X10529706Y-17953984D02*
X10567801Y-17953984D01*
X10567801Y-17953984D02*
X10586849Y-17944460D01*
X10586849Y-17944460D02*
X10596372Y-17934936D01*
X10596372Y-17934936D02*
X10615420Y-17906365D01*
X10615420Y-17906365D02*
X10624944Y-17868270D01*
X10624944Y-17868270D02*
X10624944Y-17792079D01*
X10624944Y-17792079D02*
X10615420Y-17773031D01*
X10615420Y-17773031D02*
X10605896Y-17763508D01*
X10605896Y-17763508D02*
X10586849Y-17753984D01*
X10586849Y-17753984D02*
X10548753Y-17753984D01*
X10548753Y-17753984D02*
X10529706Y-17763508D01*
X10529706Y-17763508D02*
X10520182Y-17773031D01*
X10520182Y-17773031D02*
X10510658Y-17792079D01*
X10510658Y-17792079D02*
X10510658Y-17839698D01*
X10510658Y-17839698D02*
X10520182Y-17858746D01*
X10520182Y-17858746D02*
X10529706Y-17868270D01*
X10529706Y-17868270D02*
X10548753Y-17877793D01*
X10548753Y-17877793D02*
X10586849Y-17877793D01*
X10586849Y-17877793D02*
X10605896Y-17868270D01*
X10605896Y-17868270D02*
X10615420Y-17858746D01*
X10615420Y-17858746D02*
X10624944Y-17839698D01*
X10701134Y-17753984D02*
X10701134Y-17792079D01*
X10777325Y-17753984D02*
X10777325Y-17792079D01*
X11072563Y-18030174D02*
X11063039Y-18020650D01*
X11063039Y-18020650D02*
X11043991Y-17992079D01*
X11043991Y-17992079D02*
X11034468Y-17973031D01*
X11034468Y-17973031D02*
X11024944Y-17944460D01*
X11024944Y-17944460D02*
X11015420Y-17896841D01*
X11015420Y-17896841D02*
X11015420Y-17858746D01*
X11015420Y-17858746D02*
X11024944Y-17811127D01*
X11024944Y-17811127D02*
X11034468Y-17782555D01*
X11034468Y-17782555D02*
X11043991Y-17763508D01*
X11043991Y-17763508D02*
X11063039Y-17734936D01*
X11063039Y-17734936D02*
X11072563Y-17725412D01*
X11129706Y-17753984D02*
X11253515Y-17753984D01*
X11253515Y-17753984D02*
X11186848Y-17830174D01*
X11186848Y-17830174D02*
X11215420Y-17830174D01*
X11215420Y-17830174D02*
X11234468Y-17839698D01*
X11234468Y-17839698D02*
X11243991Y-17849222D01*
X11243991Y-17849222D02*
X11253515Y-17868270D01*
X11253515Y-17868270D02*
X11253515Y-17915889D01*
X11253515Y-17915889D02*
X11243991Y-17934936D01*
X11243991Y-17934936D02*
X11234468Y-17944460D01*
X11234468Y-17944460D02*
X11215420Y-17953984D01*
X11215420Y-17953984D02*
X11158277Y-17953984D01*
X11158277Y-17953984D02*
X11139230Y-17944460D01*
X11139230Y-17944460D02*
X11129706Y-17934936D01*
X11491610Y-17953984D02*
X11491610Y-17753984D01*
X11577325Y-17953984D02*
X11577325Y-17849222D01*
X11577325Y-17849222D02*
X11567801Y-17830174D01*
X11567801Y-17830174D02*
X11548753Y-17820650D01*
X11548753Y-17820650D02*
X11520182Y-17820650D01*
X11520182Y-17820650D02*
X11501134Y-17830174D01*
X11501134Y-17830174D02*
X11491610Y-17839698D01*
X11701134Y-17953984D02*
X11682087Y-17944460D01*
X11682087Y-17944460D02*
X11672563Y-17934936D01*
X11672563Y-17934936D02*
X11663039Y-17915889D01*
X11663039Y-17915889D02*
X11663039Y-17858746D01*
X11663039Y-17858746D02*
X11672563Y-17839698D01*
X11672563Y-17839698D02*
X11682087Y-17830174D01*
X11682087Y-17830174D02*
X11701134Y-17820650D01*
X11701134Y-17820650D02*
X11729706Y-17820650D01*
X11729706Y-17820650D02*
X11748753Y-17830174D01*
X11748753Y-17830174D02*
X11758277Y-17839698D01*
X11758277Y-17839698D02*
X11767801Y-17858746D01*
X11767801Y-17858746D02*
X11767801Y-17915889D01*
X11767801Y-17915889D02*
X11758277Y-17934936D01*
X11758277Y-17934936D02*
X11748753Y-17944460D01*
X11748753Y-17944460D02*
X11729706Y-17953984D01*
X11729706Y-17953984D02*
X11701134Y-17953984D01*
X11882087Y-17953984D02*
X11863039Y-17944460D01*
X11863039Y-17944460D02*
X11853515Y-17925412D01*
X11853515Y-17925412D02*
X11853515Y-17753984D01*
X12034468Y-17944460D02*
X12015420Y-17953984D01*
X12015420Y-17953984D02*
X11977325Y-17953984D01*
X11977325Y-17953984D02*
X11958277Y-17944460D01*
X11958277Y-17944460D02*
X11948753Y-17925412D01*
X11948753Y-17925412D02*
X11948753Y-17849222D01*
X11948753Y-17849222D02*
X11958277Y-17830174D01*
X11958277Y-17830174D02*
X11977325Y-17820650D01*
X11977325Y-17820650D02*
X12015420Y-17820650D01*
X12015420Y-17820650D02*
X12034468Y-17830174D01*
X12034468Y-17830174D02*
X12043991Y-17849222D01*
X12043991Y-17849222D02*
X12043991Y-17868270D01*
X12043991Y-17868270D02*
X11948753Y-17887317D01*
X12120182Y-17944460D02*
X12139230Y-17953984D01*
X12139230Y-17953984D02*
X12177325Y-17953984D01*
X12177325Y-17953984D02*
X12196372Y-17944460D01*
X12196372Y-17944460D02*
X12205896Y-17925412D01*
X12205896Y-17925412D02*
X12205896Y-17915889D01*
X12205896Y-17915889D02*
X12196372Y-17896841D01*
X12196372Y-17896841D02*
X12177325Y-17887317D01*
X12177325Y-17887317D02*
X12148753Y-17887317D01*
X12148753Y-17887317D02*
X12129706Y-17877793D01*
X12129706Y-17877793D02*
X12120182Y-17858746D01*
X12120182Y-17858746D02*
X12120182Y-17849222D01*
X12120182Y-17849222D02*
X12129706Y-17830174D01*
X12129706Y-17830174D02*
X12148753Y-17820650D01*
X12148753Y-17820650D02*
X12177325Y-17820650D01*
X12177325Y-17820650D02*
X12196372Y-17830174D01*
X12272563Y-18030174D02*
X12282087Y-18020650D01*
X12282087Y-18020650D02*
X12301134Y-17992079D01*
X12301134Y-17992079D02*
X12310658Y-17973031D01*
X12310658Y-17973031D02*
X12320182Y-17944460D01*
X12320182Y-17944460D02*
X12329706Y-17896841D01*
X12329706Y-17896841D02*
X12329706Y-17858746D01*
X12329706Y-17858746D02*
X12320182Y-17811127D01*
X12320182Y-17811127D02*
X12310658Y-17782555D01*
X12310658Y-17782555D02*
X12301134Y-17763508D01*
X12301134Y-17763508D02*
X12282087Y-17734936D01*
X12282087Y-17734936D02*
X12272563Y-17725412D01*
X7397500Y-18052500D02*
X7397500Y-18252500D01*
X7297500Y-18152500D02*
X7497500Y-18152500D01*
X7497500Y-18152500D02*
G75*
G02*
X7297500Y-18152500I-100000J0D01*
G01*
X7297500Y-18152500D02*
G75*
G02*
X7497500Y-18152500I100000J0D01*
G01*
X7739229Y-18043984D02*
X7863039Y-18043984D01*
X7863039Y-18043984D02*
X7796372Y-18120174D01*
X7796372Y-18120174D02*
X7824943Y-18120174D01*
X7824943Y-18120174D02*
X7843991Y-18129698D01*
X7843991Y-18129698D02*
X7853515Y-18139222D01*
X7853515Y-18139222D02*
X7863039Y-18158270D01*
X7863039Y-18158270D02*
X7863039Y-18205889D01*
X7863039Y-18205889D02*
X7853515Y-18224936D01*
X7853515Y-18224936D02*
X7843991Y-18234460D01*
X7843991Y-18234460D02*
X7824943Y-18243984D01*
X7824943Y-18243984D02*
X7767801Y-18243984D01*
X7767801Y-18243984D02*
X7748753Y-18234460D01*
X7748753Y-18234460D02*
X7739229Y-18224936D01*
X7948753Y-18224936D02*
X7958277Y-18234460D01*
X7958277Y-18234460D02*
X7948753Y-18243984D01*
X7948753Y-18243984D02*
X7939229Y-18234460D01*
X7939229Y-18234460D02*
X7948753Y-18224936D01*
X7948753Y-18224936D02*
X7948753Y-18243984D01*
X8034467Y-18063031D02*
X8043991Y-18053508D01*
X8043991Y-18053508D02*
X8063039Y-18043984D01*
X8063039Y-18043984D02*
X8110658Y-18043984D01*
X8110658Y-18043984D02*
X8129705Y-18053508D01*
X8129705Y-18053508D02*
X8139229Y-18063031D01*
X8139229Y-18063031D02*
X8148753Y-18082079D01*
X8148753Y-18082079D02*
X8148753Y-18101127D01*
X8148753Y-18101127D02*
X8139229Y-18129698D01*
X8139229Y-18129698D02*
X8024943Y-18243984D01*
X8024943Y-18243984D02*
X8148753Y-18243984D01*
X8272562Y-18043984D02*
X8291610Y-18043984D01*
X8291610Y-18043984D02*
X8310658Y-18053508D01*
X8310658Y-18053508D02*
X8320182Y-18063031D01*
X8320182Y-18063031D02*
X8329705Y-18082079D01*
X8329705Y-18082079D02*
X8339229Y-18120174D01*
X8339229Y-18120174D02*
X8339229Y-18167793D01*
X8339229Y-18167793D02*
X8329705Y-18205889D01*
X8329705Y-18205889D02*
X8320182Y-18224936D01*
X8320182Y-18224936D02*
X8310658Y-18234460D01*
X8310658Y-18234460D02*
X8291610Y-18243984D01*
X8291610Y-18243984D02*
X8272562Y-18243984D01*
X8272562Y-18243984D02*
X8253515Y-18234460D01*
X8253515Y-18234460D02*
X8243991Y-18224936D01*
X8243991Y-18224936D02*
X8234467Y-18205889D01*
X8234467Y-18205889D02*
X8224943Y-18167793D01*
X8224943Y-18167793D02*
X8224943Y-18120174D01*
X8224943Y-18120174D02*
X8234467Y-18082079D01*
X8234467Y-18082079D02*
X8243991Y-18063031D01*
X8243991Y-18063031D02*
X8253515Y-18053508D01*
X8253515Y-18053508D02*
X8272562Y-18043984D01*
X8463039Y-18043984D02*
X8482086Y-18043984D01*
X8482086Y-18043984D02*
X8501134Y-18053508D01*
X8501134Y-18053508D02*
X8510658Y-18063031D01*
X8510658Y-18063031D02*
X8520182Y-18082079D01*
X8520182Y-18082079D02*
X8529705Y-18120174D01*
X8529705Y-18120174D02*
X8529705Y-18167793D01*
X8529705Y-18167793D02*
X8520182Y-18205889D01*
X8520182Y-18205889D02*
X8510658Y-18224936D01*
X8510658Y-18224936D02*
X8501134Y-18234460D01*
X8501134Y-18234460D02*
X8482086Y-18243984D01*
X8482086Y-18243984D02*
X8463039Y-18243984D01*
X8463039Y-18243984D02*
X8443991Y-18234460D01*
X8443991Y-18234460D02*
X8434467Y-18224936D01*
X8434467Y-18224936D02*
X8424944Y-18205889D01*
X8424944Y-18205889D02*
X8415420Y-18167793D01*
X8415420Y-18167793D02*
X8415420Y-18120174D01*
X8415420Y-18120174D02*
X8424944Y-18082079D01*
X8424944Y-18082079D02*
X8434467Y-18063031D01*
X8434467Y-18063031D02*
X8443991Y-18053508D01*
X8443991Y-18053508D02*
X8463039Y-18043984D01*
X8615420Y-18243984D02*
X8615420Y-18110650D01*
X8615420Y-18129698D02*
X8624944Y-18120174D01*
X8624944Y-18120174D02*
X8643991Y-18110650D01*
X8643991Y-18110650D02*
X8672563Y-18110650D01*
X8672563Y-18110650D02*
X8691610Y-18120174D01*
X8691610Y-18120174D02*
X8701134Y-18139222D01*
X8701134Y-18139222D02*
X8701134Y-18243984D01*
X8701134Y-18139222D02*
X8710658Y-18120174D01*
X8710658Y-18120174D02*
X8729705Y-18110650D01*
X8729705Y-18110650D02*
X8758277Y-18110650D01*
X8758277Y-18110650D02*
X8777325Y-18120174D01*
X8777325Y-18120174D02*
X8786848Y-18139222D01*
X8786848Y-18139222D02*
X8786848Y-18243984D01*
X8882086Y-18243984D02*
X8882086Y-18110650D01*
X8882086Y-18129698D02*
X8891610Y-18120174D01*
X8891610Y-18120174D02*
X8910658Y-18110650D01*
X8910658Y-18110650D02*
X8939229Y-18110650D01*
X8939229Y-18110650D02*
X8958277Y-18120174D01*
X8958277Y-18120174D02*
X8967801Y-18139222D01*
X8967801Y-18139222D02*
X8967801Y-18243984D01*
X8967801Y-18139222D02*
X8977325Y-18120174D01*
X8977325Y-18120174D02*
X8996372Y-18110650D01*
X8996372Y-18110650D02*
X9024944Y-18110650D01*
X9024944Y-18110650D02*
X9043991Y-18120174D01*
X9043991Y-18120174D02*
X9053515Y-18139222D01*
X9053515Y-18139222D02*
X9053515Y-18243984D01*
X9443991Y-18034460D02*
X9272563Y-18291603D01*
X9701134Y-18043984D02*
X9720182Y-18043984D01*
X9720182Y-18043984D02*
X9739229Y-18053508D01*
X9739229Y-18053508D02*
X9748753Y-18063031D01*
X9748753Y-18063031D02*
X9758277Y-18082079D01*
X9758277Y-18082079D02*
X9767801Y-18120174D01*
X9767801Y-18120174D02*
X9767801Y-18167793D01*
X9767801Y-18167793D02*
X9758277Y-18205889D01*
X9758277Y-18205889D02*
X9748753Y-18224936D01*
X9748753Y-18224936D02*
X9739229Y-18234460D01*
X9739229Y-18234460D02*
X9720182Y-18243984D01*
X9720182Y-18243984D02*
X9701134Y-18243984D01*
X9701134Y-18243984D02*
X9682087Y-18234460D01*
X9682087Y-18234460D02*
X9672563Y-18224936D01*
X9672563Y-18224936D02*
X9663039Y-18205889D01*
X9663039Y-18205889D02*
X9653515Y-18167793D01*
X9653515Y-18167793D02*
X9653515Y-18120174D01*
X9653515Y-18120174D02*
X9663039Y-18082079D01*
X9663039Y-18082079D02*
X9672563Y-18063031D01*
X9672563Y-18063031D02*
X9682087Y-18053508D01*
X9682087Y-18053508D02*
X9701134Y-18043984D01*
X9853515Y-18224936D02*
X9863039Y-18234460D01*
X9863039Y-18234460D02*
X9853515Y-18243984D01*
X9853515Y-18243984D02*
X9843991Y-18234460D01*
X9843991Y-18234460D02*
X9853515Y-18224936D01*
X9853515Y-18224936D02*
X9853515Y-18243984D01*
X10053515Y-18243984D02*
X9939229Y-18243984D01*
X9996372Y-18243984D02*
X9996372Y-18043984D01*
X9996372Y-18043984D02*
X9977325Y-18072555D01*
X9977325Y-18072555D02*
X9958277Y-18091603D01*
X9958277Y-18091603D02*
X9939229Y-18101127D01*
X10129706Y-18063031D02*
X10139229Y-18053508D01*
X10139229Y-18053508D02*
X10158277Y-18043984D01*
X10158277Y-18043984D02*
X10205896Y-18043984D01*
X10205896Y-18043984D02*
X10224944Y-18053508D01*
X10224944Y-18053508D02*
X10234468Y-18063031D01*
X10234468Y-18063031D02*
X10243991Y-18082079D01*
X10243991Y-18082079D02*
X10243991Y-18101127D01*
X10243991Y-18101127D02*
X10234468Y-18129698D01*
X10234468Y-18129698D02*
X10120182Y-18243984D01*
X10120182Y-18243984D02*
X10243991Y-18243984D01*
X10415420Y-18043984D02*
X10377325Y-18043984D01*
X10377325Y-18043984D02*
X10358277Y-18053508D01*
X10358277Y-18053508D02*
X10348753Y-18063031D01*
X10348753Y-18063031D02*
X10329706Y-18091603D01*
X10329706Y-18091603D02*
X10320182Y-18129698D01*
X10320182Y-18129698D02*
X10320182Y-18205889D01*
X10320182Y-18205889D02*
X10329706Y-18224936D01*
X10329706Y-18224936D02*
X10339229Y-18234460D01*
X10339229Y-18234460D02*
X10358277Y-18243984D01*
X10358277Y-18243984D02*
X10396372Y-18243984D01*
X10396372Y-18243984D02*
X10415420Y-18234460D01*
X10415420Y-18234460D02*
X10424944Y-18224936D01*
X10424944Y-18224936D02*
X10434468Y-18205889D01*
X10434468Y-18205889D02*
X10434468Y-18158270D01*
X10434468Y-18158270D02*
X10424944Y-18139222D01*
X10424944Y-18139222D02*
X10415420Y-18129698D01*
X10415420Y-18129698D02*
X10396372Y-18120174D01*
X10396372Y-18120174D02*
X10358277Y-18120174D01*
X10358277Y-18120174D02*
X10339229Y-18129698D01*
X10339229Y-18129698D02*
X10329706Y-18139222D01*
X10329706Y-18139222D02*
X10320182Y-18158270D01*
X10558277Y-18043984D02*
X10577325Y-18043984D01*
X10577325Y-18043984D02*
X10596372Y-18053508D01*
X10596372Y-18053508D02*
X10605896Y-18063031D01*
X10605896Y-18063031D02*
X10615420Y-18082079D01*
X10615420Y-18082079D02*
X10624944Y-18120174D01*
X10624944Y-18120174D02*
X10624944Y-18167793D01*
X10624944Y-18167793D02*
X10615420Y-18205889D01*
X10615420Y-18205889D02*
X10605896Y-18224936D01*
X10605896Y-18224936D02*
X10596372Y-18234460D01*
X10596372Y-18234460D02*
X10577325Y-18243984D01*
X10577325Y-18243984D02*
X10558277Y-18243984D01*
X10558277Y-18243984D02*
X10539229Y-18234460D01*
X10539229Y-18234460D02*
X10529706Y-18224936D01*
X10529706Y-18224936D02*
X10520182Y-18205889D01*
X10520182Y-18205889D02*
X10510658Y-18167793D01*
X10510658Y-18167793D02*
X10510658Y-18120174D01*
X10510658Y-18120174D02*
X10520182Y-18082079D01*
X10520182Y-18082079D02*
X10529706Y-18063031D01*
X10529706Y-18063031D02*
X10539229Y-18053508D01*
X10539229Y-18053508D02*
X10558277Y-18043984D01*
X10701134Y-18043984D02*
X10701134Y-18082079D01*
X10777325Y-18043984D02*
X10777325Y-18082079D01*
X11072563Y-18320174D02*
X11063039Y-18310650D01*
X11063039Y-18310650D02*
X11043991Y-18282079D01*
X11043991Y-18282079D02*
X11034468Y-18263031D01*
X11034468Y-18263031D02*
X11024944Y-18234460D01*
X11024944Y-18234460D02*
X11015420Y-18186841D01*
X11015420Y-18186841D02*
X11015420Y-18148746D01*
X11015420Y-18148746D02*
X11024944Y-18101127D01*
X11024944Y-18101127D02*
X11034468Y-18072555D01*
X11034468Y-18072555D02*
X11043991Y-18053508D01*
X11043991Y-18053508D02*
X11063039Y-18024936D01*
X11063039Y-18024936D02*
X11072563Y-18015412D01*
X11234468Y-18110650D02*
X11234468Y-18243984D01*
X11186848Y-18034460D02*
X11139230Y-18177317D01*
X11139230Y-18177317D02*
X11263039Y-18177317D01*
X11491610Y-18243984D02*
X11491610Y-18043984D01*
X11577325Y-18243984D02*
X11577325Y-18139222D01*
X11577325Y-18139222D02*
X11567801Y-18120174D01*
X11567801Y-18120174D02*
X11548753Y-18110650D01*
X11548753Y-18110650D02*
X11520182Y-18110650D01*
X11520182Y-18110650D02*
X11501134Y-18120174D01*
X11501134Y-18120174D02*
X11491610Y-18129698D01*
X11701134Y-18243984D02*
X11682087Y-18234460D01*
X11682087Y-18234460D02*
X11672563Y-18224936D01*
X11672563Y-18224936D02*
X11663039Y-18205889D01*
X11663039Y-18205889D02*
X11663039Y-18148746D01*
X11663039Y-18148746D02*
X11672563Y-18129698D01*
X11672563Y-18129698D02*
X11682087Y-18120174D01*
X11682087Y-18120174D02*
X11701134Y-18110650D01*
X11701134Y-18110650D02*
X11729706Y-18110650D01*
X11729706Y-18110650D02*
X11748753Y-18120174D01*
X11748753Y-18120174D02*
X11758277Y-18129698D01*
X11758277Y-18129698D02*
X11767801Y-18148746D01*
X11767801Y-18148746D02*
X11767801Y-18205889D01*
X11767801Y-18205889D02*
X11758277Y-18224936D01*
X11758277Y-18224936D02*
X11748753Y-18234460D01*
X11748753Y-18234460D02*
X11729706Y-18243984D01*
X11729706Y-18243984D02*
X11701134Y-18243984D01*
X11882087Y-18243984D02*
X11863039Y-18234460D01*
X11863039Y-18234460D02*
X11853515Y-18215412D01*
X11853515Y-18215412D02*
X11853515Y-18043984D01*
X12034468Y-18234460D02*
X12015420Y-18243984D01*
X12015420Y-18243984D02*
X11977325Y-18243984D01*
X11977325Y-18243984D02*
X11958277Y-18234460D01*
X11958277Y-18234460D02*
X11948753Y-18215412D01*
X11948753Y-18215412D02*
X11948753Y-18139222D01*
X11948753Y-18139222D02*
X11958277Y-18120174D01*
X11958277Y-18120174D02*
X11977325Y-18110650D01*
X11977325Y-18110650D02*
X12015420Y-18110650D01*
X12015420Y-18110650D02*
X12034468Y-18120174D01*
X12034468Y-18120174D02*
X12043991Y-18139222D01*
X12043991Y-18139222D02*
X12043991Y-18158270D01*
X12043991Y-18158270D02*
X11948753Y-18177317D01*
X12120182Y-18234460D02*
X12139230Y-18243984D01*
X12139230Y-18243984D02*
X12177325Y-18243984D01*
X12177325Y-18243984D02*
X12196372Y-18234460D01*
X12196372Y-18234460D02*
X12205896Y-18215412D01*
X12205896Y-18215412D02*
X12205896Y-18205889D01*
X12205896Y-18205889D02*
X12196372Y-18186841D01*
X12196372Y-18186841D02*
X12177325Y-18177317D01*
X12177325Y-18177317D02*
X12148753Y-18177317D01*
X12148753Y-18177317D02*
X12129706Y-18167793D01*
X12129706Y-18167793D02*
X12120182Y-18148746D01*
X12120182Y-18148746D02*
X12120182Y-18139222D01*
X12120182Y-18139222D02*
X12129706Y-18120174D01*
X12129706Y-18120174D02*
X12148753Y-18110650D01*
X12148753Y-18110650D02*
X12177325Y-18110650D01*
X12177325Y-18110650D02*
X12196372Y-18120174D01*
X12272563Y-18320174D02*
X12282087Y-18310650D01*
X12282087Y-18310650D02*
X12301134Y-18282079D01*
X12301134Y-18282079D02*
X12310658Y-18263031D01*
X12310658Y-18263031D02*
X12320182Y-18234460D01*
X12320182Y-18234460D02*
X12329706Y-18186841D01*
X12329706Y-18186841D02*
X12329706Y-18148746D01*
X12329706Y-18148746D02*
X12320182Y-18101127D01*
X12320182Y-18101127D02*
X12310658Y-18072555D01*
X12310658Y-18072555D02*
X12301134Y-18053508D01*
X12301134Y-18053508D02*
X12282087Y-18024936D01*
X12282087Y-18024936D02*
X12272563Y-18015412D01*
X12634468Y-18320174D02*
X12624944Y-18310650D01*
X12624944Y-18310650D02*
X12605896Y-18282079D01*
X12605896Y-18282079D02*
X12596372Y-18263031D01*
X12596372Y-18263031D02*
X12586849Y-18234460D01*
X12586849Y-18234460D02*
X12577325Y-18186841D01*
X12577325Y-18186841D02*
X12577325Y-18148746D01*
X12577325Y-18148746D02*
X12586849Y-18101127D01*
X12586849Y-18101127D02*
X12596372Y-18072555D01*
X12596372Y-18072555D02*
X12605896Y-18053508D01*
X12605896Y-18053508D02*
X12624944Y-18024936D01*
X12624944Y-18024936D02*
X12634468Y-18015412D01*
X12710658Y-18110650D02*
X12710658Y-18243984D01*
X12710658Y-18129698D02*
X12720182Y-18120174D01*
X12720182Y-18120174D02*
X12739230Y-18110650D01*
X12739230Y-18110650D02*
X12767801Y-18110650D01*
X12767801Y-18110650D02*
X12786849Y-18120174D01*
X12786849Y-18120174D02*
X12796372Y-18139222D01*
X12796372Y-18139222D02*
X12796372Y-18243984D01*
X12920182Y-18243984D02*
X12901134Y-18234460D01*
X12901134Y-18234460D02*
X12891611Y-18224936D01*
X12891611Y-18224936D02*
X12882087Y-18205889D01*
X12882087Y-18205889D02*
X12882087Y-18148746D01*
X12882087Y-18148746D02*
X12891611Y-18129698D01*
X12891611Y-18129698D02*
X12901134Y-18120174D01*
X12901134Y-18120174D02*
X12920182Y-18110650D01*
X12920182Y-18110650D02*
X12948753Y-18110650D01*
X12948753Y-18110650D02*
X12967801Y-18120174D01*
X12967801Y-18120174D02*
X12977325Y-18129698D01*
X12977325Y-18129698D02*
X12986849Y-18148746D01*
X12986849Y-18148746D02*
X12986849Y-18205889D01*
X12986849Y-18205889D02*
X12977325Y-18224936D01*
X12977325Y-18224936D02*
X12967801Y-18234460D01*
X12967801Y-18234460D02*
X12948753Y-18243984D01*
X12948753Y-18243984D02*
X12920182Y-18243984D01*
X13043992Y-18110650D02*
X13120182Y-18110650D01*
X13072563Y-18043984D02*
X13072563Y-18215412D01*
X13072563Y-18215412D02*
X13082087Y-18234460D01*
X13082087Y-18234460D02*
X13101134Y-18243984D01*
X13101134Y-18243984D02*
X13120182Y-18243984D01*
X13339230Y-18110650D02*
X13339230Y-18310650D01*
X13339230Y-18120174D02*
X13358277Y-18110650D01*
X13358277Y-18110650D02*
X13396373Y-18110650D01*
X13396373Y-18110650D02*
X13415420Y-18120174D01*
X13415420Y-18120174D02*
X13424944Y-18129698D01*
X13424944Y-18129698D02*
X13434468Y-18148746D01*
X13434468Y-18148746D02*
X13434468Y-18205889D01*
X13434468Y-18205889D02*
X13424944Y-18224936D01*
X13424944Y-18224936D02*
X13415420Y-18234460D01*
X13415420Y-18234460D02*
X13396373Y-18243984D01*
X13396373Y-18243984D02*
X13358277Y-18243984D01*
X13358277Y-18243984D02*
X13339230Y-18234460D01*
X13548753Y-18243984D02*
X13529706Y-18234460D01*
X13529706Y-18234460D02*
X13520182Y-18215412D01*
X13520182Y-18215412D02*
X13520182Y-18043984D01*
X13710658Y-18243984D02*
X13710658Y-18139222D01*
X13710658Y-18139222D02*
X13701134Y-18120174D01*
X13701134Y-18120174D02*
X13682087Y-18110650D01*
X13682087Y-18110650D02*
X13643992Y-18110650D01*
X13643992Y-18110650D02*
X13624944Y-18120174D01*
X13710658Y-18234460D02*
X13691611Y-18243984D01*
X13691611Y-18243984D02*
X13643992Y-18243984D01*
X13643992Y-18243984D02*
X13624944Y-18234460D01*
X13624944Y-18234460D02*
X13615420Y-18215412D01*
X13615420Y-18215412D02*
X13615420Y-18196365D01*
X13615420Y-18196365D02*
X13624944Y-18177317D01*
X13624944Y-18177317D02*
X13643992Y-18167793D01*
X13643992Y-18167793D02*
X13691611Y-18167793D01*
X13691611Y-18167793D02*
X13710658Y-18158270D01*
X13777325Y-18110650D02*
X13853515Y-18110650D01*
X13805896Y-18043984D02*
X13805896Y-18215412D01*
X13805896Y-18215412D02*
X13815420Y-18234460D01*
X13815420Y-18234460D02*
X13834468Y-18243984D01*
X13834468Y-18243984D02*
X13853515Y-18243984D01*
X13996373Y-18234460D02*
X13977325Y-18243984D01*
X13977325Y-18243984D02*
X13939230Y-18243984D01*
X13939230Y-18243984D02*
X13920182Y-18234460D01*
X13920182Y-18234460D02*
X13910658Y-18215412D01*
X13910658Y-18215412D02*
X13910658Y-18139222D01*
X13910658Y-18139222D02*
X13920182Y-18120174D01*
X13920182Y-18120174D02*
X13939230Y-18110650D01*
X13939230Y-18110650D02*
X13977325Y-18110650D01*
X13977325Y-18110650D02*
X13996373Y-18120174D01*
X13996373Y-18120174D02*
X14005896Y-18139222D01*
X14005896Y-18139222D02*
X14005896Y-18158270D01*
X14005896Y-18158270D02*
X13910658Y-18177317D01*
X14177325Y-18243984D02*
X14177325Y-18043984D01*
X14177325Y-18234460D02*
X14158277Y-18243984D01*
X14158277Y-18243984D02*
X14120182Y-18243984D01*
X14120182Y-18243984D02*
X14101134Y-18234460D01*
X14101134Y-18234460D02*
X14091611Y-18224936D01*
X14091611Y-18224936D02*
X14082087Y-18205889D01*
X14082087Y-18205889D02*
X14082087Y-18148746D01*
X14082087Y-18148746D02*
X14091611Y-18129698D01*
X14091611Y-18129698D02*
X14101134Y-18120174D01*
X14101134Y-18120174D02*
X14120182Y-18110650D01*
X14120182Y-18110650D02*
X14158277Y-18110650D01*
X14158277Y-18110650D02*
X14177325Y-18120174D01*
X14253515Y-18320174D02*
X14263039Y-18310650D01*
X14263039Y-18310650D02*
X14282087Y-18282079D01*
X14282087Y-18282079D02*
X14291611Y-18263031D01*
X14291611Y-18263031D02*
X14301134Y-18234460D01*
X14301134Y-18234460D02*
X14310658Y-18186841D01*
X14310658Y-18186841D02*
X14310658Y-18148746D01*
X14310658Y-18148746D02*
X14301134Y-18101127D01*
X14301134Y-18101127D02*
X14291611Y-18072555D01*
X14291611Y-18072555D02*
X14282087Y-18053508D01*
X14282087Y-18053508D02*
X14263039Y-18024936D01*
X14263039Y-18024936D02*
X14253515Y-18015412D01*
M02*
