M48
; DRILL file {KiCad 9.0.2} date 2025-08-11T21:58:53+0900
; FORMAT={-:-/ absolute / metric / decimal}
; #@! TF.CreationDate,2025-08-11T21:58:53+09:00
; #@! TF.GenerationSoftware,Kicad,Pcbnew,9.0.2
; #@! TF.FileFunction,MixedPlating,1,2
FMAT,2
METRIC
; #@! TA.AperFunction,Plated,PTH,ViaDrill
T1C0.300
; #@! TA.AperFunction,Plated,PTH,ComponentDrill
T2C0.600
; #@! TA.AperFunction,Plated,PTH,ComponentDrill
T3C0.762
; #@! TA.AperFunction,Plated,PTH,ComponentDrill
T4C0.800
; #@! TA.AperFunction,Plated,PTH,ComponentDrill
T5C0.890
; #@! TA.AperFunction,Plated,PTH,ComponentDrill
T6C0.900
; #@! TA.AperFunction,Plated,PTH,ComponentDrill
T7C1.000
; #@! TA.AperFunction,Plated,PTH,ComponentDrill
T8C1.100
; #@! TA.AperFunction,Plated,PTH,ComponentDrill
T9C1.320
; #@! TA.AperFunction,NonPlated,NPTH,ComponentDrill
T10C0.650
; #@! TA.AperFunction,NonPlated,NPTH,ComponentDrill
T11C1.400
; #@! TA.AperFunction,NonPlated,NPTH,ComponentDrill
T12C3.200
%
G90
G05
T1
X80.0Y-66.0
X80.0Y-127.0
X87.5Y-58.5
X87.5Y-66.0
X87.5Y-127.0
X87.5Y-134.5
X96.0Y-111.5
X97.5Y-66.5
X98.5Y-134.5
X99.0Y-81.5
X103.0Y-117.0
X104.5Y-135.0
X105.0Y-100.5
X106.0Y-75.0
X106.0Y-110.5
X109.5Y-134.5
X112.0Y-115.0
X112.5Y-131.5
X112.522Y-128.778
X113.5Y-65.0
X117.25Y-119.5
X118.5Y-124.25
X119.0Y-79.5
X119.75Y-114.75
X121.0Y-127.0
X122.0Y-108.25
X122.25Y-94.25
X123.0Y-81.0
X123.5Y-123.5
X124.0Y-105.25
X124.079Y-80.645
X125.0Y-120.5
X126.0Y-79.0
X126.0Y-97.5
X128.5Y-74.5
X128.5Y-95.25
X129.0Y-100.5
X129.75Y-98.0
X130.75Y-107.5
X131.5Y-117.5
X133.5Y-97.0
X133.5Y-112.5
X135.5Y-71.0
X136.0Y-83.5
X136.0Y-100.5
X136.5Y-108.25
X137.414Y-123.317
X138.557Y-125.222
X139.5Y-83.25
X141.5Y-94.0
X141.5Y-98.0
X141.5Y-108.0
X142.621Y-125.222
X142.875Y-129.921
X145.0Y-98.0
X146.5Y-84.0
X148.0Y-113.0
X150.5Y-58.5
X150.5Y-70.0
X154.0Y-102.0
X156.5Y-88.5
X165.5Y-77.0
X166.5Y-58.5
X166.5Y-66.0
X166.5Y-134.5
X167.259Y-106.426
X168.529Y-107.823
X168.529Y-112.522
X169.5Y-89.5
X169.799Y-117.094
X170.307Y-104.14
X171.958Y-110.998
X173.0Y-100.0
X174.0Y-66.0
X174.0Y-127.0
T3
X94.563Y-121.666
X94.563Y-131.826
X94.563Y-134.366
X102.183Y-121.666
X102.183Y-131.826
X102.183Y-134.366
X107.061Y-121.666
X107.061Y-131.826
X107.061Y-134.366
X114.681Y-121.666
X114.681Y-131.826
X114.681Y-134.366
T4
X93.218Y-77.724
X93.218Y-85.344
X93.218Y-89.916
X93.218Y-97.536
X96.774Y-79.248
X96.774Y-84.248
X96.774Y-91.266
X96.774Y-96.266
X111.125Y-60.452
X113.125Y-60.452
X118.11Y-61.849
X118.11Y-69.469
X119.19Y-117.0
X119.19Y-122.0
X119.19Y-127.0
X120.0Y-101.5
X120.0Y-106.5
X121.158Y-61.341
X121.158Y-66.167
X123.0Y-132.0
X123.0Y-134.0
X124.0Y-72.0
X124.0Y-77.0
X124.19Y-99.0
X126.0Y-104.19
X126.0Y-111.81
X126.81Y-117.0
X126.81Y-122.0
X126.81Y-127.0
X128.38Y-81.0
X128.778Y-61.341
X128.778Y-66.167
X131.81Y-99.0
X132.0Y-115.19
X132.0Y-122.81
X132.588Y-127.508
X132.588Y-129.508
X132.842Y-64.77
X133.0Y-69.19
X133.0Y-76.81
X133.874Y-59.69
X135.0Y-105.0
X135.0Y-110.0
X135.509Y-133.985
X135.874Y-59.69
X136.0Y-81.0
X138.0Y-70.5
X138.0Y-75.5
X140.462Y-64.77
X143.129Y-133.985
X144.526Y-121.111
X144.526Y-126.111
X147.828Y-129.937
X147.828Y-131.937
X152.273Y-126.746
X159.893Y-126.746
X161.417Y-93.472
X161.417Y-101.092
X162.092Y-116.459
X164.973Y-121.031
X167.005Y-96.012
X167.005Y-98.552
X167.005Y-101.092
X167.092Y-116.459
X172.593Y-121.031
T5
X129.667Y-133.223
X130.937Y-133.223
X132.207Y-133.223
T6
X152.273Y-131.699
X159.893Y-131.699
T7
X164.973Y-125.979
X164.973Y-128.519
T8
X120.85Y-89.3
X120.85Y-92.7
X124.55Y-87.6
X124.55Y-91.0
X124.55Y-94.4
X134.3Y-87.9
X134.3Y-91.3
X134.3Y-94.7
X138.0Y-89.6
X138.0Y-93.0
X148.463Y-121.793
X151.003Y-121.793
X153.543Y-121.793
X156.083Y-121.793
T9
X84.582Y-78.82
X84.582Y-83.82
X84.582Y-90.932
X84.582Y-95.932
X84.582Y-105.439
X84.582Y-110.439
X84.582Y-117.602
X84.582Y-122.602
T10
X171.41Y-107.31
X171.41Y-113.09
T11
X112.534Y-76.059
X112.534Y-106.059
X146.292Y-76.313
X146.292Y-106.313
T12
X82.0Y-60.5
X82.0Y-132.5
X172.0Y-60.5
X172.0Y-132.5
T2
G00X170.36Y-105.88
M15
G01X171.46Y-105.88
M16
G05
G00X170.36Y-114.52
M15
G01X171.46Y-114.52
M16
G05
G00X174.69Y-105.88
M15
G01X175.49Y-105.88
M16
G05
G00X174.69Y-114.52
M15
G01X175.49Y-114.52
M16
G05
M30
