%TF.GenerationSoftware,KiCad,Pcbnew,9.0.2*%
%TF.CreationDate,2025-08-11T21:54:55+09:00*%
%TF.ProjectId,Op_amp_2circuit,4f705f61-6d70-45f3-9263-697263756974,rev?*%
%TF.SameCoordinates,Original*%
%TF.FileFunction,Paste,Top*%
%TF.FilePolarity,Positive*%
%FSLAX46Y46*%
G04 Gerber Fmt 4.6, Leading zero omitted, Abs format (unit mm)*
G04 Created by KiCad (PCBNEW 9.0.2) date 2025-08-11 21:54:55*
%MOMM*%
%LPD*%
G01*
G04 APERTURE LIST*
G04 Aperture macros list*
%AMRoundRect*
0 Rectangle with rounded corners*
0 $1 Rounding radius*
0 $2 $3 $4 $5 $6 $7 $8 $9 X,Y pos of 4 corners*
0 Add a 4 corners polygon primitive as box body*
4,1,4,$2,$3,$4,$5,$6,$7,$8,$9,$2,$3,0*
0 Add four circle primitives for the rounded corners*
1,1,$1+$1,$2,$3*
1,1,$1+$1,$4,$5*
1,1,$1+$1,$6,$7*
1,1,$1+$1,$8,$9*
0 Add four rect primitives between the rounded corners*
20,1,$1+$1,$2,$3,$4,$5,0*
20,1,$1+$1,$4,$5,$6,$7,0*
20,1,$1+$1,$6,$7,$8,$9,0*
20,1,$1+$1,$8,$9,$2,$3,0*%
G04 Aperture macros list end*
%ADD10RoundRect,0.250000X1.080000X-0.595000X1.080000X0.595000X-1.080000X0.595000X-1.080000X-0.595000X0*%
%ADD11RoundRect,0.150000X0.150000X-0.687500X0.150000X0.687500X-0.150000X0.687500X-0.150000X-0.687500X0*%
%ADD12RoundRect,0.150000X0.425000X-0.150000X0.425000X0.150000X-0.425000X0.150000X-0.425000X-0.150000X0*%
%ADD13RoundRect,0.075000X0.500000X-0.075000X0.500000X0.075000X-0.500000X0.075000X-0.500000X-0.075000X0*%
%ADD14O,2.100000X1.000000*%
%ADD15O,1.800000X1.000000*%
%ADD16R,0.900000X0.600000*%
%ADD17RoundRect,0.150000X0.825000X0.150000X-0.825000X0.150000X-0.825000X-0.150000X0.825000X-0.150000X0*%
G04 APERTURE END LIST*
D10*
%TO.C,U3*%
X163859500Y-110268000D03*
D11*
X161859500Y-112905500D03*
X162859500Y-112905500D03*
X163859500Y-112905500D03*
X164859500Y-112905500D03*
X165859500Y-112905500D03*
X165859500Y-107630500D03*
X164859500Y-107630500D03*
X163859500Y-107630500D03*
X162859500Y-107630500D03*
X161859500Y-107630500D03*
%TD*%
D12*
%TO.C,J1*%
X170335000Y-113400000D03*
X170335000Y-112600000D03*
D13*
X170335000Y-111450000D03*
X170335000Y-110450000D03*
X170335000Y-109950000D03*
X170335000Y-108950000D03*
D12*
X170335000Y-107800000D03*
X170335000Y-107000000D03*
X170335000Y-107000000D03*
X170335000Y-107800000D03*
D13*
X170335000Y-108450000D03*
X170335000Y-109450000D03*
X170335000Y-110950000D03*
X170335000Y-111950000D03*
D12*
X170335000Y-112600000D03*
X170335000Y-113400000D03*
D14*
X170910000Y-114520000D03*
D15*
X175090000Y-114520000D03*
D14*
X170910000Y-105880000D03*
D15*
X175090000Y-105880000D03*
%TD*%
D16*
%TO.C,IC1*%
X137919000Y-127447000D03*
X137919000Y-128397000D03*
X137919000Y-129347000D03*
X140719000Y-129347000D03*
X140719000Y-127447000D03*
%TD*%
D17*
%TO.C,U5*%
X140651000Y-123952000D03*
X140651000Y-122682000D03*
X140651000Y-121412000D03*
X140651000Y-120142000D03*
X135701000Y-120142000D03*
X135701000Y-121412000D03*
X135701000Y-122682000D03*
X135701000Y-123952000D03*
%TD*%
M02*
