%TF.GenerationSoftware,KiCad,Pcbnew,9.0.2*%
%TF.CreationDate,2025-08-11T21:54:56+09:00*%
%TF.ProjectId,Op_amp_2circuit,4f705f61-6d70-45f3-9263-697263756974,rev?*%
%TF.SameCoordinates,Original*%
%TF.FileFunction,Soldermask,Bot*%
%TF.FilePolarity,Negative*%
%FSLAX46Y46*%
G04 Gerber Fmt 4.6, Leading zero omitted, Abs format (unit mm)*
G04 Created by KiCad (PCBNEW 9.0.2) date 2025-08-11 21:54:56*
%MOMM*%
%LPD*%
G01*
G04 APERTURE LIST*
G04 Aperture macros list*
%AMRoundRect*
0 Rectangle with rounded corners*
0 $1 Rounding radius*
0 $2 $3 $4 $5 $6 $7 $8 $9 X,Y pos of 4 corners*
0 Add a 4 corners polygon primitive as box body*
4,1,4,$2,$3,$4,$5,$6,$7,$8,$9,$2,$3,0*
0 Add four circle primitives for the rounded corners*
1,1,$1+$1,$2,$3*
1,1,$1+$1,$4,$5*
1,1,$1+$1,$6,$7*
1,1,$1+$1,$8,$9*
0 Add four rect primitives between the rounded corners*
20,1,$1+$1,$2,$3,$4,$5,0*
20,1,$1+$1,$4,$5,$6,$7,0*
20,1,$1+$1,$6,$7,$8,$9,0*
20,1,$1+$1,$8,$9,$2,$3,0*%
G04 Aperture macros list end*
%ADD10R,1.905000X2.000000*%
%ADD11O,1.905000X2.000000*%
%ADD12R,3.960000X1.980000*%
%ADD13O,3.960000X1.980000*%
%ADD14R,1.800000X1.800000*%
%ADD15C,1.800000*%
%ADD16C,1.100000*%
%ADD17R,1.700000X1.700000*%
%ADD18C,1.700000*%
%ADD19C,1.600000*%
%ADD20C,3.200000*%
%ADD21C,1.500000*%
%ADD22R,1.524000X1.524000*%
%ADD23C,1.524000*%
%ADD24RoundRect,0.250000X0.650000X0.650000X-0.650000X0.650000X-0.650000X-0.650000X0.650000X-0.650000X0*%
%ADD25C,0.650000*%
%ADD26O,2.100000X1.000000*%
%ADD27O,1.800000X1.000000*%
%ADD28C,1.300000*%
G04 APERTURE END LIST*
D10*
%TO.C,U6*%
X148463000Y-121793000D03*
D11*
X151003000Y-121793000D03*
X153543000Y-121793000D03*
X156083000Y-121793000D03*
%TD*%
D12*
%TO.C,J2*%
X84582000Y-78820000D03*
D13*
X84582000Y-83820000D03*
%TD*%
D14*
%TO.C,U1*%
X134300000Y-87900000D03*
D15*
X138000000Y-89600000D03*
X134300000Y-91300000D03*
X138000000Y-93000000D03*
X134300000Y-94700000D03*
%TD*%
D16*
%TO.C,Q2*%
X132207000Y-133223000D03*
X130937000Y-133223000D03*
X129667000Y-133223000D03*
%TD*%
D17*
%TO.C,SW2*%
X164973000Y-125979000D03*
D18*
X164973000Y-128519000D03*
%TD*%
D19*
%TO.C,C11*%
X167092000Y-116459000D03*
X162092000Y-116459000D03*
%TD*%
D20*
%TO.C,H4*%
X82000000Y-132500000D03*
%TD*%
D19*
%TO.C,C7*%
X124000000Y-77000000D03*
X124000000Y-72000000D03*
%TD*%
%TO.C,R20*%
X143129000Y-133985000D03*
X135509000Y-133985000D03*
%TD*%
%TO.C,R9*%
X121158000Y-61341000D03*
X128778000Y-61341000D03*
%TD*%
%TO.C,C8*%
X135000000Y-105000000D03*
X135000000Y-110000000D03*
%TD*%
%TO.C,R17*%
X159893000Y-126746000D03*
X152273000Y-126746000D03*
%TD*%
D21*
%TO.C,HS3*%
X112534000Y-106059000D03*
X112534000Y-76059000D03*
%TD*%
D19*
%TO.C,R16*%
X161417000Y-93472000D03*
X161417000Y-101092000D03*
%TD*%
%TO.C,C5*%
X132588000Y-127508000D03*
X132588000Y-129508000D03*
%TD*%
%TO.C,R10*%
X128778000Y-66167000D03*
X121158000Y-66167000D03*
%TD*%
%TO.C,R4*%
X126000000Y-104190000D03*
X126000000Y-111810000D03*
%TD*%
%TO.C,C3*%
X138000000Y-75500000D03*
X138000000Y-70500000D03*
%TD*%
%TO.C,R12*%
X119190000Y-127000000D03*
X126810000Y-127000000D03*
%TD*%
D22*
%TO.C,K1*%
X94563300Y-134366000D03*
D23*
X102183300Y-134366000D03*
X94563300Y-131826000D03*
X102183300Y-131826000D03*
X94563300Y-121666000D03*
X102183300Y-121666000D03*
%TD*%
D19*
%TO.C,C1*%
X96774000Y-79248000D03*
X96774000Y-84248000D03*
%TD*%
D24*
%TO.C,D1*%
X159893000Y-131699000D03*
D15*
X152273000Y-131699000D03*
%TD*%
D19*
%TO.C,R6*%
X132000000Y-115190000D03*
X132000000Y-122810000D03*
%TD*%
%TO.C,R3*%
X133000000Y-76810000D03*
X133000000Y-69190000D03*
%TD*%
D14*
%TO.C,U2*%
X124550000Y-94400000D03*
D15*
X120850000Y-92700000D03*
X124550000Y-91000000D03*
X120850000Y-89300000D03*
X124550000Y-87600000D03*
%TD*%
D19*
%TO.C,R7*%
X118110000Y-69469000D03*
X118110000Y-61849000D03*
%TD*%
D25*
%TO.C,J1*%
X171410000Y-113090000D03*
X171410000Y-107310000D03*
D26*
X170910000Y-114520000D03*
D27*
X175090000Y-114520000D03*
D26*
X170910000Y-105880000D03*
D27*
X175090000Y-105880000D03*
%TD*%
D19*
%TO.C,R11*%
X132842000Y-64770000D03*
X140462000Y-64770000D03*
%TD*%
%TO.C,R13*%
X126810000Y-117000000D03*
X119190000Y-117000000D03*
%TD*%
D22*
%TO.C,K2*%
X107061000Y-134366000D03*
D23*
X114681000Y-134366000D03*
X107061000Y-131826000D03*
X114681000Y-131826000D03*
X107061000Y-121666000D03*
X114681000Y-121666000D03*
%TD*%
D19*
%TO.C,R8*%
X128380000Y-81000000D03*
X136000000Y-81000000D03*
%TD*%
D12*
%TO.C,J5*%
X84582000Y-117602000D03*
D13*
X84582000Y-122602000D03*
%TD*%
D19*
%TO.C,C9*%
X133874000Y-59690000D03*
X135874000Y-59690000D03*
%TD*%
%TO.C,R14*%
X119190000Y-122000000D03*
X126810000Y-122000000D03*
%TD*%
%TO.C,C12*%
X144526000Y-121111000D03*
X144526000Y-126111000D03*
%TD*%
D20*
%TO.C,H3*%
X172000000Y-132500000D03*
%TD*%
D19*
%TO.C,C10*%
X123000000Y-132000000D03*
X123000000Y-134000000D03*
%TD*%
%TO.C,C13*%
X147828000Y-129937000D03*
X147828000Y-131937000D03*
%TD*%
%TO.C,R1*%
X93218000Y-77724000D03*
X93218000Y-85344000D03*
%TD*%
%TO.C,R5*%
X131810000Y-99000000D03*
X124190000Y-99000000D03*
%TD*%
D28*
%TO.C,FL1*%
X167005000Y-101092000D03*
X167005000Y-98552000D03*
X167005000Y-96012000D03*
%TD*%
D21*
%TO.C,HS1*%
X146292000Y-76313000D03*
X146292000Y-106313000D03*
%TD*%
D12*
%TO.C,J4*%
X84582000Y-105439000D03*
D13*
X84582000Y-110439000D03*
%TD*%
D20*
%TO.C,H1*%
X172000000Y-60500000D03*
%TD*%
D19*
%TO.C,R2*%
X93218000Y-89916000D03*
X93218000Y-97536000D03*
%TD*%
D20*
%TO.C,H2*%
X82000000Y-60500000D03*
%TD*%
D19*
%TO.C,R15*%
X164973000Y-121031000D03*
X172593000Y-121031000D03*
%TD*%
%TO.C,C2*%
X96774000Y-91266000D03*
X96774000Y-96266000D03*
%TD*%
%TO.C,C4*%
X120000000Y-101500000D03*
X120000000Y-106500000D03*
%TD*%
%TO.C,C6*%
X113125000Y-60452000D03*
X111125000Y-60452000D03*
%TD*%
D12*
%TO.C,J3*%
X84582000Y-90932000D03*
D13*
X84582000Y-95932000D03*
%TD*%
M02*
